%TF.GenerationSoftware,KiCad,Pcbnew,7.0.8*%
%TF.CreationDate,2023-11-23T13:30:29+08:00*%
%TF.ProjectId,redox_rev1_hs,7265646f-785f-4726-9576-315f68732e6b,1.0*%
%TF.SameCoordinates,Original*%
%TF.FileFunction,Drillmap*%
%TF.FilePolarity,Positive*%
%FSLAX45Y45*%
G04 Gerber Fmt 4.5, Leading zero omitted, Abs format (unit mm)*
G04 Created by KiCad (PCBNEW 7.0.8) date 2023-11-23 13:30:29*
%MOMM*%
%LPD*%
G01*
G04 APERTURE LIST*
%ADD10C,0.100000*%
%ADD11C,0.200000*%
%ADD12C,0.040000*%
%ADD13C,0.090000*%
%ADD14C,0.109220*%
%ADD15C,0.110000*%
%ADD16C,0.320000*%
G04 APERTURE END LIST*
D10*
X21272500Y-4876800D02*
X8458200Y-4876800D01*
X12674600Y-14808200D02*
X14147800Y-14808200D01*
X21780500Y-5384800D02*
X21272500Y-4876800D01*
X21780500Y-6400800D02*
X21780500Y-11988800D01*
X21780500Y-11988800D02*
X24168100Y-13360400D01*
X15417800Y-14554200D02*
X14401800Y-14554200D01*
X17614900Y-15138400D02*
X15417800Y-14554200D01*
X12242800Y-15240000D02*
X12674600Y-14808200D01*
X21755100Y-17526000D02*
X17614900Y-15138400D01*
X21755100Y-17526000D02*
X21767800Y-17526000D01*
X7950200Y-5715000D02*
X7950200Y-13335000D01*
X7950200Y-5384800D02*
X8458200Y-4876800D01*
X7950200Y-13335000D02*
X8432800Y-13817600D01*
X14147800Y-14808200D02*
X14401800Y-14554200D01*
X21767800Y-17526000D02*
X24168100Y-13360400D01*
X7950200Y-5384800D02*
X7950200Y-5715000D01*
X8432800Y-13817600D02*
X8432800Y-15240000D01*
X21780500Y-5384800D02*
X21780500Y-6400800D01*
X8432800Y-15240000D02*
X12242800Y-15240000D01*
D11*
D12*
X13670600Y-8692200D02*
X13710600Y-8732200D01*
X13710600Y-8692200D02*
X13670600Y-8732200D01*
X14254800Y-10571800D02*
X14294800Y-10611800D01*
X14294800Y-10571800D02*
X14254800Y-10611800D01*
X14356400Y-12248200D02*
X14396400Y-12288200D01*
X14396400Y-12248200D02*
X14356400Y-12288200D01*
X15499400Y-6457000D02*
X15539400Y-6497000D01*
X15539400Y-6457000D02*
X15499400Y-6497000D01*
X16312200Y-6406200D02*
X16352200Y-6446200D01*
X16352200Y-6406200D02*
X16312200Y-6446200D01*
X19690400Y-6609400D02*
X19730400Y-6649400D01*
X19730400Y-6609400D02*
X19690400Y-6649400D01*
X19715800Y-5872800D02*
X19755800Y-5912800D01*
X19755800Y-5872800D02*
X19715800Y-5912800D01*
D13*
X20362200Y-6210000D02*
G75*
G03*
X20362200Y-6210000I-45000J0D01*
G01*
D11*
X20272200Y-6180000D02*
X20272200Y-6240000D01*
X20272200Y-6240000D02*
G75*
G03*
X20362200Y-6240000I45000J0D01*
G01*
X20362200Y-6240000D02*
X20362200Y-6180000D01*
X20362200Y-6180000D02*
G75*
G03*
X20272200Y-6180000I-45000J0D01*
G01*
D13*
X20822200Y-5400000D02*
G75*
G03*
X20822200Y-5400000I-45000J0D01*
G01*
D11*
X20732200Y-5370000D02*
X20732200Y-5430000D01*
X20732200Y-5430000D02*
G75*
G03*
X20822200Y-5430000I45000J0D01*
G01*
X20822200Y-5430000D02*
X20822200Y-5370000D01*
X20822200Y-5370000D02*
G75*
G03*
X20732200Y-5370000I-45000J0D01*
G01*
D13*
X20822200Y-5700000D02*
G75*
G03*
X20822200Y-5700000I-45000J0D01*
G01*
D11*
X20732200Y-5670000D02*
X20732200Y-5730000D01*
X20732200Y-5730000D02*
G75*
G03*
X20822200Y-5730000I45000J0D01*
G01*
X20822200Y-5730000D02*
X20822200Y-5670000D01*
X20822200Y-5670000D02*
G75*
G03*
X20732200Y-5670000I-45000J0D01*
G01*
D13*
X20822200Y-6100000D02*
G75*
G03*
X20822200Y-6100000I-45000J0D01*
G01*
D11*
X20732200Y-6070000D02*
X20732200Y-6130000D01*
X20732200Y-6130000D02*
G75*
G03*
X20822200Y-6130000I45000J0D01*
G01*
X20822200Y-6130000D02*
X20822200Y-6070000D01*
X20822200Y-6070000D02*
G75*
G03*
X20732200Y-6070000I-45000J0D01*
G01*
D13*
X21282200Y-6210000D02*
G75*
G03*
X21282200Y-6210000I-45000J0D01*
G01*
D11*
X21192200Y-6180000D02*
X21192200Y-6240000D01*
X21192200Y-6240000D02*
G75*
G03*
X21282200Y-6240000I45000J0D01*
G01*
X21282200Y-6240000D02*
X21282200Y-6180000D01*
X21282200Y-6180000D02*
G75*
G03*
X21192200Y-6180000I-45000J0D01*
G01*
D10*
X8754000Y-7443000D02*
X8754000Y-7543000D01*
X8704000Y-7493000D02*
X8804000Y-7493000D01*
X8754000Y-9348000D02*
X8754000Y-9448000D01*
X8704000Y-9398000D02*
X8804000Y-9398000D01*
X8754000Y-11253000D02*
X8754000Y-11353000D01*
X8704000Y-11303000D02*
X8804000Y-11303000D01*
X8754000Y-13158000D02*
X8754000Y-13258000D01*
X8704000Y-13208000D02*
X8804000Y-13208000D01*
X9534000Y-7443000D02*
X9534000Y-7543000D01*
X9484000Y-7493000D02*
X9584000Y-7493000D01*
X9534000Y-9348000D02*
X9534000Y-9448000D01*
X9484000Y-9398000D02*
X9584000Y-9398000D01*
X9534000Y-11253000D02*
X9534000Y-11353000D01*
X9484000Y-11303000D02*
X9584000Y-11303000D01*
X9534000Y-13158000D02*
X9534000Y-13258000D01*
X9484000Y-13208000D02*
X9584000Y-13208000D01*
X10350500Y-13847500D02*
X10350500Y-13947500D01*
X10300500Y-13897500D02*
X10400500Y-13897500D01*
X10350500Y-14627500D02*
X10350500Y-14727500D01*
X10300500Y-14677500D02*
X10400500Y-14677500D01*
X10913000Y-7443000D02*
X10913000Y-7543000D01*
X10863000Y-7493000D02*
X10963000Y-7493000D01*
X10913000Y-9348000D02*
X10913000Y-9448000D01*
X10863000Y-9398000D02*
X10963000Y-9398000D01*
X10913000Y-11253000D02*
X10913000Y-11353000D01*
X10863000Y-11303000D02*
X10963000Y-11303000D01*
X10913000Y-13158000D02*
X10913000Y-13258000D01*
X10863000Y-13208000D02*
X10963000Y-13208000D01*
X11693000Y-7443000D02*
X11693000Y-7543000D01*
X11643000Y-7493000D02*
X11743000Y-7493000D01*
X11693000Y-9348000D02*
X11693000Y-9448000D01*
X11643000Y-9398000D02*
X11743000Y-9398000D01*
X11693000Y-11253000D02*
X11693000Y-11353000D01*
X11643000Y-11303000D02*
X11743000Y-11303000D01*
X11693000Y-13158000D02*
X11693000Y-13258000D01*
X11643000Y-13208000D02*
X11743000Y-13208000D01*
X12255500Y-13657000D02*
X12255500Y-13757000D01*
X12205500Y-13707000D02*
X12305500Y-13707000D01*
X12255500Y-14437000D02*
X12255500Y-14537000D01*
X12205500Y-14487000D02*
X12305500Y-14487000D01*
X12818000Y-6998500D02*
X12818000Y-7098500D01*
X12768000Y-7048500D02*
X12868000Y-7048500D01*
X12818000Y-8903500D02*
X12818000Y-9003500D01*
X12768000Y-8953500D02*
X12868000Y-8953500D01*
X12818000Y-10808500D02*
X12818000Y-10908500D01*
X12768000Y-10858500D02*
X12868000Y-10858500D01*
X12818000Y-12713500D02*
X12818000Y-12813500D01*
X12768000Y-12763500D02*
X12868000Y-12763500D01*
X13598000Y-6998500D02*
X13598000Y-7098500D01*
X13548000Y-7048500D02*
X13648000Y-7048500D01*
X13598000Y-8903500D02*
X13598000Y-9003500D01*
X13548000Y-8953500D02*
X13648000Y-8953500D01*
X13598000Y-10808500D02*
X13598000Y-10908500D01*
X13548000Y-10858500D02*
X13648000Y-10858500D01*
X13598000Y-12713500D02*
X13598000Y-12813500D01*
X13548000Y-12763500D02*
X13648000Y-12763500D01*
X14160500Y-13403000D02*
X14160500Y-13503000D01*
X14110500Y-13453000D02*
X14210500Y-13453000D01*
X14160500Y-14183000D02*
X14160500Y-14283000D01*
X14110500Y-14233000D02*
X14210500Y-14233000D01*
X14723000Y-6744500D02*
X14723000Y-6844500D01*
X14673000Y-6794500D02*
X14773000Y-6794500D01*
X14723000Y-8649500D02*
X14723000Y-8749500D01*
X14673000Y-8699500D02*
X14773000Y-8699500D01*
X14723000Y-10554500D02*
X14723000Y-10654500D01*
X14673000Y-10604500D02*
X14773000Y-10604500D01*
X14723000Y-12459500D02*
X14723000Y-12559500D01*
X14673000Y-12509500D02*
X14773000Y-12509500D01*
X15503000Y-6744500D02*
X15503000Y-6844500D01*
X15453000Y-6794500D02*
X15553000Y-6794500D01*
X15503000Y-8649500D02*
X15503000Y-8749500D01*
X15453000Y-8699500D02*
X15553000Y-8699500D01*
X15503000Y-10554500D02*
X15503000Y-10654500D01*
X15453000Y-10604500D02*
X15553000Y-10604500D01*
X15503000Y-12459500D02*
X15503000Y-12559500D01*
X15453000Y-12509500D02*
X15553000Y-12509500D01*
X16065500Y-13149000D02*
X16065500Y-13249000D01*
X16015500Y-13199000D02*
X16115500Y-13199000D01*
X16065500Y-13929000D02*
X16065500Y-14029000D01*
X16015500Y-13979000D02*
X16115500Y-13979000D01*
X16628000Y-6998500D02*
X16628000Y-7098500D01*
X16578000Y-7048500D02*
X16678000Y-7048500D01*
X16628000Y-8903500D02*
X16628000Y-9003500D01*
X16578000Y-8953500D02*
X16678000Y-8953500D01*
X16628000Y-10808500D02*
X16628000Y-10908500D01*
X16578000Y-10858500D02*
X16678000Y-10858500D01*
X16628000Y-12713500D02*
X16628000Y-12813500D01*
X16578000Y-12763500D02*
X16678000Y-12763500D01*
X17408000Y-6998500D02*
X17408000Y-7098500D01*
X17358000Y-7048500D02*
X17458000Y-7048500D01*
X17408000Y-8903500D02*
X17408000Y-9003500D01*
X17358000Y-8953500D02*
X17458000Y-8953500D01*
X17408000Y-10808500D02*
X17408000Y-10908500D01*
X17358000Y-10858500D02*
X17458000Y-10858500D01*
X17408000Y-12713500D02*
X17408000Y-12813500D01*
X17358000Y-12763500D02*
X17458000Y-12763500D01*
X18533000Y-7189000D02*
X18533000Y-7289000D01*
X18483000Y-7239000D02*
X18583000Y-7239000D01*
X18533000Y-9094000D02*
X18533000Y-9194000D01*
X18483000Y-9144000D02*
X18583000Y-9144000D01*
X18533000Y-10999000D02*
X18533000Y-11099000D01*
X18483000Y-11049000D02*
X18583000Y-11049000D01*
X18533000Y-12904000D02*
X18533000Y-13004000D01*
X18483000Y-12954000D02*
X18583000Y-12954000D01*
X18695061Y-14779311D02*
X18695061Y-14879311D01*
X18645061Y-14829311D02*
X18745061Y-14829311D01*
X18896939Y-14025889D02*
X18896939Y-14125889D01*
X18846939Y-14075889D02*
X18946939Y-14075889D01*
X19194850Y-15350600D02*
X19194850Y-15450600D01*
X19144850Y-15400600D02*
X19244850Y-15400600D01*
X19313000Y-7189000D02*
X19313000Y-7289000D01*
X19263000Y-7239000D02*
X19363000Y-7239000D01*
X19313000Y-9094000D02*
X19313000Y-9194000D01*
X19263000Y-9144000D02*
X19363000Y-9144000D01*
X19313000Y-10999000D02*
X19313000Y-11099000D01*
X19263000Y-11049000D02*
X19363000Y-11049000D01*
X19313000Y-12904000D02*
X19313000Y-13004000D01*
X19263000Y-12954000D02*
X19363000Y-12954000D01*
X19870350Y-15740600D02*
X19870350Y-15840600D01*
X19820350Y-15790600D02*
X19920350Y-15790600D01*
X19888200Y-10110000D02*
X19888200Y-10210000D01*
X19838200Y-10160000D02*
X19938200Y-10160000D01*
X19888200Y-10364000D02*
X19888200Y-10464000D01*
X19838200Y-10414000D02*
X19938200Y-10414000D01*
X19888200Y-10618000D02*
X19888200Y-10718000D01*
X19838200Y-10668000D02*
X19938200Y-10668000D01*
X20066000Y-5503600D02*
X20066000Y-5603600D01*
X20016000Y-5553600D02*
X20116000Y-5553600D01*
X20066000Y-6283600D02*
X20066000Y-6383600D01*
X20016000Y-6333600D02*
X20116000Y-6333600D01*
X20426750Y-13217000D02*
X20426750Y-13317000D01*
X20376750Y-13267000D02*
X20476750Y-13267000D01*
X20438000Y-8141500D02*
X20438000Y-8241500D01*
X20388000Y-8191500D02*
X20488000Y-8191500D01*
X20438000Y-10618000D02*
X20438000Y-10718000D01*
X20388000Y-10668000D02*
X20488000Y-10668000D01*
X20871250Y-16315800D02*
X20871250Y-16415800D01*
X20821250Y-16365800D02*
X20921250Y-16365800D01*
X21102250Y-13607000D02*
X21102250Y-13707000D01*
X21052250Y-13657000D02*
X21152250Y-13657000D01*
X21218000Y-8141500D02*
X21218000Y-8241500D01*
X21168000Y-8191500D02*
X21268000Y-8191500D01*
X21218000Y-10618000D02*
X21218000Y-10718000D01*
X21168000Y-10668000D02*
X21268000Y-10668000D01*
X21488400Y-5503600D02*
X21488400Y-5603600D01*
X21438400Y-5553600D02*
X21538400Y-5553600D01*
X21488400Y-6283600D02*
X21488400Y-6383600D01*
X21438400Y-6333600D02*
X21538400Y-6333600D01*
X21546750Y-16705800D02*
X21546750Y-16805800D01*
X21496750Y-16755800D02*
X21596750Y-16755800D01*
X22077750Y-14169500D02*
X22077750Y-14269500D01*
X22027750Y-14219500D02*
X22127750Y-14219500D01*
X22753250Y-14559500D02*
X22753250Y-14659500D01*
X22703250Y-14609500D02*
X22803250Y-14609500D01*
D14*
X14389615Y-5245616D02*
X14389615Y-5168385D01*
X14312384Y-5168385D01*
X14312384Y-5245616D01*
X14389615Y-5245616D01*
X14389615Y-5499616D02*
X14389615Y-5422385D01*
X14312384Y-5422385D01*
X14312384Y-5499616D01*
X14389615Y-5499616D01*
X14389615Y-5753615D02*
X14389615Y-5676384D01*
X14312384Y-5676384D01*
X14312384Y-5753615D01*
X14389615Y-5753615D01*
X14389615Y-6007615D02*
X14389615Y-5930384D01*
X14312384Y-5930384D01*
X14312384Y-6007615D01*
X14389615Y-6007615D01*
X14389615Y-6261615D02*
X14389615Y-6184384D01*
X14312384Y-6184384D01*
X14312384Y-6261615D01*
X14389615Y-6261615D01*
X14389615Y-6515615D02*
X14389615Y-6438384D01*
X14312384Y-6438384D01*
X14312384Y-6515615D01*
X14389615Y-6515615D01*
X14389615Y-6769615D02*
X14389615Y-6692384D01*
X14312384Y-6692384D01*
X14312384Y-6769615D01*
X14389615Y-6769615D01*
X14389615Y-7023615D02*
X14389615Y-6946384D01*
X14312384Y-6946384D01*
X14312384Y-7023615D01*
X14389615Y-7023615D01*
X14389615Y-7277615D02*
X14389615Y-7200384D01*
X14312384Y-7200384D01*
X14312384Y-7277615D01*
X14389615Y-7277615D01*
X14389615Y-7531615D02*
X14389615Y-7454384D01*
X14312384Y-7454384D01*
X14312384Y-7531615D01*
X14389615Y-7531615D01*
X14389615Y-7785615D02*
X14389615Y-7708384D01*
X14312384Y-7708384D01*
X14312384Y-7785615D01*
X14389615Y-7785615D01*
X14389615Y-8039615D02*
X14389615Y-7962384D01*
X14312384Y-7962384D01*
X14312384Y-8039615D01*
X14389615Y-8039615D01*
X15913615Y-5245616D02*
X15913615Y-5168385D01*
X15836384Y-5168385D01*
X15836384Y-5245616D01*
X15913615Y-5245616D01*
X15913615Y-5499616D02*
X15913615Y-5422385D01*
X15836384Y-5422385D01*
X15836384Y-5499616D01*
X15913615Y-5499616D01*
X15913615Y-5753615D02*
X15913615Y-5676384D01*
X15836384Y-5676384D01*
X15836384Y-5753615D01*
X15913615Y-5753615D01*
X15913615Y-6007615D02*
X15913615Y-5930384D01*
X15836384Y-5930384D01*
X15836384Y-6007615D01*
X15913615Y-6007615D01*
X15913615Y-6261615D02*
X15913615Y-6184384D01*
X15836384Y-6184384D01*
X15836384Y-6261615D01*
X15913615Y-6261615D01*
X15913615Y-6515615D02*
X15913615Y-6438384D01*
X15836384Y-6438384D01*
X15836384Y-6515615D01*
X15913615Y-6515615D01*
X15913615Y-6769615D02*
X15913615Y-6692384D01*
X15836384Y-6692384D01*
X15836384Y-6769615D01*
X15913615Y-6769615D01*
X15913615Y-7023615D02*
X15913615Y-6946384D01*
X15836384Y-6946384D01*
X15836384Y-7023615D01*
X15913615Y-7023615D01*
X15913615Y-7277615D02*
X15913615Y-7200384D01*
X15836384Y-7200384D01*
X15836384Y-7277615D01*
X15913615Y-7277615D01*
X15913615Y-7531615D02*
X15913615Y-7454384D01*
X15836384Y-7454384D01*
X15836384Y-7531615D01*
X15913615Y-7531615D01*
X15913615Y-7785615D02*
X15913615Y-7708384D01*
X15836384Y-7708384D01*
X15836384Y-7785615D01*
X15913615Y-7785615D01*
X15913615Y-8039615D02*
X15913615Y-7962384D01*
X15836384Y-7962384D01*
X15836384Y-8039615D01*
X15913615Y-8039615D01*
D15*
X11480800Y-5185800D02*
X11535800Y-5130800D01*
X11480800Y-5075800D01*
X11425800Y-5130800D01*
X11480800Y-5185800D01*
X11480800Y-5635800D02*
X11535800Y-5580800D01*
X11480800Y-5525800D01*
X11425800Y-5580800D01*
X11480800Y-5635800D01*
X12130800Y-5185800D02*
X12185800Y-5130800D01*
X12130800Y-5075800D01*
X12075800Y-5130800D01*
X12130800Y-5185800D01*
X12130800Y-5635800D02*
X12185800Y-5580800D01*
X12130800Y-5525800D01*
X12075800Y-5580800D01*
X12130800Y-5635800D01*
D16*
X8412500Y-5237500D02*
X8732500Y-5557500D01*
X8732500Y-5237500D02*
X8412500Y-5557500D01*
X8732500Y-5397500D02*
G75*
G03*
X8732500Y-5397500I-160000J0D01*
G01*
X10127000Y-12730500D02*
X10447000Y-13050500D01*
X10447000Y-12730500D02*
X10127000Y-13050500D01*
X10447000Y-12890500D02*
G75*
G03*
X10447000Y-12890500I-160000J0D01*
G01*
X19461500Y-5047000D02*
X19781500Y-5367000D01*
X19781500Y-5047000D02*
X19461500Y-5367000D01*
X19781500Y-5207000D02*
G75*
G03*
X19781500Y-5207000I-160000J0D01*
G01*
X21176000Y-14267200D02*
X21496000Y-14587200D01*
X21496000Y-14267200D02*
X21176000Y-14587200D01*
X21496000Y-14427200D02*
G75*
G03*
X21496000Y-14427200I-160000J0D01*
G01*
D11*
X8205977Y-17842484D02*
X8205977Y-17642484D01*
X8205977Y-17642484D02*
X8253596Y-17642484D01*
X8253596Y-17642484D02*
X8282167Y-17652008D01*
X8282167Y-17652008D02*
X8301215Y-17671055D01*
X8301215Y-17671055D02*
X8310739Y-17690103D01*
X8310739Y-17690103D02*
X8320262Y-17728198D01*
X8320262Y-17728198D02*
X8320262Y-17756770D01*
X8320262Y-17756770D02*
X8310739Y-17794865D01*
X8310739Y-17794865D02*
X8301215Y-17813912D01*
X8301215Y-17813912D02*
X8282167Y-17832960D01*
X8282167Y-17832960D02*
X8253596Y-17842484D01*
X8253596Y-17842484D02*
X8205977Y-17842484D01*
X8405977Y-17842484D02*
X8405977Y-17709150D01*
X8405977Y-17747246D02*
X8415501Y-17728198D01*
X8415501Y-17728198D02*
X8425024Y-17718674D01*
X8425024Y-17718674D02*
X8444072Y-17709150D01*
X8444072Y-17709150D02*
X8463120Y-17709150D01*
X8529786Y-17842484D02*
X8529786Y-17709150D01*
X8529786Y-17642484D02*
X8520263Y-17652008D01*
X8520263Y-17652008D02*
X8529786Y-17661531D01*
X8529786Y-17661531D02*
X8539310Y-17652008D01*
X8539310Y-17652008D02*
X8529786Y-17642484D01*
X8529786Y-17642484D02*
X8529786Y-17661531D01*
X8653596Y-17842484D02*
X8634548Y-17832960D01*
X8634548Y-17832960D02*
X8625024Y-17813912D01*
X8625024Y-17813912D02*
X8625024Y-17642484D01*
X8758358Y-17842484D02*
X8739310Y-17832960D01*
X8739310Y-17832960D02*
X8729786Y-17813912D01*
X8729786Y-17813912D02*
X8729786Y-17642484D01*
X8986929Y-17842484D02*
X8986929Y-17642484D01*
X8986929Y-17642484D02*
X9053596Y-17785341D01*
X9053596Y-17785341D02*
X9120263Y-17642484D01*
X9120263Y-17642484D02*
X9120263Y-17842484D01*
X9301215Y-17842484D02*
X9301215Y-17737722D01*
X9301215Y-17737722D02*
X9291691Y-17718674D01*
X9291691Y-17718674D02*
X9272644Y-17709150D01*
X9272644Y-17709150D02*
X9234548Y-17709150D01*
X9234548Y-17709150D02*
X9215501Y-17718674D01*
X9301215Y-17832960D02*
X9282167Y-17842484D01*
X9282167Y-17842484D02*
X9234548Y-17842484D01*
X9234548Y-17842484D02*
X9215501Y-17832960D01*
X9215501Y-17832960D02*
X9205977Y-17813912D01*
X9205977Y-17813912D02*
X9205977Y-17794865D01*
X9205977Y-17794865D02*
X9215501Y-17775817D01*
X9215501Y-17775817D02*
X9234548Y-17766293D01*
X9234548Y-17766293D02*
X9282167Y-17766293D01*
X9282167Y-17766293D02*
X9301215Y-17756770D01*
X9396453Y-17709150D02*
X9396453Y-17909150D01*
X9396453Y-17718674D02*
X9415501Y-17709150D01*
X9415501Y-17709150D02*
X9453596Y-17709150D01*
X9453596Y-17709150D02*
X9472644Y-17718674D01*
X9472644Y-17718674D02*
X9482167Y-17728198D01*
X9482167Y-17728198D02*
X9491691Y-17747246D01*
X9491691Y-17747246D02*
X9491691Y-17804389D01*
X9491691Y-17804389D02*
X9482167Y-17823436D01*
X9482167Y-17823436D02*
X9472644Y-17832960D01*
X9472644Y-17832960D02*
X9453596Y-17842484D01*
X9453596Y-17842484D02*
X9415501Y-17842484D01*
X9415501Y-17842484D02*
X9396453Y-17832960D01*
X9577405Y-17823436D02*
X9586929Y-17832960D01*
X9586929Y-17832960D02*
X9577405Y-17842484D01*
X9577405Y-17842484D02*
X9567882Y-17832960D01*
X9567882Y-17832960D02*
X9577405Y-17823436D01*
X9577405Y-17823436D02*
X9577405Y-17842484D01*
X9577405Y-17718674D02*
X9586929Y-17728198D01*
X9586929Y-17728198D02*
X9577405Y-17737722D01*
X9577405Y-17737722D02*
X9567882Y-17728198D01*
X9567882Y-17728198D02*
X9577405Y-17718674D01*
X9577405Y-17718674D02*
X9577405Y-17737722D01*
D12*
X7905200Y-18151000D02*
X7945200Y-18191000D01*
X7945200Y-18151000D02*
X7905200Y-18191000D01*
D11*
X8244072Y-18062484D02*
X8263120Y-18062484D01*
X8263120Y-18062484D02*
X8282167Y-18072008D01*
X8282167Y-18072008D02*
X8291691Y-18081531D01*
X8291691Y-18081531D02*
X8301215Y-18100579D01*
X8301215Y-18100579D02*
X8310739Y-18138674D01*
X8310739Y-18138674D02*
X8310739Y-18186293D01*
X8310739Y-18186293D02*
X8301215Y-18224389D01*
X8301215Y-18224389D02*
X8291691Y-18243436D01*
X8291691Y-18243436D02*
X8282167Y-18252960D01*
X8282167Y-18252960D02*
X8263120Y-18262484D01*
X8263120Y-18262484D02*
X8244072Y-18262484D01*
X8244072Y-18262484D02*
X8225024Y-18252960D01*
X8225024Y-18252960D02*
X8215501Y-18243436D01*
X8215501Y-18243436D02*
X8205977Y-18224389D01*
X8205977Y-18224389D02*
X8196453Y-18186293D01*
X8196453Y-18186293D02*
X8196453Y-18138674D01*
X8196453Y-18138674D02*
X8205977Y-18100579D01*
X8205977Y-18100579D02*
X8215501Y-18081531D01*
X8215501Y-18081531D02*
X8225024Y-18072008D01*
X8225024Y-18072008D02*
X8244072Y-18062484D01*
X8396453Y-18243436D02*
X8405977Y-18252960D01*
X8405977Y-18252960D02*
X8396453Y-18262484D01*
X8396453Y-18262484D02*
X8386929Y-18252960D01*
X8386929Y-18252960D02*
X8396453Y-18243436D01*
X8396453Y-18243436D02*
X8396453Y-18262484D01*
X8577405Y-18129150D02*
X8577405Y-18262484D01*
X8529786Y-18052960D02*
X8482167Y-18195817D01*
X8482167Y-18195817D02*
X8605977Y-18195817D01*
X8720263Y-18062484D02*
X8739310Y-18062484D01*
X8739310Y-18062484D02*
X8758358Y-18072008D01*
X8758358Y-18072008D02*
X8767882Y-18081531D01*
X8767882Y-18081531D02*
X8777405Y-18100579D01*
X8777405Y-18100579D02*
X8786929Y-18138674D01*
X8786929Y-18138674D02*
X8786929Y-18186293D01*
X8786929Y-18186293D02*
X8777405Y-18224389D01*
X8777405Y-18224389D02*
X8767882Y-18243436D01*
X8767882Y-18243436D02*
X8758358Y-18252960D01*
X8758358Y-18252960D02*
X8739310Y-18262484D01*
X8739310Y-18262484D02*
X8720263Y-18262484D01*
X8720263Y-18262484D02*
X8701215Y-18252960D01*
X8701215Y-18252960D02*
X8691691Y-18243436D01*
X8691691Y-18243436D02*
X8682167Y-18224389D01*
X8682167Y-18224389D02*
X8672644Y-18186293D01*
X8672644Y-18186293D02*
X8672644Y-18138674D01*
X8672644Y-18138674D02*
X8682167Y-18100579D01*
X8682167Y-18100579D02*
X8691691Y-18081531D01*
X8691691Y-18081531D02*
X8701215Y-18072008D01*
X8701215Y-18072008D02*
X8720263Y-18062484D01*
X8910739Y-18062484D02*
X8929786Y-18062484D01*
X8929786Y-18062484D02*
X8948834Y-18072008D01*
X8948834Y-18072008D02*
X8958358Y-18081531D01*
X8958358Y-18081531D02*
X8967882Y-18100579D01*
X8967882Y-18100579D02*
X8977405Y-18138674D01*
X8977405Y-18138674D02*
X8977405Y-18186293D01*
X8977405Y-18186293D02*
X8967882Y-18224389D01*
X8967882Y-18224389D02*
X8958358Y-18243436D01*
X8958358Y-18243436D02*
X8948834Y-18252960D01*
X8948834Y-18252960D02*
X8929786Y-18262484D01*
X8929786Y-18262484D02*
X8910739Y-18262484D01*
X8910739Y-18262484D02*
X8891691Y-18252960D01*
X8891691Y-18252960D02*
X8882167Y-18243436D01*
X8882167Y-18243436D02*
X8872644Y-18224389D01*
X8872644Y-18224389D02*
X8863120Y-18186293D01*
X8863120Y-18186293D02*
X8863120Y-18138674D01*
X8863120Y-18138674D02*
X8872644Y-18100579D01*
X8872644Y-18100579D02*
X8882167Y-18081531D01*
X8882167Y-18081531D02*
X8891691Y-18072008D01*
X8891691Y-18072008D02*
X8910739Y-18062484D01*
X9063120Y-18262484D02*
X9063120Y-18129150D01*
X9063120Y-18148198D02*
X9072644Y-18138674D01*
X9072644Y-18138674D02*
X9091691Y-18129150D01*
X9091691Y-18129150D02*
X9120263Y-18129150D01*
X9120263Y-18129150D02*
X9139310Y-18138674D01*
X9139310Y-18138674D02*
X9148834Y-18157722D01*
X9148834Y-18157722D02*
X9148834Y-18262484D01*
X9148834Y-18157722D02*
X9158358Y-18138674D01*
X9158358Y-18138674D02*
X9177405Y-18129150D01*
X9177405Y-18129150D02*
X9205977Y-18129150D01*
X9205977Y-18129150D02*
X9225025Y-18138674D01*
X9225025Y-18138674D02*
X9234548Y-18157722D01*
X9234548Y-18157722D02*
X9234548Y-18262484D01*
X9329786Y-18262484D02*
X9329786Y-18129150D01*
X9329786Y-18148198D02*
X9339310Y-18138674D01*
X9339310Y-18138674D02*
X9358358Y-18129150D01*
X9358358Y-18129150D02*
X9386929Y-18129150D01*
X9386929Y-18129150D02*
X9405977Y-18138674D01*
X9405977Y-18138674D02*
X9415501Y-18157722D01*
X9415501Y-18157722D02*
X9415501Y-18262484D01*
X9415501Y-18157722D02*
X9425025Y-18138674D01*
X9425025Y-18138674D02*
X9444072Y-18129150D01*
X9444072Y-18129150D02*
X9472644Y-18129150D01*
X9472644Y-18129150D02*
X9491691Y-18138674D01*
X9491691Y-18138674D02*
X9501215Y-18157722D01*
X9501215Y-18157722D02*
X9501215Y-18262484D01*
X9891691Y-18052960D02*
X9720263Y-18310103D01*
X10148834Y-18062484D02*
X10167882Y-18062484D01*
X10167882Y-18062484D02*
X10186929Y-18072008D01*
X10186929Y-18072008D02*
X10196453Y-18081531D01*
X10196453Y-18081531D02*
X10205977Y-18100579D01*
X10205977Y-18100579D02*
X10215501Y-18138674D01*
X10215501Y-18138674D02*
X10215501Y-18186293D01*
X10215501Y-18186293D02*
X10205977Y-18224389D01*
X10205977Y-18224389D02*
X10196453Y-18243436D01*
X10196453Y-18243436D02*
X10186929Y-18252960D01*
X10186929Y-18252960D02*
X10167882Y-18262484D01*
X10167882Y-18262484D02*
X10148834Y-18262484D01*
X10148834Y-18262484D02*
X10129787Y-18252960D01*
X10129787Y-18252960D02*
X10120263Y-18243436D01*
X10120263Y-18243436D02*
X10110739Y-18224389D01*
X10110739Y-18224389D02*
X10101215Y-18186293D01*
X10101215Y-18186293D02*
X10101215Y-18138674D01*
X10101215Y-18138674D02*
X10110739Y-18100579D01*
X10110739Y-18100579D02*
X10120263Y-18081531D01*
X10120263Y-18081531D02*
X10129787Y-18072008D01*
X10129787Y-18072008D02*
X10148834Y-18062484D01*
X10301215Y-18243436D02*
X10310739Y-18252960D01*
X10310739Y-18252960D02*
X10301215Y-18262484D01*
X10301215Y-18262484D02*
X10291691Y-18252960D01*
X10291691Y-18252960D02*
X10301215Y-18243436D01*
X10301215Y-18243436D02*
X10301215Y-18262484D01*
X10434548Y-18062484D02*
X10453596Y-18062484D01*
X10453596Y-18062484D02*
X10472644Y-18072008D01*
X10472644Y-18072008D02*
X10482168Y-18081531D01*
X10482168Y-18081531D02*
X10491691Y-18100579D01*
X10491691Y-18100579D02*
X10501215Y-18138674D01*
X10501215Y-18138674D02*
X10501215Y-18186293D01*
X10501215Y-18186293D02*
X10491691Y-18224389D01*
X10491691Y-18224389D02*
X10482168Y-18243436D01*
X10482168Y-18243436D02*
X10472644Y-18252960D01*
X10472644Y-18252960D02*
X10453596Y-18262484D01*
X10453596Y-18262484D02*
X10434548Y-18262484D01*
X10434548Y-18262484D02*
X10415501Y-18252960D01*
X10415501Y-18252960D02*
X10405977Y-18243436D01*
X10405977Y-18243436D02*
X10396453Y-18224389D01*
X10396453Y-18224389D02*
X10386929Y-18186293D01*
X10386929Y-18186293D02*
X10386929Y-18138674D01*
X10386929Y-18138674D02*
X10396453Y-18100579D01*
X10396453Y-18100579D02*
X10405977Y-18081531D01*
X10405977Y-18081531D02*
X10415501Y-18072008D01*
X10415501Y-18072008D02*
X10434548Y-18062484D01*
X10691691Y-18262484D02*
X10577406Y-18262484D01*
X10634548Y-18262484D02*
X10634548Y-18062484D01*
X10634548Y-18062484D02*
X10615501Y-18091055D01*
X10615501Y-18091055D02*
X10596453Y-18110103D01*
X10596453Y-18110103D02*
X10577406Y-18119627D01*
X10872644Y-18062484D02*
X10777406Y-18062484D01*
X10777406Y-18062484D02*
X10767882Y-18157722D01*
X10767882Y-18157722D02*
X10777406Y-18148198D01*
X10777406Y-18148198D02*
X10796453Y-18138674D01*
X10796453Y-18138674D02*
X10844072Y-18138674D01*
X10844072Y-18138674D02*
X10863120Y-18148198D01*
X10863120Y-18148198D02*
X10872644Y-18157722D01*
X10872644Y-18157722D02*
X10882168Y-18176770D01*
X10882168Y-18176770D02*
X10882168Y-18224389D01*
X10882168Y-18224389D02*
X10872644Y-18243436D01*
X10872644Y-18243436D02*
X10863120Y-18252960D01*
X10863120Y-18252960D02*
X10844072Y-18262484D01*
X10844072Y-18262484D02*
X10796453Y-18262484D01*
X10796453Y-18262484D02*
X10777406Y-18252960D01*
X10777406Y-18252960D02*
X10767882Y-18243436D01*
X10948834Y-18062484D02*
X11082168Y-18062484D01*
X11082168Y-18062484D02*
X10996453Y-18262484D01*
X11148834Y-18062484D02*
X11148834Y-18100579D01*
X11225025Y-18062484D02*
X11225025Y-18100579D01*
X11520263Y-18338674D02*
X11510739Y-18329150D01*
X11510739Y-18329150D02*
X11491691Y-18300579D01*
X11491691Y-18300579D02*
X11482168Y-18281531D01*
X11482168Y-18281531D02*
X11472644Y-18252960D01*
X11472644Y-18252960D02*
X11463120Y-18205341D01*
X11463120Y-18205341D02*
X11463120Y-18167246D01*
X11463120Y-18167246D02*
X11472644Y-18119627D01*
X11472644Y-18119627D02*
X11482168Y-18091055D01*
X11482168Y-18091055D02*
X11491691Y-18072008D01*
X11491691Y-18072008D02*
X11510739Y-18043436D01*
X11510739Y-18043436D02*
X11520263Y-18033912D01*
X11577406Y-18062484D02*
X11710739Y-18062484D01*
X11710739Y-18062484D02*
X11625025Y-18262484D01*
X11939310Y-18262484D02*
X11939310Y-18062484D01*
X12025025Y-18262484D02*
X12025025Y-18157722D01*
X12025025Y-18157722D02*
X12015501Y-18138674D01*
X12015501Y-18138674D02*
X11996453Y-18129150D01*
X11996453Y-18129150D02*
X11967882Y-18129150D01*
X11967882Y-18129150D02*
X11948834Y-18138674D01*
X11948834Y-18138674D02*
X11939310Y-18148198D01*
X12148834Y-18262484D02*
X12129787Y-18252960D01*
X12129787Y-18252960D02*
X12120263Y-18243436D01*
X12120263Y-18243436D02*
X12110739Y-18224389D01*
X12110739Y-18224389D02*
X12110739Y-18167246D01*
X12110739Y-18167246D02*
X12120263Y-18148198D01*
X12120263Y-18148198D02*
X12129787Y-18138674D01*
X12129787Y-18138674D02*
X12148834Y-18129150D01*
X12148834Y-18129150D02*
X12177406Y-18129150D01*
X12177406Y-18129150D02*
X12196453Y-18138674D01*
X12196453Y-18138674D02*
X12205977Y-18148198D01*
X12205977Y-18148198D02*
X12215501Y-18167246D01*
X12215501Y-18167246D02*
X12215501Y-18224389D01*
X12215501Y-18224389D02*
X12205977Y-18243436D01*
X12205977Y-18243436D02*
X12196453Y-18252960D01*
X12196453Y-18252960D02*
X12177406Y-18262484D01*
X12177406Y-18262484D02*
X12148834Y-18262484D01*
X12329787Y-18262484D02*
X12310739Y-18252960D01*
X12310739Y-18252960D02*
X12301215Y-18233912D01*
X12301215Y-18233912D02*
X12301215Y-18062484D01*
X12482168Y-18252960D02*
X12463120Y-18262484D01*
X12463120Y-18262484D02*
X12425025Y-18262484D01*
X12425025Y-18262484D02*
X12405977Y-18252960D01*
X12405977Y-18252960D02*
X12396453Y-18233912D01*
X12396453Y-18233912D02*
X12396453Y-18157722D01*
X12396453Y-18157722D02*
X12405977Y-18138674D01*
X12405977Y-18138674D02*
X12425025Y-18129150D01*
X12425025Y-18129150D02*
X12463120Y-18129150D01*
X12463120Y-18129150D02*
X12482168Y-18138674D01*
X12482168Y-18138674D02*
X12491691Y-18157722D01*
X12491691Y-18157722D02*
X12491691Y-18176770D01*
X12491691Y-18176770D02*
X12396453Y-18195817D01*
X12567882Y-18252960D02*
X12586930Y-18262484D01*
X12586930Y-18262484D02*
X12625025Y-18262484D01*
X12625025Y-18262484D02*
X12644072Y-18252960D01*
X12644072Y-18252960D02*
X12653596Y-18233912D01*
X12653596Y-18233912D02*
X12653596Y-18224389D01*
X12653596Y-18224389D02*
X12644072Y-18205341D01*
X12644072Y-18205341D02*
X12625025Y-18195817D01*
X12625025Y-18195817D02*
X12596453Y-18195817D01*
X12596453Y-18195817D02*
X12577406Y-18186293D01*
X12577406Y-18186293D02*
X12567882Y-18167246D01*
X12567882Y-18167246D02*
X12567882Y-18157722D01*
X12567882Y-18157722D02*
X12577406Y-18138674D01*
X12577406Y-18138674D02*
X12596453Y-18129150D01*
X12596453Y-18129150D02*
X12625025Y-18129150D01*
X12625025Y-18129150D02*
X12644072Y-18138674D01*
X12720263Y-18338674D02*
X12729787Y-18329150D01*
X12729787Y-18329150D02*
X12748834Y-18300579D01*
X12748834Y-18300579D02*
X12758358Y-18281531D01*
X12758358Y-18281531D02*
X12767882Y-18252960D01*
X12767882Y-18252960D02*
X12777406Y-18205341D01*
X12777406Y-18205341D02*
X12777406Y-18167246D01*
X12777406Y-18167246D02*
X12767882Y-18119627D01*
X12767882Y-18119627D02*
X12758358Y-18091055D01*
X12758358Y-18091055D02*
X12748834Y-18072008D01*
X12748834Y-18072008D02*
X12729787Y-18043436D01*
X12729787Y-18043436D02*
X12720263Y-18033912D01*
D13*
X7945200Y-18435000D02*
G75*
G03*
X7945200Y-18435000I-45000J0D01*
G01*
D11*
X8244072Y-18326484D02*
X8263120Y-18326484D01*
X8263120Y-18326484D02*
X8282167Y-18336008D01*
X8282167Y-18336008D02*
X8291691Y-18345531D01*
X8291691Y-18345531D02*
X8301215Y-18364579D01*
X8301215Y-18364579D02*
X8310739Y-18402674D01*
X8310739Y-18402674D02*
X8310739Y-18450293D01*
X8310739Y-18450293D02*
X8301215Y-18488389D01*
X8301215Y-18488389D02*
X8291691Y-18507436D01*
X8291691Y-18507436D02*
X8282167Y-18516960D01*
X8282167Y-18516960D02*
X8263120Y-18526484D01*
X8263120Y-18526484D02*
X8244072Y-18526484D01*
X8244072Y-18526484D02*
X8225024Y-18516960D01*
X8225024Y-18516960D02*
X8215501Y-18507436D01*
X8215501Y-18507436D02*
X8205977Y-18488389D01*
X8205977Y-18488389D02*
X8196453Y-18450293D01*
X8196453Y-18450293D02*
X8196453Y-18402674D01*
X8196453Y-18402674D02*
X8205977Y-18364579D01*
X8205977Y-18364579D02*
X8215501Y-18345531D01*
X8215501Y-18345531D02*
X8225024Y-18336008D01*
X8225024Y-18336008D02*
X8244072Y-18326484D01*
X8396453Y-18507436D02*
X8405977Y-18516960D01*
X8405977Y-18516960D02*
X8396453Y-18526484D01*
X8396453Y-18526484D02*
X8386929Y-18516960D01*
X8386929Y-18516960D02*
X8396453Y-18507436D01*
X8396453Y-18507436D02*
X8396453Y-18526484D01*
X8501215Y-18526484D02*
X8539310Y-18526484D01*
X8539310Y-18526484D02*
X8558358Y-18516960D01*
X8558358Y-18516960D02*
X8567882Y-18507436D01*
X8567882Y-18507436D02*
X8586929Y-18478865D01*
X8586929Y-18478865D02*
X8596453Y-18440770D01*
X8596453Y-18440770D02*
X8596453Y-18364579D01*
X8596453Y-18364579D02*
X8586929Y-18345531D01*
X8586929Y-18345531D02*
X8577405Y-18336008D01*
X8577405Y-18336008D02*
X8558358Y-18326484D01*
X8558358Y-18326484D02*
X8520263Y-18326484D01*
X8520263Y-18326484D02*
X8501215Y-18336008D01*
X8501215Y-18336008D02*
X8491691Y-18345531D01*
X8491691Y-18345531D02*
X8482167Y-18364579D01*
X8482167Y-18364579D02*
X8482167Y-18412198D01*
X8482167Y-18412198D02*
X8491691Y-18431246D01*
X8491691Y-18431246D02*
X8501215Y-18440770D01*
X8501215Y-18440770D02*
X8520263Y-18450293D01*
X8520263Y-18450293D02*
X8558358Y-18450293D01*
X8558358Y-18450293D02*
X8577405Y-18440770D01*
X8577405Y-18440770D02*
X8586929Y-18431246D01*
X8586929Y-18431246D02*
X8596453Y-18412198D01*
X8720263Y-18326484D02*
X8739310Y-18326484D01*
X8739310Y-18326484D02*
X8758358Y-18336008D01*
X8758358Y-18336008D02*
X8767882Y-18345531D01*
X8767882Y-18345531D02*
X8777405Y-18364579D01*
X8777405Y-18364579D02*
X8786929Y-18402674D01*
X8786929Y-18402674D02*
X8786929Y-18450293D01*
X8786929Y-18450293D02*
X8777405Y-18488389D01*
X8777405Y-18488389D02*
X8767882Y-18507436D01*
X8767882Y-18507436D02*
X8758358Y-18516960D01*
X8758358Y-18516960D02*
X8739310Y-18526484D01*
X8739310Y-18526484D02*
X8720263Y-18526484D01*
X8720263Y-18526484D02*
X8701215Y-18516960D01*
X8701215Y-18516960D02*
X8691691Y-18507436D01*
X8691691Y-18507436D02*
X8682167Y-18488389D01*
X8682167Y-18488389D02*
X8672644Y-18450293D01*
X8672644Y-18450293D02*
X8672644Y-18402674D01*
X8672644Y-18402674D02*
X8682167Y-18364579D01*
X8682167Y-18364579D02*
X8691691Y-18345531D01*
X8691691Y-18345531D02*
X8701215Y-18336008D01*
X8701215Y-18336008D02*
X8720263Y-18326484D01*
X8910739Y-18326484D02*
X8929786Y-18326484D01*
X8929786Y-18326484D02*
X8948834Y-18336008D01*
X8948834Y-18336008D02*
X8958358Y-18345531D01*
X8958358Y-18345531D02*
X8967882Y-18364579D01*
X8967882Y-18364579D02*
X8977405Y-18402674D01*
X8977405Y-18402674D02*
X8977405Y-18450293D01*
X8977405Y-18450293D02*
X8967882Y-18488389D01*
X8967882Y-18488389D02*
X8958358Y-18507436D01*
X8958358Y-18507436D02*
X8948834Y-18516960D01*
X8948834Y-18516960D02*
X8929786Y-18526484D01*
X8929786Y-18526484D02*
X8910739Y-18526484D01*
X8910739Y-18526484D02*
X8891691Y-18516960D01*
X8891691Y-18516960D02*
X8882167Y-18507436D01*
X8882167Y-18507436D02*
X8872644Y-18488389D01*
X8872644Y-18488389D02*
X8863120Y-18450293D01*
X8863120Y-18450293D02*
X8863120Y-18402674D01*
X8863120Y-18402674D02*
X8872644Y-18364579D01*
X8872644Y-18364579D02*
X8882167Y-18345531D01*
X8882167Y-18345531D02*
X8891691Y-18336008D01*
X8891691Y-18336008D02*
X8910739Y-18326484D01*
X9063120Y-18526484D02*
X9063120Y-18393150D01*
X9063120Y-18412198D02*
X9072644Y-18402674D01*
X9072644Y-18402674D02*
X9091691Y-18393150D01*
X9091691Y-18393150D02*
X9120263Y-18393150D01*
X9120263Y-18393150D02*
X9139310Y-18402674D01*
X9139310Y-18402674D02*
X9148834Y-18421722D01*
X9148834Y-18421722D02*
X9148834Y-18526484D01*
X9148834Y-18421722D02*
X9158358Y-18402674D01*
X9158358Y-18402674D02*
X9177405Y-18393150D01*
X9177405Y-18393150D02*
X9205977Y-18393150D01*
X9205977Y-18393150D02*
X9225025Y-18402674D01*
X9225025Y-18402674D02*
X9234548Y-18421722D01*
X9234548Y-18421722D02*
X9234548Y-18526484D01*
X9329786Y-18526484D02*
X9329786Y-18393150D01*
X9329786Y-18412198D02*
X9339310Y-18402674D01*
X9339310Y-18402674D02*
X9358358Y-18393150D01*
X9358358Y-18393150D02*
X9386929Y-18393150D01*
X9386929Y-18393150D02*
X9405977Y-18402674D01*
X9405977Y-18402674D02*
X9415501Y-18421722D01*
X9415501Y-18421722D02*
X9415501Y-18526484D01*
X9415501Y-18421722D02*
X9425025Y-18402674D01*
X9425025Y-18402674D02*
X9444072Y-18393150D01*
X9444072Y-18393150D02*
X9472644Y-18393150D01*
X9472644Y-18393150D02*
X9491691Y-18402674D01*
X9491691Y-18402674D02*
X9501215Y-18421722D01*
X9501215Y-18421722D02*
X9501215Y-18526484D01*
X9891691Y-18316960D02*
X9720263Y-18574103D01*
X10148834Y-18326484D02*
X10167882Y-18326484D01*
X10167882Y-18326484D02*
X10186929Y-18336008D01*
X10186929Y-18336008D02*
X10196453Y-18345531D01*
X10196453Y-18345531D02*
X10205977Y-18364579D01*
X10205977Y-18364579D02*
X10215501Y-18402674D01*
X10215501Y-18402674D02*
X10215501Y-18450293D01*
X10215501Y-18450293D02*
X10205977Y-18488389D01*
X10205977Y-18488389D02*
X10196453Y-18507436D01*
X10196453Y-18507436D02*
X10186929Y-18516960D01*
X10186929Y-18516960D02*
X10167882Y-18526484D01*
X10167882Y-18526484D02*
X10148834Y-18526484D01*
X10148834Y-18526484D02*
X10129787Y-18516960D01*
X10129787Y-18516960D02*
X10120263Y-18507436D01*
X10120263Y-18507436D02*
X10110739Y-18488389D01*
X10110739Y-18488389D02*
X10101215Y-18450293D01*
X10101215Y-18450293D02*
X10101215Y-18402674D01*
X10101215Y-18402674D02*
X10110739Y-18364579D01*
X10110739Y-18364579D02*
X10120263Y-18345531D01*
X10120263Y-18345531D02*
X10129787Y-18336008D01*
X10129787Y-18336008D02*
X10148834Y-18326484D01*
X10301215Y-18507436D02*
X10310739Y-18516960D01*
X10310739Y-18516960D02*
X10301215Y-18526484D01*
X10301215Y-18526484D02*
X10291691Y-18516960D01*
X10291691Y-18516960D02*
X10301215Y-18507436D01*
X10301215Y-18507436D02*
X10301215Y-18526484D01*
X10434548Y-18326484D02*
X10453596Y-18326484D01*
X10453596Y-18326484D02*
X10472644Y-18336008D01*
X10472644Y-18336008D02*
X10482168Y-18345531D01*
X10482168Y-18345531D02*
X10491691Y-18364579D01*
X10491691Y-18364579D02*
X10501215Y-18402674D01*
X10501215Y-18402674D02*
X10501215Y-18450293D01*
X10501215Y-18450293D02*
X10491691Y-18488389D01*
X10491691Y-18488389D02*
X10482168Y-18507436D01*
X10482168Y-18507436D02*
X10472644Y-18516960D01*
X10472644Y-18516960D02*
X10453596Y-18526484D01*
X10453596Y-18526484D02*
X10434548Y-18526484D01*
X10434548Y-18526484D02*
X10415501Y-18516960D01*
X10415501Y-18516960D02*
X10405977Y-18507436D01*
X10405977Y-18507436D02*
X10396453Y-18488389D01*
X10396453Y-18488389D02*
X10386929Y-18450293D01*
X10386929Y-18450293D02*
X10386929Y-18402674D01*
X10386929Y-18402674D02*
X10396453Y-18364579D01*
X10396453Y-18364579D02*
X10405977Y-18345531D01*
X10405977Y-18345531D02*
X10415501Y-18336008D01*
X10415501Y-18336008D02*
X10434548Y-18326484D01*
X10567882Y-18326484D02*
X10691691Y-18326484D01*
X10691691Y-18326484D02*
X10625025Y-18402674D01*
X10625025Y-18402674D02*
X10653596Y-18402674D01*
X10653596Y-18402674D02*
X10672644Y-18412198D01*
X10672644Y-18412198D02*
X10682168Y-18421722D01*
X10682168Y-18421722D02*
X10691691Y-18440770D01*
X10691691Y-18440770D02*
X10691691Y-18488389D01*
X10691691Y-18488389D02*
X10682168Y-18507436D01*
X10682168Y-18507436D02*
X10672644Y-18516960D01*
X10672644Y-18516960D02*
X10653596Y-18526484D01*
X10653596Y-18526484D02*
X10596453Y-18526484D01*
X10596453Y-18526484D02*
X10577406Y-18516960D01*
X10577406Y-18516960D02*
X10567882Y-18507436D01*
X10872644Y-18326484D02*
X10777406Y-18326484D01*
X10777406Y-18326484D02*
X10767882Y-18421722D01*
X10767882Y-18421722D02*
X10777406Y-18412198D01*
X10777406Y-18412198D02*
X10796453Y-18402674D01*
X10796453Y-18402674D02*
X10844072Y-18402674D01*
X10844072Y-18402674D02*
X10863120Y-18412198D01*
X10863120Y-18412198D02*
X10872644Y-18421722D01*
X10872644Y-18421722D02*
X10882168Y-18440770D01*
X10882168Y-18440770D02*
X10882168Y-18488389D01*
X10882168Y-18488389D02*
X10872644Y-18507436D01*
X10872644Y-18507436D02*
X10863120Y-18516960D01*
X10863120Y-18516960D02*
X10844072Y-18526484D01*
X10844072Y-18526484D02*
X10796453Y-18526484D01*
X10796453Y-18526484D02*
X10777406Y-18516960D01*
X10777406Y-18516960D02*
X10767882Y-18507436D01*
X11053596Y-18393150D02*
X11053596Y-18526484D01*
X11005977Y-18316960D02*
X10958358Y-18459817D01*
X10958358Y-18459817D02*
X11082168Y-18459817D01*
X11148834Y-18326484D02*
X11148834Y-18364579D01*
X11225025Y-18326484D02*
X11225025Y-18364579D01*
X11520263Y-18602674D02*
X11510739Y-18593150D01*
X11510739Y-18593150D02*
X11491691Y-18564579D01*
X11491691Y-18564579D02*
X11482168Y-18545531D01*
X11482168Y-18545531D02*
X11472644Y-18516960D01*
X11472644Y-18516960D02*
X11463120Y-18469341D01*
X11463120Y-18469341D02*
X11463120Y-18431246D01*
X11463120Y-18431246D02*
X11472644Y-18383627D01*
X11472644Y-18383627D02*
X11482168Y-18355055D01*
X11482168Y-18355055D02*
X11491691Y-18336008D01*
X11491691Y-18336008D02*
X11510739Y-18307436D01*
X11510739Y-18307436D02*
X11520263Y-18297912D01*
X11634548Y-18326484D02*
X11653596Y-18326484D01*
X11653596Y-18326484D02*
X11672644Y-18336008D01*
X11672644Y-18336008D02*
X11682168Y-18345531D01*
X11682168Y-18345531D02*
X11691691Y-18364579D01*
X11691691Y-18364579D02*
X11701215Y-18402674D01*
X11701215Y-18402674D02*
X11701215Y-18450293D01*
X11701215Y-18450293D02*
X11691691Y-18488389D01*
X11691691Y-18488389D02*
X11682168Y-18507436D01*
X11682168Y-18507436D02*
X11672644Y-18516960D01*
X11672644Y-18516960D02*
X11653596Y-18526484D01*
X11653596Y-18526484D02*
X11634548Y-18526484D01*
X11634548Y-18526484D02*
X11615501Y-18516960D01*
X11615501Y-18516960D02*
X11605977Y-18507436D01*
X11605977Y-18507436D02*
X11596453Y-18488389D01*
X11596453Y-18488389D02*
X11586929Y-18450293D01*
X11586929Y-18450293D02*
X11586929Y-18402674D01*
X11586929Y-18402674D02*
X11596453Y-18364579D01*
X11596453Y-18364579D02*
X11605977Y-18345531D01*
X11605977Y-18345531D02*
X11615501Y-18336008D01*
X11615501Y-18336008D02*
X11634548Y-18326484D01*
X11939310Y-18526484D02*
X11939310Y-18326484D01*
X12025025Y-18526484D02*
X12025025Y-18421722D01*
X12025025Y-18421722D02*
X12015501Y-18402674D01*
X12015501Y-18402674D02*
X11996453Y-18393150D01*
X11996453Y-18393150D02*
X11967882Y-18393150D01*
X11967882Y-18393150D02*
X11948834Y-18402674D01*
X11948834Y-18402674D02*
X11939310Y-18412198D01*
X12148834Y-18526484D02*
X12129787Y-18516960D01*
X12129787Y-18516960D02*
X12120263Y-18507436D01*
X12120263Y-18507436D02*
X12110739Y-18488389D01*
X12110739Y-18488389D02*
X12110739Y-18431246D01*
X12110739Y-18431246D02*
X12120263Y-18412198D01*
X12120263Y-18412198D02*
X12129787Y-18402674D01*
X12129787Y-18402674D02*
X12148834Y-18393150D01*
X12148834Y-18393150D02*
X12177406Y-18393150D01*
X12177406Y-18393150D02*
X12196453Y-18402674D01*
X12196453Y-18402674D02*
X12205977Y-18412198D01*
X12205977Y-18412198D02*
X12215501Y-18431246D01*
X12215501Y-18431246D02*
X12215501Y-18488389D01*
X12215501Y-18488389D02*
X12205977Y-18507436D01*
X12205977Y-18507436D02*
X12196453Y-18516960D01*
X12196453Y-18516960D02*
X12177406Y-18526484D01*
X12177406Y-18526484D02*
X12148834Y-18526484D01*
X12329787Y-18526484D02*
X12310739Y-18516960D01*
X12310739Y-18516960D02*
X12301215Y-18497912D01*
X12301215Y-18497912D02*
X12301215Y-18326484D01*
X12482168Y-18516960D02*
X12463120Y-18526484D01*
X12463120Y-18526484D02*
X12425025Y-18526484D01*
X12425025Y-18526484D02*
X12405977Y-18516960D01*
X12405977Y-18516960D02*
X12396453Y-18497912D01*
X12396453Y-18497912D02*
X12396453Y-18421722D01*
X12396453Y-18421722D02*
X12405977Y-18402674D01*
X12405977Y-18402674D02*
X12425025Y-18393150D01*
X12425025Y-18393150D02*
X12463120Y-18393150D01*
X12463120Y-18393150D02*
X12482168Y-18402674D01*
X12482168Y-18402674D02*
X12491691Y-18421722D01*
X12491691Y-18421722D02*
X12491691Y-18440770D01*
X12491691Y-18440770D02*
X12396453Y-18459817D01*
X12567882Y-18516960D02*
X12586930Y-18526484D01*
X12586930Y-18526484D02*
X12625025Y-18526484D01*
X12625025Y-18526484D02*
X12644072Y-18516960D01*
X12644072Y-18516960D02*
X12653596Y-18497912D01*
X12653596Y-18497912D02*
X12653596Y-18488389D01*
X12653596Y-18488389D02*
X12644072Y-18469341D01*
X12644072Y-18469341D02*
X12625025Y-18459817D01*
X12625025Y-18459817D02*
X12596453Y-18459817D01*
X12596453Y-18459817D02*
X12577406Y-18450293D01*
X12577406Y-18450293D02*
X12567882Y-18431246D01*
X12567882Y-18431246D02*
X12567882Y-18421722D01*
X12567882Y-18421722D02*
X12577406Y-18402674D01*
X12577406Y-18402674D02*
X12596453Y-18393150D01*
X12596453Y-18393150D02*
X12625025Y-18393150D01*
X12625025Y-18393150D02*
X12644072Y-18402674D01*
X12891692Y-18450293D02*
X13044073Y-18450293D01*
X12967882Y-18526484D02*
X12967882Y-18374103D01*
X13386930Y-18326484D02*
X13291692Y-18326484D01*
X13291692Y-18326484D02*
X13282168Y-18421722D01*
X13282168Y-18421722D02*
X13291692Y-18412198D01*
X13291692Y-18412198D02*
X13310739Y-18402674D01*
X13310739Y-18402674D02*
X13358358Y-18402674D01*
X13358358Y-18402674D02*
X13377406Y-18412198D01*
X13377406Y-18412198D02*
X13386930Y-18421722D01*
X13386930Y-18421722D02*
X13396453Y-18440770D01*
X13396453Y-18440770D02*
X13396453Y-18488389D01*
X13396453Y-18488389D02*
X13386930Y-18507436D01*
X13386930Y-18507436D02*
X13377406Y-18516960D01*
X13377406Y-18516960D02*
X13358358Y-18526484D01*
X13358358Y-18526484D02*
X13310739Y-18526484D01*
X13310739Y-18526484D02*
X13291692Y-18516960D01*
X13291692Y-18516960D02*
X13282168Y-18507436D01*
X13625025Y-18516960D02*
X13644073Y-18526484D01*
X13644073Y-18526484D02*
X13682168Y-18526484D01*
X13682168Y-18526484D02*
X13701215Y-18516960D01*
X13701215Y-18516960D02*
X13710739Y-18497912D01*
X13710739Y-18497912D02*
X13710739Y-18488389D01*
X13710739Y-18488389D02*
X13701215Y-18469341D01*
X13701215Y-18469341D02*
X13682168Y-18459817D01*
X13682168Y-18459817D02*
X13653596Y-18459817D01*
X13653596Y-18459817D02*
X13634549Y-18450293D01*
X13634549Y-18450293D02*
X13625025Y-18431246D01*
X13625025Y-18431246D02*
X13625025Y-18421722D01*
X13625025Y-18421722D02*
X13634549Y-18402674D01*
X13634549Y-18402674D02*
X13653596Y-18393150D01*
X13653596Y-18393150D02*
X13682168Y-18393150D01*
X13682168Y-18393150D02*
X13701215Y-18402674D01*
X13825025Y-18526484D02*
X13805977Y-18516960D01*
X13805977Y-18516960D02*
X13796454Y-18497912D01*
X13796454Y-18497912D02*
X13796454Y-18326484D01*
X13929787Y-18526484D02*
X13910739Y-18516960D01*
X13910739Y-18516960D02*
X13901215Y-18507436D01*
X13901215Y-18507436D02*
X13891692Y-18488389D01*
X13891692Y-18488389D02*
X13891692Y-18431246D01*
X13891692Y-18431246D02*
X13901215Y-18412198D01*
X13901215Y-18412198D02*
X13910739Y-18402674D01*
X13910739Y-18402674D02*
X13929787Y-18393150D01*
X13929787Y-18393150D02*
X13958358Y-18393150D01*
X13958358Y-18393150D02*
X13977406Y-18402674D01*
X13977406Y-18402674D02*
X13986930Y-18412198D01*
X13986930Y-18412198D02*
X13996454Y-18431246D01*
X13996454Y-18431246D02*
X13996454Y-18488389D01*
X13996454Y-18488389D02*
X13986930Y-18507436D01*
X13986930Y-18507436D02*
X13977406Y-18516960D01*
X13977406Y-18516960D02*
X13958358Y-18526484D01*
X13958358Y-18526484D02*
X13929787Y-18526484D01*
X14053596Y-18393150D02*
X14129787Y-18393150D01*
X14082168Y-18326484D02*
X14082168Y-18497912D01*
X14082168Y-18497912D02*
X14091692Y-18516960D01*
X14091692Y-18516960D02*
X14110739Y-18526484D01*
X14110739Y-18526484D02*
X14129787Y-18526484D01*
X14186930Y-18516960D02*
X14205977Y-18526484D01*
X14205977Y-18526484D02*
X14244073Y-18526484D01*
X14244073Y-18526484D02*
X14263120Y-18516960D01*
X14263120Y-18516960D02*
X14272644Y-18497912D01*
X14272644Y-18497912D02*
X14272644Y-18488389D01*
X14272644Y-18488389D02*
X14263120Y-18469341D01*
X14263120Y-18469341D02*
X14244073Y-18459817D01*
X14244073Y-18459817D02*
X14215501Y-18459817D01*
X14215501Y-18459817D02*
X14196454Y-18450293D01*
X14196454Y-18450293D02*
X14186930Y-18431246D01*
X14186930Y-18431246D02*
X14186930Y-18421722D01*
X14186930Y-18421722D02*
X14196454Y-18402674D01*
X14196454Y-18402674D02*
X14215501Y-18393150D01*
X14215501Y-18393150D02*
X14244073Y-18393150D01*
X14244073Y-18393150D02*
X14263120Y-18402674D01*
X14339311Y-18602674D02*
X14348835Y-18593150D01*
X14348835Y-18593150D02*
X14367882Y-18564579D01*
X14367882Y-18564579D02*
X14377406Y-18545531D01*
X14377406Y-18545531D02*
X14386930Y-18516960D01*
X14386930Y-18516960D02*
X14396454Y-18469341D01*
X14396454Y-18469341D02*
X14396454Y-18431246D01*
X14396454Y-18431246D02*
X14386930Y-18383627D01*
X14386930Y-18383627D02*
X14377406Y-18355055D01*
X14377406Y-18355055D02*
X14367882Y-18336008D01*
X14367882Y-18336008D02*
X14348835Y-18307436D01*
X14348835Y-18307436D02*
X14339311Y-18297912D01*
D10*
X7895200Y-18649000D02*
X7895200Y-18749000D01*
X7845200Y-18699000D02*
X7945200Y-18699000D01*
D11*
X8310739Y-18790484D02*
X8196453Y-18790484D01*
X8253596Y-18790484D02*
X8253596Y-18590484D01*
X8253596Y-18590484D02*
X8234548Y-18619055D01*
X8234548Y-18619055D02*
X8215501Y-18638103D01*
X8215501Y-18638103D02*
X8196453Y-18647627D01*
X8396453Y-18771436D02*
X8405977Y-18780960D01*
X8405977Y-18780960D02*
X8396453Y-18790484D01*
X8396453Y-18790484D02*
X8386929Y-18780960D01*
X8386929Y-18780960D02*
X8396453Y-18771436D01*
X8396453Y-18771436D02*
X8396453Y-18790484D01*
X8529786Y-18590484D02*
X8548834Y-18590484D01*
X8548834Y-18590484D02*
X8567882Y-18600008D01*
X8567882Y-18600008D02*
X8577405Y-18609531D01*
X8577405Y-18609531D02*
X8586929Y-18628579D01*
X8586929Y-18628579D02*
X8596453Y-18666674D01*
X8596453Y-18666674D02*
X8596453Y-18714293D01*
X8596453Y-18714293D02*
X8586929Y-18752389D01*
X8586929Y-18752389D02*
X8577405Y-18771436D01*
X8577405Y-18771436D02*
X8567882Y-18780960D01*
X8567882Y-18780960D02*
X8548834Y-18790484D01*
X8548834Y-18790484D02*
X8529786Y-18790484D01*
X8529786Y-18790484D02*
X8510739Y-18780960D01*
X8510739Y-18780960D02*
X8501215Y-18771436D01*
X8501215Y-18771436D02*
X8491691Y-18752389D01*
X8491691Y-18752389D02*
X8482167Y-18714293D01*
X8482167Y-18714293D02*
X8482167Y-18666674D01*
X8482167Y-18666674D02*
X8491691Y-18628579D01*
X8491691Y-18628579D02*
X8501215Y-18609531D01*
X8501215Y-18609531D02*
X8510739Y-18600008D01*
X8510739Y-18600008D02*
X8529786Y-18590484D01*
X8720263Y-18590484D02*
X8739310Y-18590484D01*
X8739310Y-18590484D02*
X8758358Y-18600008D01*
X8758358Y-18600008D02*
X8767882Y-18609531D01*
X8767882Y-18609531D02*
X8777405Y-18628579D01*
X8777405Y-18628579D02*
X8786929Y-18666674D01*
X8786929Y-18666674D02*
X8786929Y-18714293D01*
X8786929Y-18714293D02*
X8777405Y-18752389D01*
X8777405Y-18752389D02*
X8767882Y-18771436D01*
X8767882Y-18771436D02*
X8758358Y-18780960D01*
X8758358Y-18780960D02*
X8739310Y-18790484D01*
X8739310Y-18790484D02*
X8720263Y-18790484D01*
X8720263Y-18790484D02*
X8701215Y-18780960D01*
X8701215Y-18780960D02*
X8691691Y-18771436D01*
X8691691Y-18771436D02*
X8682167Y-18752389D01*
X8682167Y-18752389D02*
X8672644Y-18714293D01*
X8672644Y-18714293D02*
X8672644Y-18666674D01*
X8672644Y-18666674D02*
X8682167Y-18628579D01*
X8682167Y-18628579D02*
X8691691Y-18609531D01*
X8691691Y-18609531D02*
X8701215Y-18600008D01*
X8701215Y-18600008D02*
X8720263Y-18590484D01*
X8910739Y-18590484D02*
X8929786Y-18590484D01*
X8929786Y-18590484D02*
X8948834Y-18600008D01*
X8948834Y-18600008D02*
X8958358Y-18609531D01*
X8958358Y-18609531D02*
X8967882Y-18628579D01*
X8967882Y-18628579D02*
X8977405Y-18666674D01*
X8977405Y-18666674D02*
X8977405Y-18714293D01*
X8977405Y-18714293D02*
X8967882Y-18752389D01*
X8967882Y-18752389D02*
X8958358Y-18771436D01*
X8958358Y-18771436D02*
X8948834Y-18780960D01*
X8948834Y-18780960D02*
X8929786Y-18790484D01*
X8929786Y-18790484D02*
X8910739Y-18790484D01*
X8910739Y-18790484D02*
X8891691Y-18780960D01*
X8891691Y-18780960D02*
X8882167Y-18771436D01*
X8882167Y-18771436D02*
X8872644Y-18752389D01*
X8872644Y-18752389D02*
X8863120Y-18714293D01*
X8863120Y-18714293D02*
X8863120Y-18666674D01*
X8863120Y-18666674D02*
X8872644Y-18628579D01*
X8872644Y-18628579D02*
X8882167Y-18609531D01*
X8882167Y-18609531D02*
X8891691Y-18600008D01*
X8891691Y-18600008D02*
X8910739Y-18590484D01*
X9063120Y-18790484D02*
X9063120Y-18657150D01*
X9063120Y-18676198D02*
X9072644Y-18666674D01*
X9072644Y-18666674D02*
X9091691Y-18657150D01*
X9091691Y-18657150D02*
X9120263Y-18657150D01*
X9120263Y-18657150D02*
X9139310Y-18666674D01*
X9139310Y-18666674D02*
X9148834Y-18685722D01*
X9148834Y-18685722D02*
X9148834Y-18790484D01*
X9148834Y-18685722D02*
X9158358Y-18666674D01*
X9158358Y-18666674D02*
X9177405Y-18657150D01*
X9177405Y-18657150D02*
X9205977Y-18657150D01*
X9205977Y-18657150D02*
X9225025Y-18666674D01*
X9225025Y-18666674D02*
X9234548Y-18685722D01*
X9234548Y-18685722D02*
X9234548Y-18790484D01*
X9329786Y-18790484D02*
X9329786Y-18657150D01*
X9329786Y-18676198D02*
X9339310Y-18666674D01*
X9339310Y-18666674D02*
X9358358Y-18657150D01*
X9358358Y-18657150D02*
X9386929Y-18657150D01*
X9386929Y-18657150D02*
X9405977Y-18666674D01*
X9405977Y-18666674D02*
X9415501Y-18685722D01*
X9415501Y-18685722D02*
X9415501Y-18790484D01*
X9415501Y-18685722D02*
X9425025Y-18666674D01*
X9425025Y-18666674D02*
X9444072Y-18657150D01*
X9444072Y-18657150D02*
X9472644Y-18657150D01*
X9472644Y-18657150D02*
X9491691Y-18666674D01*
X9491691Y-18666674D02*
X9501215Y-18685722D01*
X9501215Y-18685722D02*
X9501215Y-18790484D01*
X9891691Y-18580960D02*
X9720263Y-18838103D01*
X10148834Y-18590484D02*
X10167882Y-18590484D01*
X10167882Y-18590484D02*
X10186929Y-18600008D01*
X10186929Y-18600008D02*
X10196453Y-18609531D01*
X10196453Y-18609531D02*
X10205977Y-18628579D01*
X10205977Y-18628579D02*
X10215501Y-18666674D01*
X10215501Y-18666674D02*
X10215501Y-18714293D01*
X10215501Y-18714293D02*
X10205977Y-18752389D01*
X10205977Y-18752389D02*
X10196453Y-18771436D01*
X10196453Y-18771436D02*
X10186929Y-18780960D01*
X10186929Y-18780960D02*
X10167882Y-18790484D01*
X10167882Y-18790484D02*
X10148834Y-18790484D01*
X10148834Y-18790484D02*
X10129787Y-18780960D01*
X10129787Y-18780960D02*
X10120263Y-18771436D01*
X10120263Y-18771436D02*
X10110739Y-18752389D01*
X10110739Y-18752389D02*
X10101215Y-18714293D01*
X10101215Y-18714293D02*
X10101215Y-18666674D01*
X10101215Y-18666674D02*
X10110739Y-18628579D01*
X10110739Y-18628579D02*
X10120263Y-18609531D01*
X10120263Y-18609531D02*
X10129787Y-18600008D01*
X10129787Y-18600008D02*
X10148834Y-18590484D01*
X10301215Y-18771436D02*
X10310739Y-18780960D01*
X10310739Y-18780960D02*
X10301215Y-18790484D01*
X10301215Y-18790484D02*
X10291691Y-18780960D01*
X10291691Y-18780960D02*
X10301215Y-18771436D01*
X10301215Y-18771436D02*
X10301215Y-18790484D01*
X10434548Y-18590484D02*
X10453596Y-18590484D01*
X10453596Y-18590484D02*
X10472644Y-18600008D01*
X10472644Y-18600008D02*
X10482168Y-18609531D01*
X10482168Y-18609531D02*
X10491691Y-18628579D01*
X10491691Y-18628579D02*
X10501215Y-18666674D01*
X10501215Y-18666674D02*
X10501215Y-18714293D01*
X10501215Y-18714293D02*
X10491691Y-18752389D01*
X10491691Y-18752389D02*
X10482168Y-18771436D01*
X10482168Y-18771436D02*
X10472644Y-18780960D01*
X10472644Y-18780960D02*
X10453596Y-18790484D01*
X10453596Y-18790484D02*
X10434548Y-18790484D01*
X10434548Y-18790484D02*
X10415501Y-18780960D01*
X10415501Y-18780960D02*
X10405977Y-18771436D01*
X10405977Y-18771436D02*
X10396453Y-18752389D01*
X10396453Y-18752389D02*
X10386929Y-18714293D01*
X10386929Y-18714293D02*
X10386929Y-18666674D01*
X10386929Y-18666674D02*
X10396453Y-18628579D01*
X10396453Y-18628579D02*
X10405977Y-18609531D01*
X10405977Y-18609531D02*
X10415501Y-18600008D01*
X10415501Y-18600008D02*
X10434548Y-18590484D01*
X10567882Y-18590484D02*
X10691691Y-18590484D01*
X10691691Y-18590484D02*
X10625025Y-18666674D01*
X10625025Y-18666674D02*
X10653596Y-18666674D01*
X10653596Y-18666674D02*
X10672644Y-18676198D01*
X10672644Y-18676198D02*
X10682168Y-18685722D01*
X10682168Y-18685722D02*
X10691691Y-18704770D01*
X10691691Y-18704770D02*
X10691691Y-18752389D01*
X10691691Y-18752389D02*
X10682168Y-18771436D01*
X10682168Y-18771436D02*
X10672644Y-18780960D01*
X10672644Y-18780960D02*
X10653596Y-18790484D01*
X10653596Y-18790484D02*
X10596453Y-18790484D01*
X10596453Y-18790484D02*
X10577406Y-18780960D01*
X10577406Y-18780960D02*
X10567882Y-18771436D01*
X10786929Y-18790484D02*
X10825025Y-18790484D01*
X10825025Y-18790484D02*
X10844072Y-18780960D01*
X10844072Y-18780960D02*
X10853596Y-18771436D01*
X10853596Y-18771436D02*
X10872644Y-18742865D01*
X10872644Y-18742865D02*
X10882168Y-18704770D01*
X10882168Y-18704770D02*
X10882168Y-18628579D01*
X10882168Y-18628579D02*
X10872644Y-18609531D01*
X10872644Y-18609531D02*
X10863120Y-18600008D01*
X10863120Y-18600008D02*
X10844072Y-18590484D01*
X10844072Y-18590484D02*
X10805977Y-18590484D01*
X10805977Y-18590484D02*
X10786929Y-18600008D01*
X10786929Y-18600008D02*
X10777406Y-18609531D01*
X10777406Y-18609531D02*
X10767882Y-18628579D01*
X10767882Y-18628579D02*
X10767882Y-18676198D01*
X10767882Y-18676198D02*
X10777406Y-18695246D01*
X10777406Y-18695246D02*
X10786929Y-18704770D01*
X10786929Y-18704770D02*
X10805977Y-18714293D01*
X10805977Y-18714293D02*
X10844072Y-18714293D01*
X10844072Y-18714293D02*
X10863120Y-18704770D01*
X10863120Y-18704770D02*
X10872644Y-18695246D01*
X10872644Y-18695246D02*
X10882168Y-18676198D01*
X11053596Y-18657150D02*
X11053596Y-18790484D01*
X11005977Y-18580960D02*
X10958358Y-18723817D01*
X10958358Y-18723817D02*
X11082168Y-18723817D01*
X11148834Y-18590484D02*
X11148834Y-18628579D01*
X11225025Y-18590484D02*
X11225025Y-18628579D01*
X11520263Y-18866674D02*
X11510739Y-18857150D01*
X11510739Y-18857150D02*
X11491691Y-18828579D01*
X11491691Y-18828579D02*
X11482168Y-18809531D01*
X11482168Y-18809531D02*
X11472644Y-18780960D01*
X11472644Y-18780960D02*
X11463120Y-18733341D01*
X11463120Y-18733341D02*
X11463120Y-18695246D01*
X11463120Y-18695246D02*
X11472644Y-18647627D01*
X11472644Y-18647627D02*
X11482168Y-18619055D01*
X11482168Y-18619055D02*
X11491691Y-18600008D01*
X11491691Y-18600008D02*
X11510739Y-18571436D01*
X11510739Y-18571436D02*
X11520263Y-18561912D01*
X11577406Y-18590484D02*
X11710739Y-18590484D01*
X11710739Y-18590484D02*
X11625025Y-18790484D01*
X11767882Y-18590484D02*
X11901215Y-18590484D01*
X11901215Y-18590484D02*
X11815501Y-18790484D01*
X12129787Y-18790484D02*
X12129787Y-18590484D01*
X12215501Y-18790484D02*
X12215501Y-18685722D01*
X12215501Y-18685722D02*
X12205977Y-18666674D01*
X12205977Y-18666674D02*
X12186930Y-18657150D01*
X12186930Y-18657150D02*
X12158358Y-18657150D01*
X12158358Y-18657150D02*
X12139310Y-18666674D01*
X12139310Y-18666674D02*
X12129787Y-18676198D01*
X12339310Y-18790484D02*
X12320263Y-18780960D01*
X12320263Y-18780960D02*
X12310739Y-18771436D01*
X12310739Y-18771436D02*
X12301215Y-18752389D01*
X12301215Y-18752389D02*
X12301215Y-18695246D01*
X12301215Y-18695246D02*
X12310739Y-18676198D01*
X12310739Y-18676198D02*
X12320263Y-18666674D01*
X12320263Y-18666674D02*
X12339310Y-18657150D01*
X12339310Y-18657150D02*
X12367882Y-18657150D01*
X12367882Y-18657150D02*
X12386930Y-18666674D01*
X12386930Y-18666674D02*
X12396453Y-18676198D01*
X12396453Y-18676198D02*
X12405977Y-18695246D01*
X12405977Y-18695246D02*
X12405977Y-18752389D01*
X12405977Y-18752389D02*
X12396453Y-18771436D01*
X12396453Y-18771436D02*
X12386930Y-18780960D01*
X12386930Y-18780960D02*
X12367882Y-18790484D01*
X12367882Y-18790484D02*
X12339310Y-18790484D01*
X12520263Y-18790484D02*
X12501215Y-18780960D01*
X12501215Y-18780960D02*
X12491691Y-18761912D01*
X12491691Y-18761912D02*
X12491691Y-18590484D01*
X12672644Y-18780960D02*
X12653596Y-18790484D01*
X12653596Y-18790484D02*
X12615501Y-18790484D01*
X12615501Y-18790484D02*
X12596453Y-18780960D01*
X12596453Y-18780960D02*
X12586930Y-18761912D01*
X12586930Y-18761912D02*
X12586930Y-18685722D01*
X12586930Y-18685722D02*
X12596453Y-18666674D01*
X12596453Y-18666674D02*
X12615501Y-18657150D01*
X12615501Y-18657150D02*
X12653596Y-18657150D01*
X12653596Y-18657150D02*
X12672644Y-18666674D01*
X12672644Y-18666674D02*
X12682168Y-18685722D01*
X12682168Y-18685722D02*
X12682168Y-18704770D01*
X12682168Y-18704770D02*
X12586930Y-18723817D01*
X12758358Y-18780960D02*
X12777406Y-18790484D01*
X12777406Y-18790484D02*
X12815501Y-18790484D01*
X12815501Y-18790484D02*
X12834549Y-18780960D01*
X12834549Y-18780960D02*
X12844072Y-18761912D01*
X12844072Y-18761912D02*
X12844072Y-18752389D01*
X12844072Y-18752389D02*
X12834549Y-18733341D01*
X12834549Y-18733341D02*
X12815501Y-18723817D01*
X12815501Y-18723817D02*
X12786930Y-18723817D01*
X12786930Y-18723817D02*
X12767882Y-18714293D01*
X12767882Y-18714293D02*
X12758358Y-18695246D01*
X12758358Y-18695246D02*
X12758358Y-18685722D01*
X12758358Y-18685722D02*
X12767882Y-18666674D01*
X12767882Y-18666674D02*
X12786930Y-18657150D01*
X12786930Y-18657150D02*
X12815501Y-18657150D01*
X12815501Y-18657150D02*
X12834549Y-18666674D01*
X12910739Y-18866674D02*
X12920263Y-18857150D01*
X12920263Y-18857150D02*
X12939311Y-18828579D01*
X12939311Y-18828579D02*
X12948834Y-18809531D01*
X12948834Y-18809531D02*
X12958358Y-18780960D01*
X12958358Y-18780960D02*
X12967882Y-18733341D01*
X12967882Y-18733341D02*
X12967882Y-18695246D01*
X12967882Y-18695246D02*
X12958358Y-18647627D01*
X12958358Y-18647627D02*
X12948834Y-18619055D01*
X12948834Y-18619055D02*
X12939311Y-18600008D01*
X12939311Y-18600008D02*
X12920263Y-18571436D01*
X12920263Y-18571436D02*
X12910739Y-18561912D01*
D14*
X7929205Y-19001616D02*
X7929205Y-18924385D01*
X7851974Y-18924385D01*
X7851974Y-19001616D01*
X7929205Y-19001616D01*
D11*
X8310739Y-19054484D02*
X8196453Y-19054484D01*
X8253596Y-19054484D02*
X8253596Y-18854484D01*
X8253596Y-18854484D02*
X8234548Y-18883055D01*
X8234548Y-18883055D02*
X8215501Y-18902103D01*
X8215501Y-18902103D02*
X8196453Y-18911627D01*
X8396453Y-19035436D02*
X8405977Y-19044960D01*
X8405977Y-19044960D02*
X8396453Y-19054484D01*
X8396453Y-19054484D02*
X8386929Y-19044960D01*
X8386929Y-19044960D02*
X8396453Y-19035436D01*
X8396453Y-19035436D02*
X8396453Y-19054484D01*
X8529786Y-18854484D02*
X8548834Y-18854484D01*
X8548834Y-18854484D02*
X8567882Y-18864008D01*
X8567882Y-18864008D02*
X8577405Y-18873531D01*
X8577405Y-18873531D02*
X8586929Y-18892579D01*
X8586929Y-18892579D02*
X8596453Y-18930674D01*
X8596453Y-18930674D02*
X8596453Y-18978293D01*
X8596453Y-18978293D02*
X8586929Y-19016389D01*
X8586929Y-19016389D02*
X8577405Y-19035436D01*
X8577405Y-19035436D02*
X8567882Y-19044960D01*
X8567882Y-19044960D02*
X8548834Y-19054484D01*
X8548834Y-19054484D02*
X8529786Y-19054484D01*
X8529786Y-19054484D02*
X8510739Y-19044960D01*
X8510739Y-19044960D02*
X8501215Y-19035436D01*
X8501215Y-19035436D02*
X8491691Y-19016389D01*
X8491691Y-19016389D02*
X8482167Y-18978293D01*
X8482167Y-18978293D02*
X8482167Y-18930674D01*
X8482167Y-18930674D02*
X8491691Y-18892579D01*
X8491691Y-18892579D02*
X8501215Y-18873531D01*
X8501215Y-18873531D02*
X8510739Y-18864008D01*
X8510739Y-18864008D02*
X8529786Y-18854484D01*
X8691691Y-19054484D02*
X8729786Y-19054484D01*
X8729786Y-19054484D02*
X8748834Y-19044960D01*
X8748834Y-19044960D02*
X8758358Y-19035436D01*
X8758358Y-19035436D02*
X8777405Y-19006865D01*
X8777405Y-19006865D02*
X8786929Y-18968770D01*
X8786929Y-18968770D02*
X8786929Y-18892579D01*
X8786929Y-18892579D02*
X8777405Y-18873531D01*
X8777405Y-18873531D02*
X8767882Y-18864008D01*
X8767882Y-18864008D02*
X8748834Y-18854484D01*
X8748834Y-18854484D02*
X8710739Y-18854484D01*
X8710739Y-18854484D02*
X8691691Y-18864008D01*
X8691691Y-18864008D02*
X8682167Y-18873531D01*
X8682167Y-18873531D02*
X8672644Y-18892579D01*
X8672644Y-18892579D02*
X8672644Y-18940198D01*
X8672644Y-18940198D02*
X8682167Y-18959246D01*
X8682167Y-18959246D02*
X8691691Y-18968770D01*
X8691691Y-18968770D02*
X8710739Y-18978293D01*
X8710739Y-18978293D02*
X8748834Y-18978293D01*
X8748834Y-18978293D02*
X8767882Y-18968770D01*
X8767882Y-18968770D02*
X8777405Y-18959246D01*
X8777405Y-18959246D02*
X8786929Y-18940198D01*
X8863120Y-18873531D02*
X8872644Y-18864008D01*
X8872644Y-18864008D02*
X8891691Y-18854484D01*
X8891691Y-18854484D02*
X8939310Y-18854484D01*
X8939310Y-18854484D02*
X8958358Y-18864008D01*
X8958358Y-18864008D02*
X8967882Y-18873531D01*
X8967882Y-18873531D02*
X8977405Y-18892579D01*
X8977405Y-18892579D02*
X8977405Y-18911627D01*
X8977405Y-18911627D02*
X8967882Y-18940198D01*
X8967882Y-18940198D02*
X8853596Y-19054484D01*
X8853596Y-19054484D02*
X8977405Y-19054484D01*
X9063120Y-19054484D02*
X9063120Y-18921150D01*
X9063120Y-18940198D02*
X9072644Y-18930674D01*
X9072644Y-18930674D02*
X9091691Y-18921150D01*
X9091691Y-18921150D02*
X9120263Y-18921150D01*
X9120263Y-18921150D02*
X9139310Y-18930674D01*
X9139310Y-18930674D02*
X9148834Y-18949722D01*
X9148834Y-18949722D02*
X9148834Y-19054484D01*
X9148834Y-18949722D02*
X9158358Y-18930674D01*
X9158358Y-18930674D02*
X9177405Y-18921150D01*
X9177405Y-18921150D02*
X9205977Y-18921150D01*
X9205977Y-18921150D02*
X9225025Y-18930674D01*
X9225025Y-18930674D02*
X9234548Y-18949722D01*
X9234548Y-18949722D02*
X9234548Y-19054484D01*
X9329786Y-19054484D02*
X9329786Y-18921150D01*
X9329786Y-18940198D02*
X9339310Y-18930674D01*
X9339310Y-18930674D02*
X9358358Y-18921150D01*
X9358358Y-18921150D02*
X9386929Y-18921150D01*
X9386929Y-18921150D02*
X9405977Y-18930674D01*
X9405977Y-18930674D02*
X9415501Y-18949722D01*
X9415501Y-18949722D02*
X9415501Y-19054484D01*
X9415501Y-18949722D02*
X9425025Y-18930674D01*
X9425025Y-18930674D02*
X9444072Y-18921150D01*
X9444072Y-18921150D02*
X9472644Y-18921150D01*
X9472644Y-18921150D02*
X9491691Y-18930674D01*
X9491691Y-18930674D02*
X9501215Y-18949722D01*
X9501215Y-18949722D02*
X9501215Y-19054484D01*
X9891691Y-18844960D02*
X9720263Y-19102103D01*
X10148834Y-18854484D02*
X10167882Y-18854484D01*
X10167882Y-18854484D02*
X10186929Y-18864008D01*
X10186929Y-18864008D02*
X10196453Y-18873531D01*
X10196453Y-18873531D02*
X10205977Y-18892579D01*
X10205977Y-18892579D02*
X10215501Y-18930674D01*
X10215501Y-18930674D02*
X10215501Y-18978293D01*
X10215501Y-18978293D02*
X10205977Y-19016389D01*
X10205977Y-19016389D02*
X10196453Y-19035436D01*
X10196453Y-19035436D02*
X10186929Y-19044960D01*
X10186929Y-19044960D02*
X10167882Y-19054484D01*
X10167882Y-19054484D02*
X10148834Y-19054484D01*
X10148834Y-19054484D02*
X10129787Y-19044960D01*
X10129787Y-19044960D02*
X10120263Y-19035436D01*
X10120263Y-19035436D02*
X10110739Y-19016389D01*
X10110739Y-19016389D02*
X10101215Y-18978293D01*
X10101215Y-18978293D02*
X10101215Y-18930674D01*
X10101215Y-18930674D02*
X10110739Y-18892579D01*
X10110739Y-18892579D02*
X10120263Y-18873531D01*
X10120263Y-18873531D02*
X10129787Y-18864008D01*
X10129787Y-18864008D02*
X10148834Y-18854484D01*
X10301215Y-19035436D02*
X10310739Y-19044960D01*
X10310739Y-19044960D02*
X10301215Y-19054484D01*
X10301215Y-19054484D02*
X10291691Y-19044960D01*
X10291691Y-19044960D02*
X10301215Y-19035436D01*
X10301215Y-19035436D02*
X10301215Y-19054484D01*
X10434548Y-18854484D02*
X10453596Y-18854484D01*
X10453596Y-18854484D02*
X10472644Y-18864008D01*
X10472644Y-18864008D02*
X10482168Y-18873531D01*
X10482168Y-18873531D02*
X10491691Y-18892579D01*
X10491691Y-18892579D02*
X10501215Y-18930674D01*
X10501215Y-18930674D02*
X10501215Y-18978293D01*
X10501215Y-18978293D02*
X10491691Y-19016389D01*
X10491691Y-19016389D02*
X10482168Y-19035436D01*
X10482168Y-19035436D02*
X10472644Y-19044960D01*
X10472644Y-19044960D02*
X10453596Y-19054484D01*
X10453596Y-19054484D02*
X10434548Y-19054484D01*
X10434548Y-19054484D02*
X10415501Y-19044960D01*
X10415501Y-19044960D02*
X10405977Y-19035436D01*
X10405977Y-19035436D02*
X10396453Y-19016389D01*
X10396453Y-19016389D02*
X10386929Y-18978293D01*
X10386929Y-18978293D02*
X10386929Y-18930674D01*
X10386929Y-18930674D02*
X10396453Y-18892579D01*
X10396453Y-18892579D02*
X10405977Y-18873531D01*
X10405977Y-18873531D02*
X10415501Y-18864008D01*
X10415501Y-18864008D02*
X10434548Y-18854484D01*
X10672644Y-18921150D02*
X10672644Y-19054484D01*
X10625025Y-18844960D02*
X10577406Y-18987817D01*
X10577406Y-18987817D02*
X10701215Y-18987817D01*
X10758358Y-18854484D02*
X10882168Y-18854484D01*
X10882168Y-18854484D02*
X10815501Y-18930674D01*
X10815501Y-18930674D02*
X10844072Y-18930674D01*
X10844072Y-18930674D02*
X10863120Y-18940198D01*
X10863120Y-18940198D02*
X10872644Y-18949722D01*
X10872644Y-18949722D02*
X10882168Y-18968770D01*
X10882168Y-18968770D02*
X10882168Y-19016389D01*
X10882168Y-19016389D02*
X10872644Y-19035436D01*
X10872644Y-19035436D02*
X10863120Y-19044960D01*
X10863120Y-19044960D02*
X10844072Y-19054484D01*
X10844072Y-19054484D02*
X10786929Y-19054484D01*
X10786929Y-19054484D02*
X10767882Y-19044960D01*
X10767882Y-19044960D02*
X10758358Y-19035436D01*
X11005977Y-18854484D02*
X11025025Y-18854484D01*
X11025025Y-18854484D02*
X11044072Y-18864008D01*
X11044072Y-18864008D02*
X11053596Y-18873531D01*
X11053596Y-18873531D02*
X11063120Y-18892579D01*
X11063120Y-18892579D02*
X11072644Y-18930674D01*
X11072644Y-18930674D02*
X11072644Y-18978293D01*
X11072644Y-18978293D02*
X11063120Y-19016389D01*
X11063120Y-19016389D02*
X11053596Y-19035436D01*
X11053596Y-19035436D02*
X11044072Y-19044960D01*
X11044072Y-19044960D02*
X11025025Y-19054484D01*
X11025025Y-19054484D02*
X11005977Y-19054484D01*
X11005977Y-19054484D02*
X10986929Y-19044960D01*
X10986929Y-19044960D02*
X10977406Y-19035436D01*
X10977406Y-19035436D02*
X10967882Y-19016389D01*
X10967882Y-19016389D02*
X10958358Y-18978293D01*
X10958358Y-18978293D02*
X10958358Y-18930674D01*
X10958358Y-18930674D02*
X10967882Y-18892579D01*
X10967882Y-18892579D02*
X10977406Y-18873531D01*
X10977406Y-18873531D02*
X10986929Y-18864008D01*
X10986929Y-18864008D02*
X11005977Y-18854484D01*
X11148834Y-18854484D02*
X11148834Y-18892579D01*
X11225025Y-18854484D02*
X11225025Y-18892579D01*
X11520263Y-19130674D02*
X11510739Y-19121150D01*
X11510739Y-19121150D02*
X11491691Y-19092579D01*
X11491691Y-19092579D02*
X11482168Y-19073531D01*
X11482168Y-19073531D02*
X11472644Y-19044960D01*
X11472644Y-19044960D02*
X11463120Y-18997341D01*
X11463120Y-18997341D02*
X11463120Y-18959246D01*
X11463120Y-18959246D02*
X11472644Y-18911627D01*
X11472644Y-18911627D02*
X11482168Y-18883055D01*
X11482168Y-18883055D02*
X11491691Y-18864008D01*
X11491691Y-18864008D02*
X11510739Y-18835436D01*
X11510739Y-18835436D02*
X11520263Y-18825912D01*
X11586929Y-18873531D02*
X11596453Y-18864008D01*
X11596453Y-18864008D02*
X11615501Y-18854484D01*
X11615501Y-18854484D02*
X11663120Y-18854484D01*
X11663120Y-18854484D02*
X11682168Y-18864008D01*
X11682168Y-18864008D02*
X11691691Y-18873531D01*
X11691691Y-18873531D02*
X11701215Y-18892579D01*
X11701215Y-18892579D02*
X11701215Y-18911627D01*
X11701215Y-18911627D02*
X11691691Y-18940198D01*
X11691691Y-18940198D02*
X11577406Y-19054484D01*
X11577406Y-19054484D02*
X11701215Y-19054484D01*
X11872644Y-18921150D02*
X11872644Y-19054484D01*
X11825025Y-18844960D02*
X11777406Y-18987817D01*
X11777406Y-18987817D02*
X11901215Y-18987817D01*
X12129787Y-19054484D02*
X12129787Y-18854484D01*
X12215501Y-19054484D02*
X12215501Y-18949722D01*
X12215501Y-18949722D02*
X12205977Y-18930674D01*
X12205977Y-18930674D02*
X12186930Y-18921150D01*
X12186930Y-18921150D02*
X12158358Y-18921150D01*
X12158358Y-18921150D02*
X12139310Y-18930674D01*
X12139310Y-18930674D02*
X12129787Y-18940198D01*
X12339310Y-19054484D02*
X12320263Y-19044960D01*
X12320263Y-19044960D02*
X12310739Y-19035436D01*
X12310739Y-19035436D02*
X12301215Y-19016389D01*
X12301215Y-19016389D02*
X12301215Y-18959246D01*
X12301215Y-18959246D02*
X12310739Y-18940198D01*
X12310739Y-18940198D02*
X12320263Y-18930674D01*
X12320263Y-18930674D02*
X12339310Y-18921150D01*
X12339310Y-18921150D02*
X12367882Y-18921150D01*
X12367882Y-18921150D02*
X12386930Y-18930674D01*
X12386930Y-18930674D02*
X12396453Y-18940198D01*
X12396453Y-18940198D02*
X12405977Y-18959246D01*
X12405977Y-18959246D02*
X12405977Y-19016389D01*
X12405977Y-19016389D02*
X12396453Y-19035436D01*
X12396453Y-19035436D02*
X12386930Y-19044960D01*
X12386930Y-19044960D02*
X12367882Y-19054484D01*
X12367882Y-19054484D02*
X12339310Y-19054484D01*
X12520263Y-19054484D02*
X12501215Y-19044960D01*
X12501215Y-19044960D02*
X12491691Y-19025912D01*
X12491691Y-19025912D02*
X12491691Y-18854484D01*
X12672644Y-19044960D02*
X12653596Y-19054484D01*
X12653596Y-19054484D02*
X12615501Y-19054484D01*
X12615501Y-19054484D02*
X12596453Y-19044960D01*
X12596453Y-19044960D02*
X12586930Y-19025912D01*
X12586930Y-19025912D02*
X12586930Y-18949722D01*
X12586930Y-18949722D02*
X12596453Y-18930674D01*
X12596453Y-18930674D02*
X12615501Y-18921150D01*
X12615501Y-18921150D02*
X12653596Y-18921150D01*
X12653596Y-18921150D02*
X12672644Y-18930674D01*
X12672644Y-18930674D02*
X12682168Y-18949722D01*
X12682168Y-18949722D02*
X12682168Y-18968770D01*
X12682168Y-18968770D02*
X12586930Y-18987817D01*
X12758358Y-19044960D02*
X12777406Y-19054484D01*
X12777406Y-19054484D02*
X12815501Y-19054484D01*
X12815501Y-19054484D02*
X12834549Y-19044960D01*
X12834549Y-19044960D02*
X12844072Y-19025912D01*
X12844072Y-19025912D02*
X12844072Y-19016389D01*
X12844072Y-19016389D02*
X12834549Y-18997341D01*
X12834549Y-18997341D02*
X12815501Y-18987817D01*
X12815501Y-18987817D02*
X12786930Y-18987817D01*
X12786930Y-18987817D02*
X12767882Y-18978293D01*
X12767882Y-18978293D02*
X12758358Y-18959246D01*
X12758358Y-18959246D02*
X12758358Y-18949722D01*
X12758358Y-18949722D02*
X12767882Y-18930674D01*
X12767882Y-18930674D02*
X12786930Y-18921150D01*
X12786930Y-18921150D02*
X12815501Y-18921150D01*
X12815501Y-18921150D02*
X12834549Y-18930674D01*
X12910739Y-19130674D02*
X12920263Y-19121150D01*
X12920263Y-19121150D02*
X12939311Y-19092579D01*
X12939311Y-19092579D02*
X12948834Y-19073531D01*
X12948834Y-19073531D02*
X12958358Y-19044960D01*
X12958358Y-19044960D02*
X12967882Y-18997341D01*
X12967882Y-18997341D02*
X12967882Y-18959246D01*
X12967882Y-18959246D02*
X12958358Y-18911627D01*
X12958358Y-18911627D02*
X12948834Y-18883055D01*
X12948834Y-18883055D02*
X12939311Y-18864008D01*
X12939311Y-18864008D02*
X12920263Y-18835436D01*
X12920263Y-18835436D02*
X12910739Y-18825912D01*
D15*
X7890200Y-19282000D02*
X7945200Y-19227000D01*
X7890200Y-19172000D01*
X7835200Y-19227000D01*
X7890200Y-19282000D01*
D11*
X8310739Y-19318484D02*
X8196453Y-19318484D01*
X8253596Y-19318484D02*
X8253596Y-19118484D01*
X8253596Y-19118484D02*
X8234548Y-19147055D01*
X8234548Y-19147055D02*
X8215501Y-19166103D01*
X8215501Y-19166103D02*
X8196453Y-19175627D01*
X8396453Y-19299436D02*
X8405977Y-19308960D01*
X8405977Y-19308960D02*
X8396453Y-19318484D01*
X8396453Y-19318484D02*
X8386929Y-19308960D01*
X8386929Y-19308960D02*
X8396453Y-19299436D01*
X8396453Y-19299436D02*
X8396453Y-19318484D01*
X8596453Y-19318484D02*
X8482167Y-19318484D01*
X8539310Y-19318484D02*
X8539310Y-19118484D01*
X8539310Y-19118484D02*
X8520263Y-19147055D01*
X8520263Y-19147055D02*
X8501215Y-19166103D01*
X8501215Y-19166103D02*
X8482167Y-19175627D01*
X8720263Y-19118484D02*
X8739310Y-19118484D01*
X8739310Y-19118484D02*
X8758358Y-19128008D01*
X8758358Y-19128008D02*
X8767882Y-19137531D01*
X8767882Y-19137531D02*
X8777405Y-19156579D01*
X8777405Y-19156579D02*
X8786929Y-19194674D01*
X8786929Y-19194674D02*
X8786929Y-19242293D01*
X8786929Y-19242293D02*
X8777405Y-19280389D01*
X8777405Y-19280389D02*
X8767882Y-19299436D01*
X8767882Y-19299436D02*
X8758358Y-19308960D01*
X8758358Y-19308960D02*
X8739310Y-19318484D01*
X8739310Y-19318484D02*
X8720263Y-19318484D01*
X8720263Y-19318484D02*
X8701215Y-19308960D01*
X8701215Y-19308960D02*
X8691691Y-19299436D01*
X8691691Y-19299436D02*
X8682167Y-19280389D01*
X8682167Y-19280389D02*
X8672644Y-19242293D01*
X8672644Y-19242293D02*
X8672644Y-19194674D01*
X8672644Y-19194674D02*
X8682167Y-19156579D01*
X8682167Y-19156579D02*
X8691691Y-19137531D01*
X8691691Y-19137531D02*
X8701215Y-19128008D01*
X8701215Y-19128008D02*
X8720263Y-19118484D01*
X8910739Y-19118484D02*
X8929786Y-19118484D01*
X8929786Y-19118484D02*
X8948834Y-19128008D01*
X8948834Y-19128008D02*
X8958358Y-19137531D01*
X8958358Y-19137531D02*
X8967882Y-19156579D01*
X8967882Y-19156579D02*
X8977405Y-19194674D01*
X8977405Y-19194674D02*
X8977405Y-19242293D01*
X8977405Y-19242293D02*
X8967882Y-19280389D01*
X8967882Y-19280389D02*
X8958358Y-19299436D01*
X8958358Y-19299436D02*
X8948834Y-19308960D01*
X8948834Y-19308960D02*
X8929786Y-19318484D01*
X8929786Y-19318484D02*
X8910739Y-19318484D01*
X8910739Y-19318484D02*
X8891691Y-19308960D01*
X8891691Y-19308960D02*
X8882167Y-19299436D01*
X8882167Y-19299436D02*
X8872644Y-19280389D01*
X8872644Y-19280389D02*
X8863120Y-19242293D01*
X8863120Y-19242293D02*
X8863120Y-19194674D01*
X8863120Y-19194674D02*
X8872644Y-19156579D01*
X8872644Y-19156579D02*
X8882167Y-19137531D01*
X8882167Y-19137531D02*
X8891691Y-19128008D01*
X8891691Y-19128008D02*
X8910739Y-19118484D01*
X9063120Y-19318484D02*
X9063120Y-19185150D01*
X9063120Y-19204198D02*
X9072644Y-19194674D01*
X9072644Y-19194674D02*
X9091691Y-19185150D01*
X9091691Y-19185150D02*
X9120263Y-19185150D01*
X9120263Y-19185150D02*
X9139310Y-19194674D01*
X9139310Y-19194674D02*
X9148834Y-19213722D01*
X9148834Y-19213722D02*
X9148834Y-19318484D01*
X9148834Y-19213722D02*
X9158358Y-19194674D01*
X9158358Y-19194674D02*
X9177405Y-19185150D01*
X9177405Y-19185150D02*
X9205977Y-19185150D01*
X9205977Y-19185150D02*
X9225025Y-19194674D01*
X9225025Y-19194674D02*
X9234548Y-19213722D01*
X9234548Y-19213722D02*
X9234548Y-19318484D01*
X9329786Y-19318484D02*
X9329786Y-19185150D01*
X9329786Y-19204198D02*
X9339310Y-19194674D01*
X9339310Y-19194674D02*
X9358358Y-19185150D01*
X9358358Y-19185150D02*
X9386929Y-19185150D01*
X9386929Y-19185150D02*
X9405977Y-19194674D01*
X9405977Y-19194674D02*
X9415501Y-19213722D01*
X9415501Y-19213722D02*
X9415501Y-19318484D01*
X9415501Y-19213722D02*
X9425025Y-19194674D01*
X9425025Y-19194674D02*
X9444072Y-19185150D01*
X9444072Y-19185150D02*
X9472644Y-19185150D01*
X9472644Y-19185150D02*
X9491691Y-19194674D01*
X9491691Y-19194674D02*
X9501215Y-19213722D01*
X9501215Y-19213722D02*
X9501215Y-19318484D01*
X9891691Y-19108960D02*
X9720263Y-19366103D01*
X10148834Y-19118484D02*
X10167882Y-19118484D01*
X10167882Y-19118484D02*
X10186929Y-19128008D01*
X10186929Y-19128008D02*
X10196453Y-19137531D01*
X10196453Y-19137531D02*
X10205977Y-19156579D01*
X10205977Y-19156579D02*
X10215501Y-19194674D01*
X10215501Y-19194674D02*
X10215501Y-19242293D01*
X10215501Y-19242293D02*
X10205977Y-19280389D01*
X10205977Y-19280389D02*
X10196453Y-19299436D01*
X10196453Y-19299436D02*
X10186929Y-19308960D01*
X10186929Y-19308960D02*
X10167882Y-19318484D01*
X10167882Y-19318484D02*
X10148834Y-19318484D01*
X10148834Y-19318484D02*
X10129787Y-19308960D01*
X10129787Y-19308960D02*
X10120263Y-19299436D01*
X10120263Y-19299436D02*
X10110739Y-19280389D01*
X10110739Y-19280389D02*
X10101215Y-19242293D01*
X10101215Y-19242293D02*
X10101215Y-19194674D01*
X10101215Y-19194674D02*
X10110739Y-19156579D01*
X10110739Y-19156579D02*
X10120263Y-19137531D01*
X10120263Y-19137531D02*
X10129787Y-19128008D01*
X10129787Y-19128008D02*
X10148834Y-19118484D01*
X10301215Y-19299436D02*
X10310739Y-19308960D01*
X10310739Y-19308960D02*
X10301215Y-19318484D01*
X10301215Y-19318484D02*
X10291691Y-19308960D01*
X10291691Y-19308960D02*
X10301215Y-19299436D01*
X10301215Y-19299436D02*
X10301215Y-19318484D01*
X10434548Y-19118484D02*
X10453596Y-19118484D01*
X10453596Y-19118484D02*
X10472644Y-19128008D01*
X10472644Y-19128008D02*
X10482168Y-19137531D01*
X10482168Y-19137531D02*
X10491691Y-19156579D01*
X10491691Y-19156579D02*
X10501215Y-19194674D01*
X10501215Y-19194674D02*
X10501215Y-19242293D01*
X10501215Y-19242293D02*
X10491691Y-19280389D01*
X10491691Y-19280389D02*
X10482168Y-19299436D01*
X10482168Y-19299436D02*
X10472644Y-19308960D01*
X10472644Y-19308960D02*
X10453596Y-19318484D01*
X10453596Y-19318484D02*
X10434548Y-19318484D01*
X10434548Y-19318484D02*
X10415501Y-19308960D01*
X10415501Y-19308960D02*
X10405977Y-19299436D01*
X10405977Y-19299436D02*
X10396453Y-19280389D01*
X10396453Y-19280389D02*
X10386929Y-19242293D01*
X10386929Y-19242293D02*
X10386929Y-19194674D01*
X10386929Y-19194674D02*
X10396453Y-19156579D01*
X10396453Y-19156579D02*
X10405977Y-19137531D01*
X10405977Y-19137531D02*
X10415501Y-19128008D01*
X10415501Y-19128008D02*
X10434548Y-19118484D01*
X10672644Y-19185150D02*
X10672644Y-19318484D01*
X10625025Y-19108960D02*
X10577406Y-19251817D01*
X10577406Y-19251817D02*
X10701215Y-19251817D01*
X10758358Y-19118484D02*
X10882168Y-19118484D01*
X10882168Y-19118484D02*
X10815501Y-19194674D01*
X10815501Y-19194674D02*
X10844072Y-19194674D01*
X10844072Y-19194674D02*
X10863120Y-19204198D01*
X10863120Y-19204198D02*
X10872644Y-19213722D01*
X10872644Y-19213722D02*
X10882168Y-19232770D01*
X10882168Y-19232770D02*
X10882168Y-19280389D01*
X10882168Y-19280389D02*
X10872644Y-19299436D01*
X10872644Y-19299436D02*
X10863120Y-19308960D01*
X10863120Y-19308960D02*
X10844072Y-19318484D01*
X10844072Y-19318484D02*
X10786929Y-19318484D01*
X10786929Y-19318484D02*
X10767882Y-19308960D01*
X10767882Y-19308960D02*
X10758358Y-19299436D01*
X10948834Y-19118484D02*
X11072644Y-19118484D01*
X11072644Y-19118484D02*
X11005977Y-19194674D01*
X11005977Y-19194674D02*
X11034549Y-19194674D01*
X11034549Y-19194674D02*
X11053596Y-19204198D01*
X11053596Y-19204198D02*
X11063120Y-19213722D01*
X11063120Y-19213722D02*
X11072644Y-19232770D01*
X11072644Y-19232770D02*
X11072644Y-19280389D01*
X11072644Y-19280389D02*
X11063120Y-19299436D01*
X11063120Y-19299436D02*
X11053596Y-19308960D01*
X11053596Y-19308960D02*
X11034549Y-19318484D01*
X11034549Y-19318484D02*
X10977406Y-19318484D01*
X10977406Y-19318484D02*
X10958358Y-19308960D01*
X10958358Y-19308960D02*
X10948834Y-19299436D01*
X11148834Y-19118484D02*
X11148834Y-19156579D01*
X11225025Y-19118484D02*
X11225025Y-19156579D01*
X11520263Y-19394674D02*
X11510739Y-19385150D01*
X11510739Y-19385150D02*
X11491691Y-19356579D01*
X11491691Y-19356579D02*
X11482168Y-19337531D01*
X11482168Y-19337531D02*
X11472644Y-19308960D01*
X11472644Y-19308960D02*
X11463120Y-19261341D01*
X11463120Y-19261341D02*
X11463120Y-19223246D01*
X11463120Y-19223246D02*
X11472644Y-19175627D01*
X11472644Y-19175627D02*
X11482168Y-19147055D01*
X11482168Y-19147055D02*
X11491691Y-19128008D01*
X11491691Y-19128008D02*
X11510739Y-19099436D01*
X11510739Y-19099436D02*
X11520263Y-19089912D01*
X11682168Y-19185150D02*
X11682168Y-19318484D01*
X11634548Y-19108960D02*
X11586929Y-19251817D01*
X11586929Y-19251817D02*
X11710739Y-19251817D01*
X11939310Y-19318484D02*
X11939310Y-19118484D01*
X12025025Y-19318484D02*
X12025025Y-19213722D01*
X12025025Y-19213722D02*
X12015501Y-19194674D01*
X12015501Y-19194674D02*
X11996453Y-19185150D01*
X11996453Y-19185150D02*
X11967882Y-19185150D01*
X11967882Y-19185150D02*
X11948834Y-19194674D01*
X11948834Y-19194674D02*
X11939310Y-19204198D01*
X12148834Y-19318484D02*
X12129787Y-19308960D01*
X12129787Y-19308960D02*
X12120263Y-19299436D01*
X12120263Y-19299436D02*
X12110739Y-19280389D01*
X12110739Y-19280389D02*
X12110739Y-19223246D01*
X12110739Y-19223246D02*
X12120263Y-19204198D01*
X12120263Y-19204198D02*
X12129787Y-19194674D01*
X12129787Y-19194674D02*
X12148834Y-19185150D01*
X12148834Y-19185150D02*
X12177406Y-19185150D01*
X12177406Y-19185150D02*
X12196453Y-19194674D01*
X12196453Y-19194674D02*
X12205977Y-19204198D01*
X12205977Y-19204198D02*
X12215501Y-19223246D01*
X12215501Y-19223246D02*
X12215501Y-19280389D01*
X12215501Y-19280389D02*
X12205977Y-19299436D01*
X12205977Y-19299436D02*
X12196453Y-19308960D01*
X12196453Y-19308960D02*
X12177406Y-19318484D01*
X12177406Y-19318484D02*
X12148834Y-19318484D01*
X12329787Y-19318484D02*
X12310739Y-19308960D01*
X12310739Y-19308960D02*
X12301215Y-19289912D01*
X12301215Y-19289912D02*
X12301215Y-19118484D01*
X12482168Y-19308960D02*
X12463120Y-19318484D01*
X12463120Y-19318484D02*
X12425025Y-19318484D01*
X12425025Y-19318484D02*
X12405977Y-19308960D01*
X12405977Y-19308960D02*
X12396453Y-19289912D01*
X12396453Y-19289912D02*
X12396453Y-19213722D01*
X12396453Y-19213722D02*
X12405977Y-19194674D01*
X12405977Y-19194674D02*
X12425025Y-19185150D01*
X12425025Y-19185150D02*
X12463120Y-19185150D01*
X12463120Y-19185150D02*
X12482168Y-19194674D01*
X12482168Y-19194674D02*
X12491691Y-19213722D01*
X12491691Y-19213722D02*
X12491691Y-19232770D01*
X12491691Y-19232770D02*
X12396453Y-19251817D01*
X12567882Y-19308960D02*
X12586930Y-19318484D01*
X12586930Y-19318484D02*
X12625025Y-19318484D01*
X12625025Y-19318484D02*
X12644072Y-19308960D01*
X12644072Y-19308960D02*
X12653596Y-19289912D01*
X12653596Y-19289912D02*
X12653596Y-19280389D01*
X12653596Y-19280389D02*
X12644072Y-19261341D01*
X12644072Y-19261341D02*
X12625025Y-19251817D01*
X12625025Y-19251817D02*
X12596453Y-19251817D01*
X12596453Y-19251817D02*
X12577406Y-19242293D01*
X12577406Y-19242293D02*
X12567882Y-19223246D01*
X12567882Y-19223246D02*
X12567882Y-19213722D01*
X12567882Y-19213722D02*
X12577406Y-19194674D01*
X12577406Y-19194674D02*
X12596453Y-19185150D01*
X12596453Y-19185150D02*
X12625025Y-19185150D01*
X12625025Y-19185150D02*
X12644072Y-19194674D01*
X12720263Y-19394674D02*
X12729787Y-19385150D01*
X12729787Y-19385150D02*
X12748834Y-19356579D01*
X12748834Y-19356579D02*
X12758358Y-19337531D01*
X12758358Y-19337531D02*
X12767882Y-19308960D01*
X12767882Y-19308960D02*
X12777406Y-19261341D01*
X12777406Y-19261341D02*
X12777406Y-19223246D01*
X12777406Y-19223246D02*
X12767882Y-19175627D01*
X12767882Y-19175627D02*
X12758358Y-19147055D01*
X12758358Y-19147055D02*
X12748834Y-19128008D01*
X12748834Y-19128008D02*
X12729787Y-19099436D01*
X12729787Y-19099436D02*
X12720263Y-19089912D01*
X7745200Y-19391000D02*
X7945200Y-19591000D01*
X7945200Y-19391000D02*
X7745200Y-19591000D01*
X7945200Y-19491000D02*
G75*
G03*
X7945200Y-19491000I-100000J0D01*
G01*
X8186929Y-19382484D02*
X8310739Y-19382484D01*
X8310739Y-19382484D02*
X8244072Y-19458674D01*
X8244072Y-19458674D02*
X8272643Y-19458674D01*
X8272643Y-19458674D02*
X8291691Y-19468198D01*
X8291691Y-19468198D02*
X8301215Y-19477722D01*
X8301215Y-19477722D02*
X8310739Y-19496770D01*
X8310739Y-19496770D02*
X8310739Y-19544389D01*
X8310739Y-19544389D02*
X8301215Y-19563436D01*
X8301215Y-19563436D02*
X8291691Y-19572960D01*
X8291691Y-19572960D02*
X8272643Y-19582484D01*
X8272643Y-19582484D02*
X8215501Y-19582484D01*
X8215501Y-19582484D02*
X8196453Y-19572960D01*
X8196453Y-19572960D02*
X8186929Y-19563436D01*
X8396453Y-19563436D02*
X8405977Y-19572960D01*
X8405977Y-19572960D02*
X8396453Y-19582484D01*
X8396453Y-19582484D02*
X8386929Y-19572960D01*
X8386929Y-19572960D02*
X8396453Y-19563436D01*
X8396453Y-19563436D02*
X8396453Y-19582484D01*
X8482167Y-19401531D02*
X8491691Y-19392008D01*
X8491691Y-19392008D02*
X8510739Y-19382484D01*
X8510739Y-19382484D02*
X8558358Y-19382484D01*
X8558358Y-19382484D02*
X8577405Y-19392008D01*
X8577405Y-19392008D02*
X8586929Y-19401531D01*
X8586929Y-19401531D02*
X8596453Y-19420579D01*
X8596453Y-19420579D02*
X8596453Y-19439627D01*
X8596453Y-19439627D02*
X8586929Y-19468198D01*
X8586929Y-19468198D02*
X8472644Y-19582484D01*
X8472644Y-19582484D02*
X8596453Y-19582484D01*
X8720263Y-19382484D02*
X8739310Y-19382484D01*
X8739310Y-19382484D02*
X8758358Y-19392008D01*
X8758358Y-19392008D02*
X8767882Y-19401531D01*
X8767882Y-19401531D02*
X8777405Y-19420579D01*
X8777405Y-19420579D02*
X8786929Y-19458674D01*
X8786929Y-19458674D02*
X8786929Y-19506293D01*
X8786929Y-19506293D02*
X8777405Y-19544389D01*
X8777405Y-19544389D02*
X8767882Y-19563436D01*
X8767882Y-19563436D02*
X8758358Y-19572960D01*
X8758358Y-19572960D02*
X8739310Y-19582484D01*
X8739310Y-19582484D02*
X8720263Y-19582484D01*
X8720263Y-19582484D02*
X8701215Y-19572960D01*
X8701215Y-19572960D02*
X8691691Y-19563436D01*
X8691691Y-19563436D02*
X8682167Y-19544389D01*
X8682167Y-19544389D02*
X8672644Y-19506293D01*
X8672644Y-19506293D02*
X8672644Y-19458674D01*
X8672644Y-19458674D02*
X8682167Y-19420579D01*
X8682167Y-19420579D02*
X8691691Y-19401531D01*
X8691691Y-19401531D02*
X8701215Y-19392008D01*
X8701215Y-19392008D02*
X8720263Y-19382484D01*
X8910739Y-19382484D02*
X8929786Y-19382484D01*
X8929786Y-19382484D02*
X8948834Y-19392008D01*
X8948834Y-19392008D02*
X8958358Y-19401531D01*
X8958358Y-19401531D02*
X8967882Y-19420579D01*
X8967882Y-19420579D02*
X8977405Y-19458674D01*
X8977405Y-19458674D02*
X8977405Y-19506293D01*
X8977405Y-19506293D02*
X8967882Y-19544389D01*
X8967882Y-19544389D02*
X8958358Y-19563436D01*
X8958358Y-19563436D02*
X8948834Y-19572960D01*
X8948834Y-19572960D02*
X8929786Y-19582484D01*
X8929786Y-19582484D02*
X8910739Y-19582484D01*
X8910739Y-19582484D02*
X8891691Y-19572960D01*
X8891691Y-19572960D02*
X8882167Y-19563436D01*
X8882167Y-19563436D02*
X8872644Y-19544389D01*
X8872644Y-19544389D02*
X8863120Y-19506293D01*
X8863120Y-19506293D02*
X8863120Y-19458674D01*
X8863120Y-19458674D02*
X8872644Y-19420579D01*
X8872644Y-19420579D02*
X8882167Y-19401531D01*
X8882167Y-19401531D02*
X8891691Y-19392008D01*
X8891691Y-19392008D02*
X8910739Y-19382484D01*
X9063120Y-19582484D02*
X9063120Y-19449150D01*
X9063120Y-19468198D02*
X9072644Y-19458674D01*
X9072644Y-19458674D02*
X9091691Y-19449150D01*
X9091691Y-19449150D02*
X9120263Y-19449150D01*
X9120263Y-19449150D02*
X9139310Y-19458674D01*
X9139310Y-19458674D02*
X9148834Y-19477722D01*
X9148834Y-19477722D02*
X9148834Y-19582484D01*
X9148834Y-19477722D02*
X9158358Y-19458674D01*
X9158358Y-19458674D02*
X9177405Y-19449150D01*
X9177405Y-19449150D02*
X9205977Y-19449150D01*
X9205977Y-19449150D02*
X9225025Y-19458674D01*
X9225025Y-19458674D02*
X9234548Y-19477722D01*
X9234548Y-19477722D02*
X9234548Y-19582484D01*
X9329786Y-19582484D02*
X9329786Y-19449150D01*
X9329786Y-19468198D02*
X9339310Y-19458674D01*
X9339310Y-19458674D02*
X9358358Y-19449150D01*
X9358358Y-19449150D02*
X9386929Y-19449150D01*
X9386929Y-19449150D02*
X9405977Y-19458674D01*
X9405977Y-19458674D02*
X9415501Y-19477722D01*
X9415501Y-19477722D02*
X9415501Y-19582484D01*
X9415501Y-19477722D02*
X9425025Y-19458674D01*
X9425025Y-19458674D02*
X9444072Y-19449150D01*
X9444072Y-19449150D02*
X9472644Y-19449150D01*
X9472644Y-19449150D02*
X9491691Y-19458674D01*
X9491691Y-19458674D02*
X9501215Y-19477722D01*
X9501215Y-19477722D02*
X9501215Y-19582484D01*
X9891691Y-19372960D02*
X9720263Y-19630103D01*
X10148834Y-19382484D02*
X10167882Y-19382484D01*
X10167882Y-19382484D02*
X10186929Y-19392008D01*
X10186929Y-19392008D02*
X10196453Y-19401531D01*
X10196453Y-19401531D02*
X10205977Y-19420579D01*
X10205977Y-19420579D02*
X10215501Y-19458674D01*
X10215501Y-19458674D02*
X10215501Y-19506293D01*
X10215501Y-19506293D02*
X10205977Y-19544389D01*
X10205977Y-19544389D02*
X10196453Y-19563436D01*
X10196453Y-19563436D02*
X10186929Y-19572960D01*
X10186929Y-19572960D02*
X10167882Y-19582484D01*
X10167882Y-19582484D02*
X10148834Y-19582484D01*
X10148834Y-19582484D02*
X10129787Y-19572960D01*
X10129787Y-19572960D02*
X10120263Y-19563436D01*
X10120263Y-19563436D02*
X10110739Y-19544389D01*
X10110739Y-19544389D02*
X10101215Y-19506293D01*
X10101215Y-19506293D02*
X10101215Y-19458674D01*
X10101215Y-19458674D02*
X10110739Y-19420579D01*
X10110739Y-19420579D02*
X10120263Y-19401531D01*
X10120263Y-19401531D02*
X10129787Y-19392008D01*
X10129787Y-19392008D02*
X10148834Y-19382484D01*
X10301215Y-19563436D02*
X10310739Y-19572960D01*
X10310739Y-19572960D02*
X10301215Y-19582484D01*
X10301215Y-19582484D02*
X10291691Y-19572960D01*
X10291691Y-19572960D02*
X10301215Y-19563436D01*
X10301215Y-19563436D02*
X10301215Y-19582484D01*
X10501215Y-19582484D02*
X10386929Y-19582484D01*
X10444072Y-19582484D02*
X10444072Y-19382484D01*
X10444072Y-19382484D02*
X10425025Y-19411055D01*
X10425025Y-19411055D02*
X10405977Y-19430103D01*
X10405977Y-19430103D02*
X10386929Y-19439627D01*
X10577406Y-19401531D02*
X10586929Y-19392008D01*
X10586929Y-19392008D02*
X10605977Y-19382484D01*
X10605977Y-19382484D02*
X10653596Y-19382484D01*
X10653596Y-19382484D02*
X10672644Y-19392008D01*
X10672644Y-19392008D02*
X10682168Y-19401531D01*
X10682168Y-19401531D02*
X10691691Y-19420579D01*
X10691691Y-19420579D02*
X10691691Y-19439627D01*
X10691691Y-19439627D02*
X10682168Y-19468198D01*
X10682168Y-19468198D02*
X10567882Y-19582484D01*
X10567882Y-19582484D02*
X10691691Y-19582484D01*
X10863120Y-19382484D02*
X10825025Y-19382484D01*
X10825025Y-19382484D02*
X10805977Y-19392008D01*
X10805977Y-19392008D02*
X10796453Y-19401531D01*
X10796453Y-19401531D02*
X10777406Y-19430103D01*
X10777406Y-19430103D02*
X10767882Y-19468198D01*
X10767882Y-19468198D02*
X10767882Y-19544389D01*
X10767882Y-19544389D02*
X10777406Y-19563436D01*
X10777406Y-19563436D02*
X10786929Y-19572960D01*
X10786929Y-19572960D02*
X10805977Y-19582484D01*
X10805977Y-19582484D02*
X10844072Y-19582484D01*
X10844072Y-19582484D02*
X10863120Y-19572960D01*
X10863120Y-19572960D02*
X10872644Y-19563436D01*
X10872644Y-19563436D02*
X10882168Y-19544389D01*
X10882168Y-19544389D02*
X10882168Y-19496770D01*
X10882168Y-19496770D02*
X10872644Y-19477722D01*
X10872644Y-19477722D02*
X10863120Y-19468198D01*
X10863120Y-19468198D02*
X10844072Y-19458674D01*
X10844072Y-19458674D02*
X10805977Y-19458674D01*
X10805977Y-19458674D02*
X10786929Y-19468198D01*
X10786929Y-19468198D02*
X10777406Y-19477722D01*
X10777406Y-19477722D02*
X10767882Y-19496770D01*
X11005977Y-19382484D02*
X11025025Y-19382484D01*
X11025025Y-19382484D02*
X11044072Y-19392008D01*
X11044072Y-19392008D02*
X11053596Y-19401531D01*
X11053596Y-19401531D02*
X11063120Y-19420579D01*
X11063120Y-19420579D02*
X11072644Y-19458674D01*
X11072644Y-19458674D02*
X11072644Y-19506293D01*
X11072644Y-19506293D02*
X11063120Y-19544389D01*
X11063120Y-19544389D02*
X11053596Y-19563436D01*
X11053596Y-19563436D02*
X11044072Y-19572960D01*
X11044072Y-19572960D02*
X11025025Y-19582484D01*
X11025025Y-19582484D02*
X11005977Y-19582484D01*
X11005977Y-19582484D02*
X10986929Y-19572960D01*
X10986929Y-19572960D02*
X10977406Y-19563436D01*
X10977406Y-19563436D02*
X10967882Y-19544389D01*
X10967882Y-19544389D02*
X10958358Y-19506293D01*
X10958358Y-19506293D02*
X10958358Y-19458674D01*
X10958358Y-19458674D02*
X10967882Y-19420579D01*
X10967882Y-19420579D02*
X10977406Y-19401531D01*
X10977406Y-19401531D02*
X10986929Y-19392008D01*
X10986929Y-19392008D02*
X11005977Y-19382484D01*
X11148834Y-19382484D02*
X11148834Y-19420579D01*
X11225025Y-19382484D02*
X11225025Y-19420579D01*
X11520263Y-19658674D02*
X11510739Y-19649150D01*
X11510739Y-19649150D02*
X11491691Y-19620579D01*
X11491691Y-19620579D02*
X11482168Y-19601531D01*
X11482168Y-19601531D02*
X11472644Y-19572960D01*
X11472644Y-19572960D02*
X11463120Y-19525341D01*
X11463120Y-19525341D02*
X11463120Y-19487246D01*
X11463120Y-19487246D02*
X11472644Y-19439627D01*
X11472644Y-19439627D02*
X11482168Y-19411055D01*
X11482168Y-19411055D02*
X11491691Y-19392008D01*
X11491691Y-19392008D02*
X11510739Y-19363436D01*
X11510739Y-19363436D02*
X11520263Y-19353912D01*
X11682168Y-19449150D02*
X11682168Y-19582484D01*
X11634548Y-19372960D02*
X11586929Y-19515817D01*
X11586929Y-19515817D02*
X11710739Y-19515817D01*
X11939310Y-19582484D02*
X11939310Y-19382484D01*
X12025025Y-19582484D02*
X12025025Y-19477722D01*
X12025025Y-19477722D02*
X12015501Y-19458674D01*
X12015501Y-19458674D02*
X11996453Y-19449150D01*
X11996453Y-19449150D02*
X11967882Y-19449150D01*
X11967882Y-19449150D02*
X11948834Y-19458674D01*
X11948834Y-19458674D02*
X11939310Y-19468198D01*
X12148834Y-19582484D02*
X12129787Y-19572960D01*
X12129787Y-19572960D02*
X12120263Y-19563436D01*
X12120263Y-19563436D02*
X12110739Y-19544389D01*
X12110739Y-19544389D02*
X12110739Y-19487246D01*
X12110739Y-19487246D02*
X12120263Y-19468198D01*
X12120263Y-19468198D02*
X12129787Y-19458674D01*
X12129787Y-19458674D02*
X12148834Y-19449150D01*
X12148834Y-19449150D02*
X12177406Y-19449150D01*
X12177406Y-19449150D02*
X12196453Y-19458674D01*
X12196453Y-19458674D02*
X12205977Y-19468198D01*
X12205977Y-19468198D02*
X12215501Y-19487246D01*
X12215501Y-19487246D02*
X12215501Y-19544389D01*
X12215501Y-19544389D02*
X12205977Y-19563436D01*
X12205977Y-19563436D02*
X12196453Y-19572960D01*
X12196453Y-19572960D02*
X12177406Y-19582484D01*
X12177406Y-19582484D02*
X12148834Y-19582484D01*
X12329787Y-19582484D02*
X12310739Y-19572960D01*
X12310739Y-19572960D02*
X12301215Y-19553912D01*
X12301215Y-19553912D02*
X12301215Y-19382484D01*
X12482168Y-19572960D02*
X12463120Y-19582484D01*
X12463120Y-19582484D02*
X12425025Y-19582484D01*
X12425025Y-19582484D02*
X12405977Y-19572960D01*
X12405977Y-19572960D02*
X12396453Y-19553912D01*
X12396453Y-19553912D02*
X12396453Y-19477722D01*
X12396453Y-19477722D02*
X12405977Y-19458674D01*
X12405977Y-19458674D02*
X12425025Y-19449150D01*
X12425025Y-19449150D02*
X12463120Y-19449150D01*
X12463120Y-19449150D02*
X12482168Y-19458674D01*
X12482168Y-19458674D02*
X12491691Y-19477722D01*
X12491691Y-19477722D02*
X12491691Y-19496770D01*
X12491691Y-19496770D02*
X12396453Y-19515817D01*
X12567882Y-19572960D02*
X12586930Y-19582484D01*
X12586930Y-19582484D02*
X12625025Y-19582484D01*
X12625025Y-19582484D02*
X12644072Y-19572960D01*
X12644072Y-19572960D02*
X12653596Y-19553912D01*
X12653596Y-19553912D02*
X12653596Y-19544389D01*
X12653596Y-19544389D02*
X12644072Y-19525341D01*
X12644072Y-19525341D02*
X12625025Y-19515817D01*
X12625025Y-19515817D02*
X12596453Y-19515817D01*
X12596453Y-19515817D02*
X12577406Y-19506293D01*
X12577406Y-19506293D02*
X12567882Y-19487246D01*
X12567882Y-19487246D02*
X12567882Y-19477722D01*
X12567882Y-19477722D02*
X12577406Y-19458674D01*
X12577406Y-19458674D02*
X12596453Y-19449150D01*
X12596453Y-19449150D02*
X12625025Y-19449150D01*
X12625025Y-19449150D02*
X12644072Y-19458674D01*
X12720263Y-19658674D02*
X12729787Y-19649150D01*
X12729787Y-19649150D02*
X12748834Y-19620579D01*
X12748834Y-19620579D02*
X12758358Y-19601531D01*
X12758358Y-19601531D02*
X12767882Y-19572960D01*
X12767882Y-19572960D02*
X12777406Y-19525341D01*
X12777406Y-19525341D02*
X12777406Y-19487246D01*
X12777406Y-19487246D02*
X12767882Y-19439627D01*
X12767882Y-19439627D02*
X12758358Y-19411055D01*
X12758358Y-19411055D02*
X12748834Y-19392008D01*
X12748834Y-19392008D02*
X12729787Y-19363436D01*
X12729787Y-19363436D02*
X12720263Y-19353912D01*
M02*
