G04 #@! TF.GenerationSoftware,KiCad,Pcbnew,7.0.8*
G04 #@! TF.CreationDate,2023-11-23T13:30:25+08:00*
G04 #@! TF.ProjectId,redox_rev1_hs,7265646f-785f-4726-9576-315f68732e6b,1.0*
G04 #@! TF.SameCoordinates,Original*
G04 #@! TF.FileFunction,Paste,Bot*
G04 #@! TF.FilePolarity,Positive*
%FSLAX46Y46*%
G04 Gerber Fmt 4.6, Leading zero omitted, Abs format (unit mm)*
G04 Created by KiCad (PCBNEW 7.0.8) date 2023-11-23 13:30:25*
%MOMM*%
%LPD*%
G01*
G04 APERTURE LIST*
G04 Aperture macros list*
%AMRoundRect*
0 Rectangle with rounded corners*
0 $1 Rounding radius*
0 $2 $3 $4 $5 $6 $7 $8 $9 X,Y pos of 4 corners*
0 Add a 4 corners polygon primitive as box body*
4,1,4,$2,$3,$4,$5,$6,$7,$8,$9,$2,$3,0*
0 Add four circle primitives for the rounded corners*
1,1,$1+$1,$2,$3*
1,1,$1+$1,$4,$5*
1,1,$1+$1,$6,$7*
1,1,$1+$1,$8,$9*
0 Add four rect primitives between the rounded corners*
20,1,$1+$1,$2,$3,$4,$5,0*
20,1,$1+$1,$4,$5,$6,$7,0*
20,1,$1+$1,$6,$7,$8,$9,0*
20,1,$1+$1,$8,$9,$2,$3,0*%
%AMRotRect*
0 Rectangle, with rotation*
0 The origin of the aperture is its center*
0 $1 length*
0 $2 width*
0 $3 Rotation angle, in degrees counterclockwise*
0 Add horizontal line*
21,1,$1,$2,0,0,$3*%
G04 Aperture macros list end*
%ADD10R,1.200000X1.200000*%
%ADD11RotRect,1.200000X1.200000X150.000000*%
%ADD12RotRect,1.200000X1.200000X255.000000*%
%ADD13RoundRect,0.250000X-1.025000X-1.000000X1.025000X-1.000000X1.025000X1.000000X-1.025000X1.000000X0*%
%ADD14RoundRect,0.250000X-1.000000X1.025000X-1.000000X-1.025000X1.000000X-1.025000X1.000000X1.025000X0*%
%ADD15RoundRect,0.250000X-1.387676X-0.353525X0.387676X-1.378525X1.387676X0.353525X-0.387676X1.378525X0*%
%ADD16RoundRect,0.250000X-1.248893X-0.700636X0.731255X-1.231215X1.248893X0.700636X-0.731255X1.231215X0*%
%ADD17RoundRect,0.250000X-0.353525X1.387676X-1.378525X-0.387676X0.353525X-1.387676X1.378525X0.387676X0*%
G04 APERTURE END LIST*
D10*
X89865000Y-74930000D03*
X93015000Y-74930000D03*
X111455000Y-74930000D03*
X114605000Y-74930000D03*
X130505000Y-70485000D03*
X133655000Y-70485000D03*
X149555000Y-67945000D03*
X152705000Y-67945000D03*
X168605000Y-70485000D03*
X171755000Y-70485000D03*
X187655000Y-72390000D03*
X190805000Y-72390000D03*
X206705000Y-81915000D03*
X209855000Y-81915000D03*
X89865000Y-93980000D03*
X93015000Y-93980000D03*
X111455000Y-93980000D03*
X114605000Y-93980000D03*
X130505000Y-89535000D03*
X133655000Y-89535000D03*
X149555000Y-86995000D03*
X152705000Y-86995000D03*
X168605000Y-89535000D03*
X171755000Y-89535000D03*
X187655000Y-91440000D03*
X190805000Y-91440000D03*
X206705000Y-106680000D03*
X209855000Y-106680000D03*
X89865000Y-113030000D03*
X93015000Y-113030000D03*
X111455000Y-113030000D03*
X114605000Y-113030000D03*
X130505000Y-108585000D03*
X133655000Y-108585000D03*
X149555000Y-106045000D03*
X152705000Y-106045000D03*
X168605000Y-108585000D03*
X171755000Y-108585000D03*
X187655000Y-110490000D03*
X190805000Y-110490000D03*
D11*
X206281010Y-133832500D03*
X209008990Y-135407500D03*
D10*
X89865000Y-132080000D03*
X93015000Y-132080000D03*
X111455000Y-132080000D03*
X114605000Y-132080000D03*
X130505000Y-127635000D03*
X133655000Y-127635000D03*
X149555000Y-125095000D03*
X152705000Y-125095000D03*
X168605000Y-127635000D03*
X171755000Y-127635000D03*
X187655000Y-129540000D03*
X190805000Y-129540000D03*
D11*
X222791010Y-143357500D03*
X225518990Y-144932500D03*
D10*
X103505000Y-144450000D03*
X103505000Y-141300000D03*
X122555000Y-142545000D03*
X122555000Y-139395000D03*
X141605000Y-140005000D03*
X141605000Y-136855000D03*
X160655000Y-137465000D03*
X160655000Y-134315000D03*
D12*
X187552360Y-146047333D03*
X188367640Y-143004667D03*
D11*
X193962010Y-155168500D03*
X196689990Y-156743500D03*
X210726010Y-164820500D03*
X213453990Y-166395500D03*
D13*
X84355000Y-64135000D03*
X97282000Y-61595000D03*
X105945000Y-64135000D03*
X118872000Y-61595000D03*
X124995000Y-59690000D03*
X137922000Y-57150000D03*
X144045000Y-57150000D03*
X156972000Y-54610000D03*
X163095000Y-59690000D03*
X176022000Y-57150000D03*
X182145000Y-61595000D03*
X195072000Y-59055000D03*
X201195000Y-71120000D03*
X214122000Y-68580000D03*
X84355000Y-83185000D03*
X97282000Y-80645000D03*
X105945000Y-83185000D03*
X118872000Y-80645000D03*
X124995000Y-78740000D03*
X137922000Y-76200000D03*
X144045000Y-76200000D03*
X156972000Y-73660000D03*
X163095000Y-78740000D03*
X176022000Y-76200000D03*
X182145000Y-80645000D03*
X195072000Y-78105000D03*
D14*
X210820000Y-90705000D03*
X213360000Y-103632000D03*
D13*
X84355000Y-102235000D03*
X97282000Y-99695000D03*
X105945000Y-102235000D03*
X118872000Y-99695000D03*
X124995000Y-97790000D03*
X137922000Y-95250000D03*
X144045000Y-95250000D03*
X156972000Y-92710000D03*
X163095000Y-97790000D03*
X176022000Y-95250000D03*
X182145000Y-99695000D03*
X195072000Y-97155000D03*
D15*
X207224210Y-121892795D03*
X219689320Y-126156591D03*
D13*
X84355000Y-121285000D03*
X97282000Y-118745000D03*
X105945000Y-121285000D03*
X118872000Y-118745000D03*
X124995000Y-116840000D03*
X137922000Y-114300000D03*
X144045000Y-114300000D03*
X156972000Y-111760000D03*
X163095000Y-116840000D03*
X176022000Y-114300000D03*
X182145000Y-118745000D03*
X195072000Y-116205000D03*
D15*
X223734210Y-131417795D03*
X236199320Y-135681591D03*
D13*
X86895000Y-140335000D03*
X99822000Y-137795000D03*
X105945000Y-140335000D03*
X118872000Y-137795000D03*
X124995000Y-135890000D03*
X137922000Y-133350000D03*
X144045000Y-133350000D03*
X156972000Y-130810000D03*
D16*
X170343816Y-137317815D03*
X183487739Y-138210118D03*
D17*
X205767205Y-143724210D03*
X201503409Y-156189320D03*
X222277205Y-153249210D03*
X218013409Y-165714320D03*
M02*
