%TF.GenerationSoftware,KiCad,Pcbnew,7.0.8*%
%TF.CreationDate,2023-11-23T13:30:29+08:00*%
%TF.ProjectId,redox_rev1_hs,7265646f-785f-4726-9576-315f68732e6b,1.0*%
%TF.SameCoordinates,Original*%
%TF.FileFunction,Drillmap*%
%TF.FilePolarity,Positive*%
%FSLAX45Y45*%
G04 Gerber Fmt 4.5, Leading zero omitted, Abs format (unit mm)*
G04 Created by KiCad (PCBNEW 7.0.8) date 2023-11-23 13:30:29*
%MOMM*%
%LPD*%
G01*
G04 APERTURE LIST*
%ADD10C,0.100000*%
%ADD11C,0.200000*%
%ADD12C,0.150000*%
%ADD13C,0.175000*%
%ADD14C,0.305000*%
%ADD15C,0.400000*%
G04 APERTURE END LIST*
D10*
X21272500Y-4876800D02*
X8458200Y-4876800D01*
X12674600Y-14808200D02*
X14147800Y-14808200D01*
X21780500Y-5384800D02*
X21272500Y-4876800D01*
X21780500Y-6400800D02*
X21780500Y-11988800D01*
X21780500Y-11988800D02*
X24168100Y-13360400D01*
X15417800Y-14554200D02*
X14401800Y-14554200D01*
X17614900Y-15138400D02*
X15417800Y-14554200D01*
X12242800Y-15240000D02*
X12674600Y-14808200D01*
X21755100Y-17526000D02*
X17614900Y-15138400D01*
X21755100Y-17526000D02*
X21767800Y-17526000D01*
X7950200Y-5715000D02*
X7950200Y-13335000D01*
X7950200Y-5384800D02*
X8458200Y-4876800D01*
X7950200Y-13335000D02*
X8432800Y-13817600D01*
X14147800Y-14808200D02*
X14401800Y-14554200D01*
X21767800Y-17526000D02*
X24168100Y-13360400D01*
X7950200Y-5384800D02*
X7950200Y-5715000D01*
X8432800Y-13817600D02*
X8432800Y-15240000D01*
X21780500Y-5384800D02*
X21780500Y-6400800D01*
X8432800Y-15240000D02*
X12242800Y-15240000D01*
D11*
D12*
X20472200Y-5165000D02*
X20622200Y-5315000D01*
X20622200Y-5165000D02*
X20472200Y-5315000D01*
X20472200Y-5865000D02*
X20622200Y-6015000D01*
X20622200Y-5865000D02*
X20472200Y-6015000D01*
X20932200Y-5165000D02*
X21082200Y-5315000D01*
X21082200Y-5165000D02*
X20932200Y-5315000D01*
X20932200Y-5865000D02*
X21082200Y-6015000D01*
X21082200Y-5865000D02*
X20932200Y-6015000D01*
D13*
X8723500Y-6667500D02*
G75*
G03*
X8723500Y-6667500I-87500J0D01*
G01*
X8723500Y-8572500D02*
G75*
G03*
X8723500Y-8572500I-87500J0D01*
G01*
X8723500Y-10477500D02*
G75*
G03*
X8723500Y-10477500I-87500J0D01*
G01*
X8723500Y-12382500D02*
G75*
G03*
X8723500Y-12382500I-87500J0D01*
G01*
X8977500Y-14287500D02*
G75*
G03*
X8977500Y-14287500I-87500J0D01*
G01*
X9739500Y-6667500D02*
G75*
G03*
X9739500Y-6667500I-87500J0D01*
G01*
X9739500Y-8572500D02*
G75*
G03*
X9739500Y-8572500I-87500J0D01*
G01*
X9739500Y-10477500D02*
G75*
G03*
X9739500Y-10477500I-87500J0D01*
G01*
X9739500Y-12382500D02*
G75*
G03*
X9739500Y-12382500I-87500J0D01*
G01*
X9993500Y-14287500D02*
G75*
G03*
X9993500Y-14287500I-87500J0D01*
G01*
X10882500Y-6667500D02*
G75*
G03*
X10882500Y-6667500I-87500J0D01*
G01*
X10882500Y-8572500D02*
G75*
G03*
X10882500Y-8572500I-87500J0D01*
G01*
X10882500Y-10477500D02*
G75*
G03*
X10882500Y-10477500I-87500J0D01*
G01*
X10882500Y-12382500D02*
G75*
G03*
X10882500Y-12382500I-87500J0D01*
G01*
X10882500Y-14287500D02*
G75*
G03*
X10882500Y-14287500I-87500J0D01*
G01*
X11898500Y-6667500D02*
G75*
G03*
X11898500Y-6667500I-87500J0D01*
G01*
X11898500Y-8572500D02*
G75*
G03*
X11898500Y-8572500I-87500J0D01*
G01*
X11898500Y-10477500D02*
G75*
G03*
X11898500Y-10477500I-87500J0D01*
G01*
X11898500Y-12382500D02*
G75*
G03*
X11898500Y-12382500I-87500J0D01*
G01*
X11898500Y-14287500D02*
G75*
G03*
X11898500Y-14287500I-87500J0D01*
G01*
X12787500Y-6223000D02*
G75*
G03*
X12787500Y-6223000I-87500J0D01*
G01*
X12787500Y-8128000D02*
G75*
G03*
X12787500Y-8128000I-87500J0D01*
G01*
X12787500Y-10033000D02*
G75*
G03*
X12787500Y-10033000I-87500J0D01*
G01*
X12787500Y-11938000D02*
G75*
G03*
X12787500Y-11938000I-87500J0D01*
G01*
X12787500Y-13843000D02*
G75*
G03*
X12787500Y-13843000I-87500J0D01*
G01*
X13803500Y-6223000D02*
G75*
G03*
X13803500Y-6223000I-87500J0D01*
G01*
X13803500Y-8128000D02*
G75*
G03*
X13803500Y-8128000I-87500J0D01*
G01*
X13803500Y-10033000D02*
G75*
G03*
X13803500Y-10033000I-87500J0D01*
G01*
X13803500Y-11938000D02*
G75*
G03*
X13803500Y-11938000I-87500J0D01*
G01*
X13803500Y-13843000D02*
G75*
G03*
X13803500Y-13843000I-87500J0D01*
G01*
X14692500Y-5969000D02*
G75*
G03*
X14692500Y-5969000I-87500J0D01*
G01*
X14692500Y-7874000D02*
G75*
G03*
X14692500Y-7874000I-87500J0D01*
G01*
X14692500Y-9779000D02*
G75*
G03*
X14692500Y-9779000I-87500J0D01*
G01*
X14692500Y-11684000D02*
G75*
G03*
X14692500Y-11684000I-87500J0D01*
G01*
X14692500Y-13589000D02*
G75*
G03*
X14692500Y-13589000I-87500J0D01*
G01*
X15708500Y-5969000D02*
G75*
G03*
X15708500Y-5969000I-87500J0D01*
G01*
X15708500Y-7874000D02*
G75*
G03*
X15708500Y-7874000I-87500J0D01*
G01*
X15708500Y-9779000D02*
G75*
G03*
X15708500Y-9779000I-87500J0D01*
G01*
X15708500Y-11684000D02*
G75*
G03*
X15708500Y-11684000I-87500J0D01*
G01*
X15708500Y-13589000D02*
G75*
G03*
X15708500Y-13589000I-87500J0D01*
G01*
X16597500Y-6223000D02*
G75*
G03*
X16597500Y-6223000I-87500J0D01*
G01*
X16597500Y-8128000D02*
G75*
G03*
X16597500Y-8128000I-87500J0D01*
G01*
X16597500Y-10033000D02*
G75*
G03*
X16597500Y-10033000I-87500J0D01*
G01*
X16597500Y-11938000D02*
G75*
G03*
X16597500Y-11938000I-87500J0D01*
G01*
X17249810Y-14029020D02*
G75*
G03*
X17249810Y-14029020I-87500J0D01*
G01*
X17613500Y-6223000D02*
G75*
G03*
X17613500Y-6223000I-87500J0D01*
G01*
X17613500Y-8128000D02*
G75*
G03*
X17613500Y-8128000I-87500J0D01*
G01*
X17613500Y-10033000D02*
G75*
G03*
X17613500Y-10033000I-87500J0D01*
G01*
X17613500Y-11938000D02*
G75*
G03*
X17613500Y-11938000I-87500J0D01*
G01*
X18231190Y-14291980D02*
G75*
G03*
X18231190Y-14291980I-87500J0D01*
G01*
X18502500Y-6413500D02*
G75*
G03*
X18502500Y-6413500I-87500J0D01*
G01*
X18502500Y-8318500D02*
G75*
G03*
X18502500Y-8318500I-87500J0D01*
G01*
X18502500Y-10223500D02*
G75*
G03*
X18502500Y-10223500I-87500J0D01*
G01*
X18502500Y-12128500D02*
G75*
G03*
X18502500Y-12128500I-87500J0D01*
G01*
X19518500Y-6413500D02*
G75*
G03*
X19518500Y-6413500I-87500J0D01*
G01*
X19518500Y-8318500D02*
G75*
G03*
X19518500Y-8318500I-87500J0D01*
G01*
X19518500Y-10223500D02*
G75*
G03*
X19518500Y-10223500I-87500J0D01*
G01*
X19518500Y-12128500D02*
G75*
G03*
X19518500Y-12128500I-87500J0D01*
G01*
X19836000Y-15298941D02*
G75*
G03*
X19836000Y-15298941I-87500J0D01*
G01*
X20344000Y-14419059D02*
G75*
G03*
X20344000Y-14419059I-87500J0D01*
G01*
X20407500Y-7366000D02*
G75*
G03*
X20407500Y-7366000I-87500J0D01*
G01*
X20856559Y-12509500D02*
G75*
G03*
X20856559Y-12509500I-87500J0D01*
G01*
X20915500Y-9271000D02*
G75*
G03*
X20915500Y-9271000I-87500J0D01*
G01*
X20915500Y-10287000D02*
G75*
G03*
X20915500Y-10287000I-87500J0D01*
G01*
X21423500Y-7366000D02*
G75*
G03*
X21423500Y-7366000I-87500J0D01*
G01*
X21487000Y-16251441D02*
G75*
G03*
X21487000Y-16251441I-87500J0D01*
G01*
X21736441Y-13017500D02*
G75*
G03*
X21736441Y-13017500I-87500J0D01*
G01*
X21995000Y-15371559D02*
G75*
G03*
X21995000Y-15371559I-87500J0D01*
G01*
X22507559Y-13462000D02*
G75*
G03*
X22507559Y-13462000I-87500J0D01*
G01*
X23387441Y-13970000D02*
G75*
G03*
X23387441Y-13970000I-87500J0D01*
G01*
D14*
X8763000Y-6261000D02*
X8763000Y-6566000D01*
X8610500Y-6413500D02*
X8915500Y-6413500D01*
X8763000Y-8166000D02*
X8763000Y-8471000D01*
X8610500Y-8318500D02*
X8915500Y-8318500D01*
X8763000Y-10071000D02*
X8763000Y-10376000D01*
X8610500Y-10223500D02*
X8915500Y-10223500D01*
X8763000Y-11976000D02*
X8763000Y-12281000D01*
X8610500Y-12128500D02*
X8915500Y-12128500D01*
X9017000Y-13881000D02*
X9017000Y-14186000D01*
X8864500Y-14033500D02*
X9169500Y-14033500D01*
X9398000Y-6007000D02*
X9398000Y-6312000D01*
X9245500Y-6159500D02*
X9550500Y-6159500D01*
X9398000Y-7912000D02*
X9398000Y-8217000D01*
X9245500Y-8064500D02*
X9550500Y-8064500D01*
X9398000Y-9817000D02*
X9398000Y-10122000D01*
X9245500Y-9969500D02*
X9550500Y-9969500D01*
X9398000Y-11722000D02*
X9398000Y-12027000D01*
X9245500Y-11874500D02*
X9550500Y-11874500D01*
X9652000Y-13627000D02*
X9652000Y-13932000D01*
X9499500Y-13779500D02*
X9804500Y-13779500D01*
X10922000Y-6261000D02*
X10922000Y-6566000D01*
X10769500Y-6413500D02*
X11074500Y-6413500D01*
X10922000Y-8166000D02*
X10922000Y-8471000D01*
X10769500Y-8318500D02*
X11074500Y-8318500D01*
X10922000Y-10071000D02*
X10922000Y-10376000D01*
X10769500Y-10223500D02*
X11074500Y-10223500D01*
X10922000Y-11976000D02*
X10922000Y-12281000D01*
X10769500Y-12128500D02*
X11074500Y-12128500D01*
X10922000Y-13881000D02*
X10922000Y-14186000D01*
X10769500Y-14033500D02*
X11074500Y-14033500D01*
X11557000Y-6007000D02*
X11557000Y-6312000D01*
X11404500Y-6159500D02*
X11709500Y-6159500D01*
X11557000Y-7912000D02*
X11557000Y-8217000D01*
X11404500Y-8064500D02*
X11709500Y-8064500D01*
X11557000Y-9817000D02*
X11557000Y-10122000D01*
X11404500Y-9969500D02*
X11709500Y-9969500D01*
X11557000Y-11722000D02*
X11557000Y-12027000D01*
X11404500Y-11874500D02*
X11709500Y-11874500D01*
X11557000Y-13627000D02*
X11557000Y-13932000D01*
X11404500Y-13779500D02*
X11709500Y-13779500D01*
X12827000Y-5816500D02*
X12827000Y-6121500D01*
X12674500Y-5969000D02*
X12979500Y-5969000D01*
X12827000Y-7721500D02*
X12827000Y-8026500D01*
X12674500Y-7874000D02*
X12979500Y-7874000D01*
X12827000Y-9626500D02*
X12827000Y-9931500D01*
X12674500Y-9779000D02*
X12979500Y-9779000D01*
X12827000Y-11531500D02*
X12827000Y-11836500D01*
X12674500Y-11684000D02*
X12979500Y-11684000D01*
X12827000Y-13436500D02*
X12827000Y-13741500D01*
X12674500Y-13589000D02*
X12979500Y-13589000D01*
X13462000Y-5562500D02*
X13462000Y-5867500D01*
X13309500Y-5715000D02*
X13614500Y-5715000D01*
X13462000Y-7467500D02*
X13462000Y-7772500D01*
X13309500Y-7620000D02*
X13614500Y-7620000D01*
X13462000Y-9372500D02*
X13462000Y-9677500D01*
X13309500Y-9525000D02*
X13614500Y-9525000D01*
X13462000Y-11277500D02*
X13462000Y-11582500D01*
X13309500Y-11430000D02*
X13614500Y-11430000D01*
X13462000Y-13182500D02*
X13462000Y-13487500D01*
X13309500Y-13335000D02*
X13614500Y-13335000D01*
X14732000Y-5562500D02*
X14732000Y-5867500D01*
X14579500Y-5715000D02*
X14884500Y-5715000D01*
X14732000Y-7467500D02*
X14732000Y-7772500D01*
X14579500Y-7620000D02*
X14884500Y-7620000D01*
X14732000Y-9372500D02*
X14732000Y-9677500D01*
X14579500Y-9525000D02*
X14884500Y-9525000D01*
X14732000Y-11277500D02*
X14732000Y-11582500D01*
X14579500Y-11430000D02*
X14884500Y-11430000D01*
X14732000Y-13182500D02*
X14732000Y-13487500D01*
X14579500Y-13335000D02*
X14884500Y-13335000D01*
X15367000Y-5308500D02*
X15367000Y-5613500D01*
X15214500Y-5461000D02*
X15519500Y-5461000D01*
X15367000Y-7213500D02*
X15367000Y-7518500D01*
X15214500Y-7366000D02*
X15519500Y-7366000D01*
X15367000Y-9118500D02*
X15367000Y-9423500D01*
X15214500Y-9271000D02*
X15519500Y-9271000D01*
X15367000Y-11023500D02*
X15367000Y-11328500D01*
X15214500Y-11176000D02*
X15519500Y-11176000D01*
X15367000Y-12928500D02*
X15367000Y-13233500D01*
X15214500Y-13081000D02*
X15519500Y-13081000D01*
X16637000Y-5816500D02*
X16637000Y-6121500D01*
X16484500Y-5969000D02*
X16789500Y-5969000D01*
X16637000Y-7721500D02*
X16637000Y-8026500D01*
X16484500Y-7874000D02*
X16789500Y-7874000D01*
X16637000Y-9626500D02*
X16637000Y-9931500D01*
X16484500Y-9779000D02*
X16789500Y-9779000D01*
X16637000Y-11531500D02*
X16637000Y-11836500D01*
X16484500Y-11684000D02*
X16789500Y-11684000D01*
X17272000Y-5562500D02*
X17272000Y-5867500D01*
X17119500Y-5715000D02*
X17424500Y-5715000D01*
X17272000Y-7467500D02*
X17272000Y-7772500D01*
X17119500Y-7620000D02*
X17424500Y-7620000D01*
X17272000Y-9372500D02*
X17272000Y-9677500D01*
X17119500Y-9525000D02*
X17424500Y-9525000D01*
X17272000Y-11277500D02*
X17272000Y-11582500D01*
X17119500Y-11430000D02*
X17424500Y-11430000D01*
X17350722Y-13664045D02*
X17350722Y-13969045D01*
X17198222Y-13816545D02*
X17503222Y-13816545D01*
X18029825Y-13583050D02*
X18029825Y-13888050D01*
X17877325Y-13735550D02*
X18182325Y-13735550D01*
X18542000Y-6007000D02*
X18542000Y-6312000D01*
X18389500Y-6159500D02*
X18694500Y-6159500D01*
X18542000Y-7912000D02*
X18542000Y-8217000D01*
X18389500Y-8064500D02*
X18694500Y-8064500D01*
X18542000Y-9817000D02*
X18542000Y-10122000D01*
X18389500Y-9969500D02*
X18694500Y-9969500D01*
X18542000Y-11722000D02*
X18542000Y-12027000D01*
X18389500Y-11874500D02*
X18694500Y-11874500D01*
X19177000Y-5753000D02*
X19177000Y-6058000D01*
X19024500Y-5905500D02*
X19329500Y-5905500D01*
X19177000Y-7658000D02*
X19177000Y-7963000D01*
X19024500Y-7810500D02*
X19329500Y-7810500D01*
X19177000Y-9563000D02*
X19177000Y-9868000D01*
X19024500Y-9715500D02*
X19329500Y-9715500D01*
X19177000Y-11468000D02*
X19177000Y-11773000D01*
X19024500Y-11620500D02*
X19329500Y-11620500D01*
X20315441Y-15180470D02*
X20315441Y-15485470D01*
X20162941Y-15332970D02*
X20467941Y-15332970D01*
X20412971Y-14503544D02*
X20412971Y-14808544D01*
X20260471Y-14656044D02*
X20565471Y-14656044D01*
X20447000Y-6959500D02*
X20447000Y-7264500D01*
X20294500Y-7112000D02*
X20599500Y-7112000D01*
X21006044Y-12200529D02*
X21006044Y-12505529D01*
X20853544Y-12353029D02*
X21158544Y-12353029D01*
X21082000Y-6705500D02*
X21082000Y-7010500D01*
X20929500Y-6858000D02*
X21234500Y-6858000D01*
X21082000Y-9245500D02*
X21082000Y-9550500D01*
X20929500Y-9398000D02*
X21234500Y-9398000D01*
X21336000Y-9880500D02*
X21336000Y-10185500D01*
X21183500Y-10033000D02*
X21488500Y-10033000D01*
X21682971Y-12298059D02*
X21682971Y-12603059D01*
X21530471Y-12450559D02*
X21835471Y-12450559D01*
X21966441Y-16132970D02*
X21966441Y-16437970D01*
X21813941Y-16285470D02*
X22118941Y-16285470D01*
X22063971Y-15456044D02*
X22063971Y-15761044D01*
X21911471Y-15608544D02*
X22216471Y-15608544D01*
X22657044Y-13153029D02*
X22657044Y-13458029D01*
X22504544Y-13305529D02*
X22809544Y-13305529D01*
X23333970Y-13250559D02*
X23333970Y-13555559D01*
X23181470Y-13403059D02*
X23486470Y-13403059D01*
D15*
X9285423Y-6808923D02*
X9285423Y-6526077D01*
X9002577Y-6526077D01*
X9002577Y-6808923D01*
X9285423Y-6808923D01*
X9285423Y-8713923D02*
X9285423Y-8431077D01*
X9002577Y-8431077D01*
X9002577Y-8713923D01*
X9285423Y-8713923D01*
X9285423Y-10618923D02*
X9285423Y-10336077D01*
X9002577Y-10336077D01*
X9002577Y-10618923D01*
X9285423Y-10618923D01*
X9285423Y-12523923D02*
X9285423Y-12241077D01*
X9002577Y-12241077D01*
X9002577Y-12523923D01*
X9285423Y-12523923D01*
X9539423Y-14428923D02*
X9539423Y-14146077D01*
X9256577Y-14146077D01*
X9256577Y-14428923D01*
X9539423Y-14428923D01*
X11444423Y-6808923D02*
X11444423Y-6526077D01*
X11161577Y-6526077D01*
X11161577Y-6808923D01*
X11444423Y-6808923D01*
X11444423Y-8713923D02*
X11444423Y-8431077D01*
X11161577Y-8431077D01*
X11161577Y-8713923D01*
X11444423Y-8713923D01*
X11444423Y-10618923D02*
X11444423Y-10336077D01*
X11161577Y-10336077D01*
X11161577Y-10618923D01*
X11444423Y-10618923D01*
X11444423Y-12523923D02*
X11444423Y-12241077D01*
X11161577Y-12241077D01*
X11161577Y-12523923D01*
X11444423Y-12523923D01*
X11444423Y-14428923D02*
X11444423Y-14146077D01*
X11161577Y-14146077D01*
X11161577Y-14428923D01*
X11444423Y-14428923D01*
X13349423Y-6364423D02*
X13349423Y-6081577D01*
X13066577Y-6081577D01*
X13066577Y-6364423D01*
X13349423Y-6364423D01*
X13349423Y-8269423D02*
X13349423Y-7986577D01*
X13066577Y-7986577D01*
X13066577Y-8269423D01*
X13349423Y-8269423D01*
X13349423Y-10174423D02*
X13349423Y-9891577D01*
X13066577Y-9891577D01*
X13066577Y-10174423D01*
X13349423Y-10174423D01*
X13349423Y-12079423D02*
X13349423Y-11796577D01*
X13066577Y-11796577D01*
X13066577Y-12079423D01*
X13349423Y-12079423D01*
X13349423Y-13984423D02*
X13349423Y-13701577D01*
X13066577Y-13701577D01*
X13066577Y-13984423D01*
X13349423Y-13984423D01*
X15254423Y-6110423D02*
X15254423Y-5827577D01*
X14971577Y-5827577D01*
X14971577Y-6110423D01*
X15254423Y-6110423D01*
X15254423Y-8015423D02*
X15254423Y-7732577D01*
X14971577Y-7732577D01*
X14971577Y-8015423D01*
X15254423Y-8015423D01*
X15254423Y-9920423D02*
X15254423Y-9637577D01*
X14971577Y-9637577D01*
X14971577Y-9920423D01*
X15254423Y-9920423D01*
X15254423Y-11825423D02*
X15254423Y-11542577D01*
X14971577Y-11542577D01*
X14971577Y-11825423D01*
X15254423Y-11825423D01*
X15254423Y-13730423D02*
X15254423Y-13447577D01*
X14971577Y-13447577D01*
X14971577Y-13730423D01*
X15254423Y-13730423D01*
X17159423Y-6364423D02*
X17159423Y-6081577D01*
X16876577Y-6081577D01*
X16876577Y-6364423D01*
X17159423Y-6364423D01*
X17159423Y-8269423D02*
X17159423Y-7986577D01*
X16876577Y-7986577D01*
X16876577Y-8269423D01*
X17159423Y-8269423D01*
X17159423Y-10174423D02*
X17159423Y-9891577D01*
X16876577Y-9891577D01*
X16876577Y-10174423D01*
X17159423Y-10174423D01*
X17159423Y-12079423D02*
X17159423Y-11796577D01*
X16876577Y-11796577D01*
X16876577Y-12079423D01*
X17159423Y-12079423D01*
X17794423Y-14301923D02*
X17794423Y-14019077D01*
X17511577Y-14019077D01*
X17511577Y-14301923D01*
X17794423Y-14301923D01*
X19064423Y-6554923D02*
X19064423Y-6272077D01*
X18781577Y-6272077D01*
X18781577Y-6554923D01*
X19064423Y-6554923D01*
X19064423Y-8459923D02*
X19064423Y-8177077D01*
X18781577Y-8177077D01*
X18781577Y-8459923D01*
X19064423Y-8459923D01*
X19064423Y-10364923D02*
X19064423Y-10082077D01*
X18781577Y-10082077D01*
X18781577Y-10364923D01*
X19064423Y-10364923D01*
X19064423Y-12269923D02*
X19064423Y-11987077D01*
X18781577Y-11987077D01*
X18781577Y-12269923D01*
X19064423Y-12269923D01*
X20143923Y-15000423D02*
X20143923Y-14717577D01*
X19861077Y-14717577D01*
X19861077Y-15000423D01*
X20143923Y-15000423D01*
X20969423Y-7507423D02*
X20969423Y-7224577D01*
X20686577Y-7224577D01*
X20686577Y-7507423D01*
X20969423Y-7507423D01*
X20969423Y-9920423D02*
X20969423Y-9637577D01*
X20686577Y-9637577D01*
X20686577Y-9920423D01*
X20969423Y-9920423D01*
X21350423Y-12904923D02*
X21350423Y-12622077D01*
X21067577Y-12622077D01*
X21067577Y-12904923D01*
X21350423Y-12904923D01*
X21794923Y-15952923D02*
X21794923Y-15670077D01*
X21512077Y-15670077D01*
X21512077Y-15952923D01*
X21794923Y-15952923D01*
X23001423Y-13857423D02*
X23001423Y-13574577D01*
X22718577Y-13574577D01*
X22718577Y-13857423D01*
X23001423Y-13857423D01*
D11*
X8205977Y-17842484D02*
X8205977Y-17642484D01*
X8205977Y-17642484D02*
X8253596Y-17642484D01*
X8253596Y-17642484D02*
X8282167Y-17652008D01*
X8282167Y-17652008D02*
X8301215Y-17671055D01*
X8301215Y-17671055D02*
X8310739Y-17690103D01*
X8310739Y-17690103D02*
X8320262Y-17728198D01*
X8320262Y-17728198D02*
X8320262Y-17756770D01*
X8320262Y-17756770D02*
X8310739Y-17794865D01*
X8310739Y-17794865D02*
X8301215Y-17813912D01*
X8301215Y-17813912D02*
X8282167Y-17832960D01*
X8282167Y-17832960D02*
X8253596Y-17842484D01*
X8253596Y-17842484D02*
X8205977Y-17842484D01*
X8405977Y-17842484D02*
X8405977Y-17709150D01*
X8405977Y-17747246D02*
X8415501Y-17728198D01*
X8415501Y-17728198D02*
X8425024Y-17718674D01*
X8425024Y-17718674D02*
X8444072Y-17709150D01*
X8444072Y-17709150D02*
X8463120Y-17709150D01*
X8529786Y-17842484D02*
X8529786Y-17709150D01*
X8529786Y-17642484D02*
X8520263Y-17652008D01*
X8520263Y-17652008D02*
X8529786Y-17661531D01*
X8529786Y-17661531D02*
X8539310Y-17652008D01*
X8539310Y-17652008D02*
X8529786Y-17642484D01*
X8529786Y-17642484D02*
X8529786Y-17661531D01*
X8653596Y-17842484D02*
X8634548Y-17832960D01*
X8634548Y-17832960D02*
X8625024Y-17813912D01*
X8625024Y-17813912D02*
X8625024Y-17642484D01*
X8758358Y-17842484D02*
X8739310Y-17832960D01*
X8739310Y-17832960D02*
X8729786Y-17813912D01*
X8729786Y-17813912D02*
X8729786Y-17642484D01*
X8986929Y-17842484D02*
X8986929Y-17642484D01*
X8986929Y-17642484D02*
X9053596Y-17785341D01*
X9053596Y-17785341D02*
X9120263Y-17642484D01*
X9120263Y-17642484D02*
X9120263Y-17842484D01*
X9301215Y-17842484D02*
X9301215Y-17737722D01*
X9301215Y-17737722D02*
X9291691Y-17718674D01*
X9291691Y-17718674D02*
X9272644Y-17709150D01*
X9272644Y-17709150D02*
X9234548Y-17709150D01*
X9234548Y-17709150D02*
X9215501Y-17718674D01*
X9301215Y-17832960D02*
X9282167Y-17842484D01*
X9282167Y-17842484D02*
X9234548Y-17842484D01*
X9234548Y-17842484D02*
X9215501Y-17832960D01*
X9215501Y-17832960D02*
X9205977Y-17813912D01*
X9205977Y-17813912D02*
X9205977Y-17794865D01*
X9205977Y-17794865D02*
X9215501Y-17775817D01*
X9215501Y-17775817D02*
X9234548Y-17766293D01*
X9234548Y-17766293D02*
X9282167Y-17766293D01*
X9282167Y-17766293D02*
X9301215Y-17756770D01*
X9396453Y-17709150D02*
X9396453Y-17909150D01*
X9396453Y-17718674D02*
X9415501Y-17709150D01*
X9415501Y-17709150D02*
X9453596Y-17709150D01*
X9453596Y-17709150D02*
X9472644Y-17718674D01*
X9472644Y-17718674D02*
X9482167Y-17728198D01*
X9482167Y-17728198D02*
X9491691Y-17747246D01*
X9491691Y-17747246D02*
X9491691Y-17804389D01*
X9491691Y-17804389D02*
X9482167Y-17823436D01*
X9482167Y-17823436D02*
X9472644Y-17832960D01*
X9472644Y-17832960D02*
X9453596Y-17842484D01*
X9453596Y-17842484D02*
X9415501Y-17842484D01*
X9415501Y-17842484D02*
X9396453Y-17832960D01*
X9577405Y-17823436D02*
X9586929Y-17832960D01*
X9586929Y-17832960D02*
X9577405Y-17842484D01*
X9577405Y-17842484D02*
X9567882Y-17832960D01*
X9567882Y-17832960D02*
X9577405Y-17823436D01*
X9577405Y-17823436D02*
X9577405Y-17842484D01*
X9577405Y-17718674D02*
X9586929Y-17728198D01*
X9586929Y-17728198D02*
X9577405Y-17737722D01*
X9577405Y-17737722D02*
X9567882Y-17728198D01*
X9567882Y-17728198D02*
X9577405Y-17718674D01*
X9577405Y-17718674D02*
X9577405Y-17737722D01*
D12*
X7795200Y-18096000D02*
X7945200Y-18246000D01*
X7945200Y-18096000D02*
X7795200Y-18246000D01*
D11*
X8310739Y-18262484D02*
X8196453Y-18262484D01*
X8253596Y-18262484D02*
X8253596Y-18062484D01*
X8253596Y-18062484D02*
X8234548Y-18091055D01*
X8234548Y-18091055D02*
X8215501Y-18110103D01*
X8215501Y-18110103D02*
X8196453Y-18119627D01*
X8396453Y-18243436D02*
X8405977Y-18252960D01*
X8405977Y-18252960D02*
X8396453Y-18262484D01*
X8396453Y-18262484D02*
X8386929Y-18252960D01*
X8386929Y-18252960D02*
X8396453Y-18243436D01*
X8396453Y-18243436D02*
X8396453Y-18262484D01*
X8586929Y-18062484D02*
X8491691Y-18062484D01*
X8491691Y-18062484D02*
X8482167Y-18157722D01*
X8482167Y-18157722D02*
X8491691Y-18148198D01*
X8491691Y-18148198D02*
X8510739Y-18138674D01*
X8510739Y-18138674D02*
X8558358Y-18138674D01*
X8558358Y-18138674D02*
X8577405Y-18148198D01*
X8577405Y-18148198D02*
X8586929Y-18157722D01*
X8586929Y-18157722D02*
X8596453Y-18176770D01*
X8596453Y-18176770D02*
X8596453Y-18224389D01*
X8596453Y-18224389D02*
X8586929Y-18243436D01*
X8586929Y-18243436D02*
X8577405Y-18252960D01*
X8577405Y-18252960D02*
X8558358Y-18262484D01*
X8558358Y-18262484D02*
X8510739Y-18262484D01*
X8510739Y-18262484D02*
X8491691Y-18252960D01*
X8491691Y-18252960D02*
X8482167Y-18243436D01*
X8720263Y-18062484D02*
X8739310Y-18062484D01*
X8739310Y-18062484D02*
X8758358Y-18072008D01*
X8758358Y-18072008D02*
X8767882Y-18081531D01*
X8767882Y-18081531D02*
X8777405Y-18100579D01*
X8777405Y-18100579D02*
X8786929Y-18138674D01*
X8786929Y-18138674D02*
X8786929Y-18186293D01*
X8786929Y-18186293D02*
X8777405Y-18224389D01*
X8777405Y-18224389D02*
X8767882Y-18243436D01*
X8767882Y-18243436D02*
X8758358Y-18252960D01*
X8758358Y-18252960D02*
X8739310Y-18262484D01*
X8739310Y-18262484D02*
X8720263Y-18262484D01*
X8720263Y-18262484D02*
X8701215Y-18252960D01*
X8701215Y-18252960D02*
X8691691Y-18243436D01*
X8691691Y-18243436D02*
X8682167Y-18224389D01*
X8682167Y-18224389D02*
X8672644Y-18186293D01*
X8672644Y-18186293D02*
X8672644Y-18138674D01*
X8672644Y-18138674D02*
X8682167Y-18100579D01*
X8682167Y-18100579D02*
X8691691Y-18081531D01*
X8691691Y-18081531D02*
X8701215Y-18072008D01*
X8701215Y-18072008D02*
X8720263Y-18062484D01*
X8910739Y-18062484D02*
X8929786Y-18062484D01*
X8929786Y-18062484D02*
X8948834Y-18072008D01*
X8948834Y-18072008D02*
X8958358Y-18081531D01*
X8958358Y-18081531D02*
X8967882Y-18100579D01*
X8967882Y-18100579D02*
X8977405Y-18138674D01*
X8977405Y-18138674D02*
X8977405Y-18186293D01*
X8977405Y-18186293D02*
X8967882Y-18224389D01*
X8967882Y-18224389D02*
X8958358Y-18243436D01*
X8958358Y-18243436D02*
X8948834Y-18252960D01*
X8948834Y-18252960D02*
X8929786Y-18262484D01*
X8929786Y-18262484D02*
X8910739Y-18262484D01*
X8910739Y-18262484D02*
X8891691Y-18252960D01*
X8891691Y-18252960D02*
X8882167Y-18243436D01*
X8882167Y-18243436D02*
X8872644Y-18224389D01*
X8872644Y-18224389D02*
X8863120Y-18186293D01*
X8863120Y-18186293D02*
X8863120Y-18138674D01*
X8863120Y-18138674D02*
X8872644Y-18100579D01*
X8872644Y-18100579D02*
X8882167Y-18081531D01*
X8882167Y-18081531D02*
X8891691Y-18072008D01*
X8891691Y-18072008D02*
X8910739Y-18062484D01*
X9063120Y-18262484D02*
X9063120Y-18129150D01*
X9063120Y-18148198D02*
X9072644Y-18138674D01*
X9072644Y-18138674D02*
X9091691Y-18129150D01*
X9091691Y-18129150D02*
X9120263Y-18129150D01*
X9120263Y-18129150D02*
X9139310Y-18138674D01*
X9139310Y-18138674D02*
X9148834Y-18157722D01*
X9148834Y-18157722D02*
X9148834Y-18262484D01*
X9148834Y-18157722D02*
X9158358Y-18138674D01*
X9158358Y-18138674D02*
X9177405Y-18129150D01*
X9177405Y-18129150D02*
X9205977Y-18129150D01*
X9205977Y-18129150D02*
X9225025Y-18138674D01*
X9225025Y-18138674D02*
X9234548Y-18157722D01*
X9234548Y-18157722D02*
X9234548Y-18262484D01*
X9329786Y-18262484D02*
X9329786Y-18129150D01*
X9329786Y-18148198D02*
X9339310Y-18138674D01*
X9339310Y-18138674D02*
X9358358Y-18129150D01*
X9358358Y-18129150D02*
X9386929Y-18129150D01*
X9386929Y-18129150D02*
X9405977Y-18138674D01*
X9405977Y-18138674D02*
X9415501Y-18157722D01*
X9415501Y-18157722D02*
X9415501Y-18262484D01*
X9415501Y-18157722D02*
X9425025Y-18138674D01*
X9425025Y-18138674D02*
X9444072Y-18129150D01*
X9444072Y-18129150D02*
X9472644Y-18129150D01*
X9472644Y-18129150D02*
X9491691Y-18138674D01*
X9491691Y-18138674D02*
X9501215Y-18157722D01*
X9501215Y-18157722D02*
X9501215Y-18262484D01*
X9891691Y-18052960D02*
X9720263Y-18310103D01*
X10148834Y-18062484D02*
X10167882Y-18062484D01*
X10167882Y-18062484D02*
X10186929Y-18072008D01*
X10186929Y-18072008D02*
X10196453Y-18081531D01*
X10196453Y-18081531D02*
X10205977Y-18100579D01*
X10205977Y-18100579D02*
X10215501Y-18138674D01*
X10215501Y-18138674D02*
X10215501Y-18186293D01*
X10215501Y-18186293D02*
X10205977Y-18224389D01*
X10205977Y-18224389D02*
X10196453Y-18243436D01*
X10196453Y-18243436D02*
X10186929Y-18252960D01*
X10186929Y-18252960D02*
X10167882Y-18262484D01*
X10167882Y-18262484D02*
X10148834Y-18262484D01*
X10148834Y-18262484D02*
X10129787Y-18252960D01*
X10129787Y-18252960D02*
X10120263Y-18243436D01*
X10120263Y-18243436D02*
X10110739Y-18224389D01*
X10110739Y-18224389D02*
X10101215Y-18186293D01*
X10101215Y-18186293D02*
X10101215Y-18138674D01*
X10101215Y-18138674D02*
X10110739Y-18100579D01*
X10110739Y-18100579D02*
X10120263Y-18081531D01*
X10120263Y-18081531D02*
X10129787Y-18072008D01*
X10129787Y-18072008D02*
X10148834Y-18062484D01*
X10301215Y-18243436D02*
X10310739Y-18252960D01*
X10310739Y-18252960D02*
X10301215Y-18262484D01*
X10301215Y-18262484D02*
X10291691Y-18252960D01*
X10291691Y-18252960D02*
X10301215Y-18243436D01*
X10301215Y-18243436D02*
X10301215Y-18262484D01*
X10434548Y-18062484D02*
X10453596Y-18062484D01*
X10453596Y-18062484D02*
X10472644Y-18072008D01*
X10472644Y-18072008D02*
X10482168Y-18081531D01*
X10482168Y-18081531D02*
X10491691Y-18100579D01*
X10491691Y-18100579D02*
X10501215Y-18138674D01*
X10501215Y-18138674D02*
X10501215Y-18186293D01*
X10501215Y-18186293D02*
X10491691Y-18224389D01*
X10491691Y-18224389D02*
X10482168Y-18243436D01*
X10482168Y-18243436D02*
X10472644Y-18252960D01*
X10472644Y-18252960D02*
X10453596Y-18262484D01*
X10453596Y-18262484D02*
X10434548Y-18262484D01*
X10434548Y-18262484D02*
X10415501Y-18252960D01*
X10415501Y-18252960D02*
X10405977Y-18243436D01*
X10405977Y-18243436D02*
X10396453Y-18224389D01*
X10396453Y-18224389D02*
X10386929Y-18186293D01*
X10386929Y-18186293D02*
X10386929Y-18138674D01*
X10386929Y-18138674D02*
X10396453Y-18100579D01*
X10396453Y-18100579D02*
X10405977Y-18081531D01*
X10405977Y-18081531D02*
X10415501Y-18072008D01*
X10415501Y-18072008D02*
X10434548Y-18062484D01*
X10682168Y-18062484D02*
X10586929Y-18062484D01*
X10586929Y-18062484D02*
X10577406Y-18157722D01*
X10577406Y-18157722D02*
X10586929Y-18148198D01*
X10586929Y-18148198D02*
X10605977Y-18138674D01*
X10605977Y-18138674D02*
X10653596Y-18138674D01*
X10653596Y-18138674D02*
X10672644Y-18148198D01*
X10672644Y-18148198D02*
X10682168Y-18157722D01*
X10682168Y-18157722D02*
X10691691Y-18176770D01*
X10691691Y-18176770D02*
X10691691Y-18224389D01*
X10691691Y-18224389D02*
X10682168Y-18243436D01*
X10682168Y-18243436D02*
X10672644Y-18252960D01*
X10672644Y-18252960D02*
X10653596Y-18262484D01*
X10653596Y-18262484D02*
X10605977Y-18262484D01*
X10605977Y-18262484D02*
X10586929Y-18252960D01*
X10586929Y-18252960D02*
X10577406Y-18243436D01*
X10786929Y-18262484D02*
X10825025Y-18262484D01*
X10825025Y-18262484D02*
X10844072Y-18252960D01*
X10844072Y-18252960D02*
X10853596Y-18243436D01*
X10853596Y-18243436D02*
X10872644Y-18214865D01*
X10872644Y-18214865D02*
X10882168Y-18176770D01*
X10882168Y-18176770D02*
X10882168Y-18100579D01*
X10882168Y-18100579D02*
X10872644Y-18081531D01*
X10872644Y-18081531D02*
X10863120Y-18072008D01*
X10863120Y-18072008D02*
X10844072Y-18062484D01*
X10844072Y-18062484D02*
X10805977Y-18062484D01*
X10805977Y-18062484D02*
X10786929Y-18072008D01*
X10786929Y-18072008D02*
X10777406Y-18081531D01*
X10777406Y-18081531D02*
X10767882Y-18100579D01*
X10767882Y-18100579D02*
X10767882Y-18148198D01*
X10767882Y-18148198D02*
X10777406Y-18167246D01*
X10777406Y-18167246D02*
X10786929Y-18176770D01*
X10786929Y-18176770D02*
X10805977Y-18186293D01*
X10805977Y-18186293D02*
X10844072Y-18186293D01*
X10844072Y-18186293D02*
X10863120Y-18176770D01*
X10863120Y-18176770D02*
X10872644Y-18167246D01*
X10872644Y-18167246D02*
X10882168Y-18148198D01*
X11072644Y-18262484D02*
X10958358Y-18262484D01*
X11015501Y-18262484D02*
X11015501Y-18062484D01*
X11015501Y-18062484D02*
X10996453Y-18091055D01*
X10996453Y-18091055D02*
X10977406Y-18110103D01*
X10977406Y-18110103D02*
X10958358Y-18119627D01*
X11148834Y-18062484D02*
X11148834Y-18100579D01*
X11225025Y-18062484D02*
X11225025Y-18100579D01*
X11520263Y-18338674D02*
X11510739Y-18329150D01*
X11510739Y-18329150D02*
X11491691Y-18300579D01*
X11491691Y-18300579D02*
X11482168Y-18281531D01*
X11482168Y-18281531D02*
X11472644Y-18252960D01*
X11472644Y-18252960D02*
X11463120Y-18205341D01*
X11463120Y-18205341D02*
X11463120Y-18167246D01*
X11463120Y-18167246D02*
X11472644Y-18119627D01*
X11472644Y-18119627D02*
X11482168Y-18091055D01*
X11482168Y-18091055D02*
X11491691Y-18072008D01*
X11491691Y-18072008D02*
X11510739Y-18043436D01*
X11510739Y-18043436D02*
X11520263Y-18033912D01*
X11682168Y-18129150D02*
X11682168Y-18262484D01*
X11634548Y-18052960D02*
X11586929Y-18195817D01*
X11586929Y-18195817D02*
X11710739Y-18195817D01*
X11939310Y-18262484D02*
X11939310Y-18062484D01*
X12025025Y-18262484D02*
X12025025Y-18157722D01*
X12025025Y-18157722D02*
X12015501Y-18138674D01*
X12015501Y-18138674D02*
X11996453Y-18129150D01*
X11996453Y-18129150D02*
X11967882Y-18129150D01*
X11967882Y-18129150D02*
X11948834Y-18138674D01*
X11948834Y-18138674D02*
X11939310Y-18148198D01*
X12148834Y-18262484D02*
X12129787Y-18252960D01*
X12129787Y-18252960D02*
X12120263Y-18243436D01*
X12120263Y-18243436D02*
X12110739Y-18224389D01*
X12110739Y-18224389D02*
X12110739Y-18167246D01*
X12110739Y-18167246D02*
X12120263Y-18148198D01*
X12120263Y-18148198D02*
X12129787Y-18138674D01*
X12129787Y-18138674D02*
X12148834Y-18129150D01*
X12148834Y-18129150D02*
X12177406Y-18129150D01*
X12177406Y-18129150D02*
X12196453Y-18138674D01*
X12196453Y-18138674D02*
X12205977Y-18148198D01*
X12205977Y-18148198D02*
X12215501Y-18167246D01*
X12215501Y-18167246D02*
X12215501Y-18224389D01*
X12215501Y-18224389D02*
X12205977Y-18243436D01*
X12205977Y-18243436D02*
X12196453Y-18252960D01*
X12196453Y-18252960D02*
X12177406Y-18262484D01*
X12177406Y-18262484D02*
X12148834Y-18262484D01*
X12329787Y-18262484D02*
X12310739Y-18252960D01*
X12310739Y-18252960D02*
X12301215Y-18233912D01*
X12301215Y-18233912D02*
X12301215Y-18062484D01*
X12482168Y-18252960D02*
X12463120Y-18262484D01*
X12463120Y-18262484D02*
X12425025Y-18262484D01*
X12425025Y-18262484D02*
X12405977Y-18252960D01*
X12405977Y-18252960D02*
X12396453Y-18233912D01*
X12396453Y-18233912D02*
X12396453Y-18157722D01*
X12396453Y-18157722D02*
X12405977Y-18138674D01*
X12405977Y-18138674D02*
X12425025Y-18129150D01*
X12425025Y-18129150D02*
X12463120Y-18129150D01*
X12463120Y-18129150D02*
X12482168Y-18138674D01*
X12482168Y-18138674D02*
X12491691Y-18157722D01*
X12491691Y-18157722D02*
X12491691Y-18176770D01*
X12491691Y-18176770D02*
X12396453Y-18195817D01*
X12567882Y-18252960D02*
X12586930Y-18262484D01*
X12586930Y-18262484D02*
X12625025Y-18262484D01*
X12625025Y-18262484D02*
X12644072Y-18252960D01*
X12644072Y-18252960D02*
X12653596Y-18233912D01*
X12653596Y-18233912D02*
X12653596Y-18224389D01*
X12653596Y-18224389D02*
X12644072Y-18205341D01*
X12644072Y-18205341D02*
X12625025Y-18195817D01*
X12625025Y-18195817D02*
X12596453Y-18195817D01*
X12596453Y-18195817D02*
X12577406Y-18186293D01*
X12577406Y-18186293D02*
X12567882Y-18167246D01*
X12567882Y-18167246D02*
X12567882Y-18157722D01*
X12567882Y-18157722D02*
X12577406Y-18138674D01*
X12577406Y-18138674D02*
X12596453Y-18129150D01*
X12596453Y-18129150D02*
X12625025Y-18129150D01*
X12625025Y-18129150D02*
X12644072Y-18138674D01*
X12720263Y-18338674D02*
X12729787Y-18329150D01*
X12729787Y-18329150D02*
X12748834Y-18300579D01*
X12748834Y-18300579D02*
X12758358Y-18281531D01*
X12758358Y-18281531D02*
X12767882Y-18252960D01*
X12767882Y-18252960D02*
X12777406Y-18205341D01*
X12777406Y-18205341D02*
X12777406Y-18167246D01*
X12777406Y-18167246D02*
X12767882Y-18119627D01*
X12767882Y-18119627D02*
X12758358Y-18091055D01*
X12758358Y-18091055D02*
X12748834Y-18072008D01*
X12748834Y-18072008D02*
X12729787Y-18043436D01*
X12729787Y-18043436D02*
X12720263Y-18033912D01*
X13082168Y-18338674D02*
X13072644Y-18329150D01*
X13072644Y-18329150D02*
X13053596Y-18300579D01*
X13053596Y-18300579D02*
X13044072Y-18281531D01*
X13044072Y-18281531D02*
X13034549Y-18252960D01*
X13034549Y-18252960D02*
X13025025Y-18205341D01*
X13025025Y-18205341D02*
X13025025Y-18167246D01*
X13025025Y-18167246D02*
X13034549Y-18119627D01*
X13034549Y-18119627D02*
X13044072Y-18091055D01*
X13044072Y-18091055D02*
X13053596Y-18072008D01*
X13053596Y-18072008D02*
X13072644Y-18043436D01*
X13072644Y-18043436D02*
X13082168Y-18033912D01*
X13158358Y-18129150D02*
X13158358Y-18262484D01*
X13158358Y-18148198D02*
X13167882Y-18138674D01*
X13167882Y-18138674D02*
X13186930Y-18129150D01*
X13186930Y-18129150D02*
X13215501Y-18129150D01*
X13215501Y-18129150D02*
X13234549Y-18138674D01*
X13234549Y-18138674D02*
X13244072Y-18157722D01*
X13244072Y-18157722D02*
X13244072Y-18262484D01*
X13367882Y-18262484D02*
X13348834Y-18252960D01*
X13348834Y-18252960D02*
X13339311Y-18243436D01*
X13339311Y-18243436D02*
X13329787Y-18224389D01*
X13329787Y-18224389D02*
X13329787Y-18167246D01*
X13329787Y-18167246D02*
X13339311Y-18148198D01*
X13339311Y-18148198D02*
X13348834Y-18138674D01*
X13348834Y-18138674D02*
X13367882Y-18129150D01*
X13367882Y-18129150D02*
X13396453Y-18129150D01*
X13396453Y-18129150D02*
X13415501Y-18138674D01*
X13415501Y-18138674D02*
X13425025Y-18148198D01*
X13425025Y-18148198D02*
X13434549Y-18167246D01*
X13434549Y-18167246D02*
X13434549Y-18224389D01*
X13434549Y-18224389D02*
X13425025Y-18243436D01*
X13425025Y-18243436D02*
X13415501Y-18252960D01*
X13415501Y-18252960D02*
X13396453Y-18262484D01*
X13396453Y-18262484D02*
X13367882Y-18262484D01*
X13491692Y-18129150D02*
X13567882Y-18129150D01*
X13520263Y-18062484D02*
X13520263Y-18233912D01*
X13520263Y-18233912D02*
X13529787Y-18252960D01*
X13529787Y-18252960D02*
X13548834Y-18262484D01*
X13548834Y-18262484D02*
X13567882Y-18262484D01*
X13786930Y-18129150D02*
X13786930Y-18329150D01*
X13786930Y-18138674D02*
X13805977Y-18129150D01*
X13805977Y-18129150D02*
X13844073Y-18129150D01*
X13844073Y-18129150D02*
X13863120Y-18138674D01*
X13863120Y-18138674D02*
X13872644Y-18148198D01*
X13872644Y-18148198D02*
X13882168Y-18167246D01*
X13882168Y-18167246D02*
X13882168Y-18224389D01*
X13882168Y-18224389D02*
X13872644Y-18243436D01*
X13872644Y-18243436D02*
X13863120Y-18252960D01*
X13863120Y-18252960D02*
X13844073Y-18262484D01*
X13844073Y-18262484D02*
X13805977Y-18262484D01*
X13805977Y-18262484D02*
X13786930Y-18252960D01*
X13996453Y-18262484D02*
X13977406Y-18252960D01*
X13977406Y-18252960D02*
X13967882Y-18233912D01*
X13967882Y-18233912D02*
X13967882Y-18062484D01*
X14158358Y-18262484D02*
X14158358Y-18157722D01*
X14158358Y-18157722D02*
X14148834Y-18138674D01*
X14148834Y-18138674D02*
X14129787Y-18129150D01*
X14129787Y-18129150D02*
X14091692Y-18129150D01*
X14091692Y-18129150D02*
X14072644Y-18138674D01*
X14158358Y-18252960D02*
X14139311Y-18262484D01*
X14139311Y-18262484D02*
X14091692Y-18262484D01*
X14091692Y-18262484D02*
X14072644Y-18252960D01*
X14072644Y-18252960D02*
X14063120Y-18233912D01*
X14063120Y-18233912D02*
X14063120Y-18214865D01*
X14063120Y-18214865D02*
X14072644Y-18195817D01*
X14072644Y-18195817D02*
X14091692Y-18186293D01*
X14091692Y-18186293D02*
X14139311Y-18186293D01*
X14139311Y-18186293D02*
X14158358Y-18176770D01*
X14225025Y-18129150D02*
X14301215Y-18129150D01*
X14253596Y-18062484D02*
X14253596Y-18233912D01*
X14253596Y-18233912D02*
X14263120Y-18252960D01*
X14263120Y-18252960D02*
X14282168Y-18262484D01*
X14282168Y-18262484D02*
X14301215Y-18262484D01*
X14444073Y-18252960D02*
X14425025Y-18262484D01*
X14425025Y-18262484D02*
X14386930Y-18262484D01*
X14386930Y-18262484D02*
X14367882Y-18252960D01*
X14367882Y-18252960D02*
X14358358Y-18233912D01*
X14358358Y-18233912D02*
X14358358Y-18157722D01*
X14358358Y-18157722D02*
X14367882Y-18138674D01*
X14367882Y-18138674D02*
X14386930Y-18129150D01*
X14386930Y-18129150D02*
X14425025Y-18129150D01*
X14425025Y-18129150D02*
X14444073Y-18138674D01*
X14444073Y-18138674D02*
X14453596Y-18157722D01*
X14453596Y-18157722D02*
X14453596Y-18176770D01*
X14453596Y-18176770D02*
X14358358Y-18195817D01*
X14625025Y-18262484D02*
X14625025Y-18062484D01*
X14625025Y-18252960D02*
X14605977Y-18262484D01*
X14605977Y-18262484D02*
X14567882Y-18262484D01*
X14567882Y-18262484D02*
X14548834Y-18252960D01*
X14548834Y-18252960D02*
X14539311Y-18243436D01*
X14539311Y-18243436D02*
X14529787Y-18224389D01*
X14529787Y-18224389D02*
X14529787Y-18167246D01*
X14529787Y-18167246D02*
X14539311Y-18148198D01*
X14539311Y-18148198D02*
X14548834Y-18138674D01*
X14548834Y-18138674D02*
X14567882Y-18129150D01*
X14567882Y-18129150D02*
X14605977Y-18129150D01*
X14605977Y-18129150D02*
X14625025Y-18138674D01*
X14701215Y-18338674D02*
X14710739Y-18329150D01*
X14710739Y-18329150D02*
X14729787Y-18300579D01*
X14729787Y-18300579D02*
X14739311Y-18281531D01*
X14739311Y-18281531D02*
X14748834Y-18252960D01*
X14748834Y-18252960D02*
X14758358Y-18205341D01*
X14758358Y-18205341D02*
X14758358Y-18167246D01*
X14758358Y-18167246D02*
X14748834Y-18119627D01*
X14748834Y-18119627D02*
X14739311Y-18091055D01*
X14739311Y-18091055D02*
X14729787Y-18072008D01*
X14729787Y-18072008D02*
X14710739Y-18043436D01*
X14710739Y-18043436D02*
X14701215Y-18033912D01*
D13*
X7945200Y-18441000D02*
G75*
G03*
X7945200Y-18441000I-87500J0D01*
G01*
D11*
X8310739Y-18532484D02*
X8196453Y-18532484D01*
X8253596Y-18532484D02*
X8253596Y-18332484D01*
X8253596Y-18332484D02*
X8234548Y-18361055D01*
X8234548Y-18361055D02*
X8215501Y-18380103D01*
X8215501Y-18380103D02*
X8196453Y-18389627D01*
X8396453Y-18513436D02*
X8405977Y-18522960D01*
X8405977Y-18522960D02*
X8396453Y-18532484D01*
X8396453Y-18532484D02*
X8386929Y-18522960D01*
X8386929Y-18522960D02*
X8396453Y-18513436D01*
X8396453Y-18513436D02*
X8396453Y-18532484D01*
X8472644Y-18332484D02*
X8605977Y-18332484D01*
X8605977Y-18332484D02*
X8520263Y-18532484D01*
X8777405Y-18332484D02*
X8682167Y-18332484D01*
X8682167Y-18332484D02*
X8672644Y-18427722D01*
X8672644Y-18427722D02*
X8682167Y-18418198D01*
X8682167Y-18418198D02*
X8701215Y-18408674D01*
X8701215Y-18408674D02*
X8748834Y-18408674D01*
X8748834Y-18408674D02*
X8767882Y-18418198D01*
X8767882Y-18418198D02*
X8777405Y-18427722D01*
X8777405Y-18427722D02*
X8786929Y-18446770D01*
X8786929Y-18446770D02*
X8786929Y-18494389D01*
X8786929Y-18494389D02*
X8777405Y-18513436D01*
X8777405Y-18513436D02*
X8767882Y-18522960D01*
X8767882Y-18522960D02*
X8748834Y-18532484D01*
X8748834Y-18532484D02*
X8701215Y-18532484D01*
X8701215Y-18532484D02*
X8682167Y-18522960D01*
X8682167Y-18522960D02*
X8672644Y-18513436D01*
X8910739Y-18332484D02*
X8929786Y-18332484D01*
X8929786Y-18332484D02*
X8948834Y-18342008D01*
X8948834Y-18342008D02*
X8958358Y-18351531D01*
X8958358Y-18351531D02*
X8967882Y-18370579D01*
X8967882Y-18370579D02*
X8977405Y-18408674D01*
X8977405Y-18408674D02*
X8977405Y-18456293D01*
X8977405Y-18456293D02*
X8967882Y-18494389D01*
X8967882Y-18494389D02*
X8958358Y-18513436D01*
X8958358Y-18513436D02*
X8948834Y-18522960D01*
X8948834Y-18522960D02*
X8929786Y-18532484D01*
X8929786Y-18532484D02*
X8910739Y-18532484D01*
X8910739Y-18532484D02*
X8891691Y-18522960D01*
X8891691Y-18522960D02*
X8882167Y-18513436D01*
X8882167Y-18513436D02*
X8872644Y-18494389D01*
X8872644Y-18494389D02*
X8863120Y-18456293D01*
X8863120Y-18456293D02*
X8863120Y-18408674D01*
X8863120Y-18408674D02*
X8872644Y-18370579D01*
X8872644Y-18370579D02*
X8882167Y-18351531D01*
X8882167Y-18351531D02*
X8891691Y-18342008D01*
X8891691Y-18342008D02*
X8910739Y-18332484D01*
X9063120Y-18532484D02*
X9063120Y-18399150D01*
X9063120Y-18418198D02*
X9072644Y-18408674D01*
X9072644Y-18408674D02*
X9091691Y-18399150D01*
X9091691Y-18399150D02*
X9120263Y-18399150D01*
X9120263Y-18399150D02*
X9139310Y-18408674D01*
X9139310Y-18408674D02*
X9148834Y-18427722D01*
X9148834Y-18427722D02*
X9148834Y-18532484D01*
X9148834Y-18427722D02*
X9158358Y-18408674D01*
X9158358Y-18408674D02*
X9177405Y-18399150D01*
X9177405Y-18399150D02*
X9205977Y-18399150D01*
X9205977Y-18399150D02*
X9225025Y-18408674D01*
X9225025Y-18408674D02*
X9234548Y-18427722D01*
X9234548Y-18427722D02*
X9234548Y-18532484D01*
X9329786Y-18532484D02*
X9329786Y-18399150D01*
X9329786Y-18418198D02*
X9339310Y-18408674D01*
X9339310Y-18408674D02*
X9358358Y-18399150D01*
X9358358Y-18399150D02*
X9386929Y-18399150D01*
X9386929Y-18399150D02*
X9405977Y-18408674D01*
X9405977Y-18408674D02*
X9415501Y-18427722D01*
X9415501Y-18427722D02*
X9415501Y-18532484D01*
X9415501Y-18427722D02*
X9425025Y-18408674D01*
X9425025Y-18408674D02*
X9444072Y-18399150D01*
X9444072Y-18399150D02*
X9472644Y-18399150D01*
X9472644Y-18399150D02*
X9491691Y-18408674D01*
X9491691Y-18408674D02*
X9501215Y-18427722D01*
X9501215Y-18427722D02*
X9501215Y-18532484D01*
X9891691Y-18322960D02*
X9720263Y-18580103D01*
X10148834Y-18332484D02*
X10167882Y-18332484D01*
X10167882Y-18332484D02*
X10186929Y-18342008D01*
X10186929Y-18342008D02*
X10196453Y-18351531D01*
X10196453Y-18351531D02*
X10205977Y-18370579D01*
X10205977Y-18370579D02*
X10215501Y-18408674D01*
X10215501Y-18408674D02*
X10215501Y-18456293D01*
X10215501Y-18456293D02*
X10205977Y-18494389D01*
X10205977Y-18494389D02*
X10196453Y-18513436D01*
X10196453Y-18513436D02*
X10186929Y-18522960D01*
X10186929Y-18522960D02*
X10167882Y-18532484D01*
X10167882Y-18532484D02*
X10148834Y-18532484D01*
X10148834Y-18532484D02*
X10129787Y-18522960D01*
X10129787Y-18522960D02*
X10120263Y-18513436D01*
X10120263Y-18513436D02*
X10110739Y-18494389D01*
X10110739Y-18494389D02*
X10101215Y-18456293D01*
X10101215Y-18456293D02*
X10101215Y-18408674D01*
X10101215Y-18408674D02*
X10110739Y-18370579D01*
X10110739Y-18370579D02*
X10120263Y-18351531D01*
X10120263Y-18351531D02*
X10129787Y-18342008D01*
X10129787Y-18342008D02*
X10148834Y-18332484D01*
X10301215Y-18513436D02*
X10310739Y-18522960D01*
X10310739Y-18522960D02*
X10301215Y-18532484D01*
X10301215Y-18532484D02*
X10291691Y-18522960D01*
X10291691Y-18522960D02*
X10301215Y-18513436D01*
X10301215Y-18513436D02*
X10301215Y-18532484D01*
X10434548Y-18332484D02*
X10453596Y-18332484D01*
X10453596Y-18332484D02*
X10472644Y-18342008D01*
X10472644Y-18342008D02*
X10482168Y-18351531D01*
X10482168Y-18351531D02*
X10491691Y-18370579D01*
X10491691Y-18370579D02*
X10501215Y-18408674D01*
X10501215Y-18408674D02*
X10501215Y-18456293D01*
X10501215Y-18456293D02*
X10491691Y-18494389D01*
X10491691Y-18494389D02*
X10482168Y-18513436D01*
X10482168Y-18513436D02*
X10472644Y-18522960D01*
X10472644Y-18522960D02*
X10453596Y-18532484D01*
X10453596Y-18532484D02*
X10434548Y-18532484D01*
X10434548Y-18532484D02*
X10415501Y-18522960D01*
X10415501Y-18522960D02*
X10405977Y-18513436D01*
X10405977Y-18513436D02*
X10396453Y-18494389D01*
X10396453Y-18494389D02*
X10386929Y-18456293D01*
X10386929Y-18456293D02*
X10386929Y-18408674D01*
X10386929Y-18408674D02*
X10396453Y-18370579D01*
X10396453Y-18370579D02*
X10405977Y-18351531D01*
X10405977Y-18351531D02*
X10415501Y-18342008D01*
X10415501Y-18342008D02*
X10434548Y-18332484D01*
X10672644Y-18332484D02*
X10634548Y-18332484D01*
X10634548Y-18332484D02*
X10615501Y-18342008D01*
X10615501Y-18342008D02*
X10605977Y-18351531D01*
X10605977Y-18351531D02*
X10586929Y-18380103D01*
X10586929Y-18380103D02*
X10577406Y-18418198D01*
X10577406Y-18418198D02*
X10577406Y-18494389D01*
X10577406Y-18494389D02*
X10586929Y-18513436D01*
X10586929Y-18513436D02*
X10596453Y-18522960D01*
X10596453Y-18522960D02*
X10615501Y-18532484D01*
X10615501Y-18532484D02*
X10653596Y-18532484D01*
X10653596Y-18532484D02*
X10672644Y-18522960D01*
X10672644Y-18522960D02*
X10682168Y-18513436D01*
X10682168Y-18513436D02*
X10691691Y-18494389D01*
X10691691Y-18494389D02*
X10691691Y-18446770D01*
X10691691Y-18446770D02*
X10682168Y-18427722D01*
X10682168Y-18427722D02*
X10672644Y-18418198D01*
X10672644Y-18418198D02*
X10653596Y-18408674D01*
X10653596Y-18408674D02*
X10615501Y-18408674D01*
X10615501Y-18408674D02*
X10596453Y-18418198D01*
X10596453Y-18418198D02*
X10586929Y-18427722D01*
X10586929Y-18427722D02*
X10577406Y-18446770D01*
X10805977Y-18418198D02*
X10786929Y-18408674D01*
X10786929Y-18408674D02*
X10777406Y-18399150D01*
X10777406Y-18399150D02*
X10767882Y-18380103D01*
X10767882Y-18380103D02*
X10767882Y-18370579D01*
X10767882Y-18370579D02*
X10777406Y-18351531D01*
X10777406Y-18351531D02*
X10786929Y-18342008D01*
X10786929Y-18342008D02*
X10805977Y-18332484D01*
X10805977Y-18332484D02*
X10844072Y-18332484D01*
X10844072Y-18332484D02*
X10863120Y-18342008D01*
X10863120Y-18342008D02*
X10872644Y-18351531D01*
X10872644Y-18351531D02*
X10882168Y-18370579D01*
X10882168Y-18370579D02*
X10882168Y-18380103D01*
X10882168Y-18380103D02*
X10872644Y-18399150D01*
X10872644Y-18399150D02*
X10863120Y-18408674D01*
X10863120Y-18408674D02*
X10844072Y-18418198D01*
X10844072Y-18418198D02*
X10805977Y-18418198D01*
X10805977Y-18418198D02*
X10786929Y-18427722D01*
X10786929Y-18427722D02*
X10777406Y-18437246D01*
X10777406Y-18437246D02*
X10767882Y-18456293D01*
X10767882Y-18456293D02*
X10767882Y-18494389D01*
X10767882Y-18494389D02*
X10777406Y-18513436D01*
X10777406Y-18513436D02*
X10786929Y-18522960D01*
X10786929Y-18522960D02*
X10805977Y-18532484D01*
X10805977Y-18532484D02*
X10844072Y-18532484D01*
X10844072Y-18532484D02*
X10863120Y-18522960D01*
X10863120Y-18522960D02*
X10872644Y-18513436D01*
X10872644Y-18513436D02*
X10882168Y-18494389D01*
X10882168Y-18494389D02*
X10882168Y-18456293D01*
X10882168Y-18456293D02*
X10872644Y-18437246D01*
X10872644Y-18437246D02*
X10863120Y-18427722D01*
X10863120Y-18427722D02*
X10844072Y-18418198D01*
X10977406Y-18532484D02*
X11015501Y-18532484D01*
X11015501Y-18532484D02*
X11034549Y-18522960D01*
X11034549Y-18522960D02*
X11044072Y-18513436D01*
X11044072Y-18513436D02*
X11063120Y-18484865D01*
X11063120Y-18484865D02*
X11072644Y-18446770D01*
X11072644Y-18446770D02*
X11072644Y-18370579D01*
X11072644Y-18370579D02*
X11063120Y-18351531D01*
X11063120Y-18351531D02*
X11053596Y-18342008D01*
X11053596Y-18342008D02*
X11034549Y-18332484D01*
X11034549Y-18332484D02*
X10996453Y-18332484D01*
X10996453Y-18332484D02*
X10977406Y-18342008D01*
X10977406Y-18342008D02*
X10967882Y-18351531D01*
X10967882Y-18351531D02*
X10958358Y-18370579D01*
X10958358Y-18370579D02*
X10958358Y-18418198D01*
X10958358Y-18418198D02*
X10967882Y-18437246D01*
X10967882Y-18437246D02*
X10977406Y-18446770D01*
X10977406Y-18446770D02*
X10996453Y-18456293D01*
X10996453Y-18456293D02*
X11034549Y-18456293D01*
X11034549Y-18456293D02*
X11053596Y-18446770D01*
X11053596Y-18446770D02*
X11063120Y-18437246D01*
X11063120Y-18437246D02*
X11072644Y-18418198D01*
X11148834Y-18332484D02*
X11148834Y-18370579D01*
X11225025Y-18332484D02*
X11225025Y-18370579D01*
X11520263Y-18608674D02*
X11510739Y-18599150D01*
X11510739Y-18599150D02*
X11491691Y-18570579D01*
X11491691Y-18570579D02*
X11482168Y-18551531D01*
X11482168Y-18551531D02*
X11472644Y-18522960D01*
X11472644Y-18522960D02*
X11463120Y-18475341D01*
X11463120Y-18475341D02*
X11463120Y-18437246D01*
X11463120Y-18437246D02*
X11472644Y-18389627D01*
X11472644Y-18389627D02*
X11482168Y-18361055D01*
X11482168Y-18361055D02*
X11491691Y-18342008D01*
X11491691Y-18342008D02*
X11510739Y-18313436D01*
X11510739Y-18313436D02*
X11520263Y-18303912D01*
X11577406Y-18332484D02*
X11710739Y-18332484D01*
X11710739Y-18332484D02*
X11625025Y-18532484D01*
X11825025Y-18332484D02*
X11844072Y-18332484D01*
X11844072Y-18332484D02*
X11863120Y-18342008D01*
X11863120Y-18342008D02*
X11872644Y-18351531D01*
X11872644Y-18351531D02*
X11882168Y-18370579D01*
X11882168Y-18370579D02*
X11891691Y-18408674D01*
X11891691Y-18408674D02*
X11891691Y-18456293D01*
X11891691Y-18456293D02*
X11882168Y-18494389D01*
X11882168Y-18494389D02*
X11872644Y-18513436D01*
X11872644Y-18513436D02*
X11863120Y-18522960D01*
X11863120Y-18522960D02*
X11844072Y-18532484D01*
X11844072Y-18532484D02*
X11825025Y-18532484D01*
X11825025Y-18532484D02*
X11805977Y-18522960D01*
X11805977Y-18522960D02*
X11796453Y-18513436D01*
X11796453Y-18513436D02*
X11786929Y-18494389D01*
X11786929Y-18494389D02*
X11777406Y-18456293D01*
X11777406Y-18456293D02*
X11777406Y-18408674D01*
X11777406Y-18408674D02*
X11786929Y-18370579D01*
X11786929Y-18370579D02*
X11796453Y-18351531D01*
X11796453Y-18351531D02*
X11805977Y-18342008D01*
X11805977Y-18342008D02*
X11825025Y-18332484D01*
X12129787Y-18532484D02*
X12129787Y-18332484D01*
X12215501Y-18532484D02*
X12215501Y-18427722D01*
X12215501Y-18427722D02*
X12205977Y-18408674D01*
X12205977Y-18408674D02*
X12186930Y-18399150D01*
X12186930Y-18399150D02*
X12158358Y-18399150D01*
X12158358Y-18399150D02*
X12139310Y-18408674D01*
X12139310Y-18408674D02*
X12129787Y-18418198D01*
X12339310Y-18532484D02*
X12320263Y-18522960D01*
X12320263Y-18522960D02*
X12310739Y-18513436D01*
X12310739Y-18513436D02*
X12301215Y-18494389D01*
X12301215Y-18494389D02*
X12301215Y-18437246D01*
X12301215Y-18437246D02*
X12310739Y-18418198D01*
X12310739Y-18418198D02*
X12320263Y-18408674D01*
X12320263Y-18408674D02*
X12339310Y-18399150D01*
X12339310Y-18399150D02*
X12367882Y-18399150D01*
X12367882Y-18399150D02*
X12386930Y-18408674D01*
X12386930Y-18408674D02*
X12396453Y-18418198D01*
X12396453Y-18418198D02*
X12405977Y-18437246D01*
X12405977Y-18437246D02*
X12405977Y-18494389D01*
X12405977Y-18494389D02*
X12396453Y-18513436D01*
X12396453Y-18513436D02*
X12386930Y-18522960D01*
X12386930Y-18522960D02*
X12367882Y-18532484D01*
X12367882Y-18532484D02*
X12339310Y-18532484D01*
X12520263Y-18532484D02*
X12501215Y-18522960D01*
X12501215Y-18522960D02*
X12491691Y-18503912D01*
X12491691Y-18503912D02*
X12491691Y-18332484D01*
X12672644Y-18522960D02*
X12653596Y-18532484D01*
X12653596Y-18532484D02*
X12615501Y-18532484D01*
X12615501Y-18532484D02*
X12596453Y-18522960D01*
X12596453Y-18522960D02*
X12586930Y-18503912D01*
X12586930Y-18503912D02*
X12586930Y-18427722D01*
X12586930Y-18427722D02*
X12596453Y-18408674D01*
X12596453Y-18408674D02*
X12615501Y-18399150D01*
X12615501Y-18399150D02*
X12653596Y-18399150D01*
X12653596Y-18399150D02*
X12672644Y-18408674D01*
X12672644Y-18408674D02*
X12682168Y-18427722D01*
X12682168Y-18427722D02*
X12682168Y-18446770D01*
X12682168Y-18446770D02*
X12586930Y-18465817D01*
X12758358Y-18522960D02*
X12777406Y-18532484D01*
X12777406Y-18532484D02*
X12815501Y-18532484D01*
X12815501Y-18532484D02*
X12834549Y-18522960D01*
X12834549Y-18522960D02*
X12844072Y-18503912D01*
X12844072Y-18503912D02*
X12844072Y-18494389D01*
X12844072Y-18494389D02*
X12834549Y-18475341D01*
X12834549Y-18475341D02*
X12815501Y-18465817D01*
X12815501Y-18465817D02*
X12786930Y-18465817D01*
X12786930Y-18465817D02*
X12767882Y-18456293D01*
X12767882Y-18456293D02*
X12758358Y-18437246D01*
X12758358Y-18437246D02*
X12758358Y-18427722D01*
X12758358Y-18427722D02*
X12767882Y-18408674D01*
X12767882Y-18408674D02*
X12786930Y-18399150D01*
X12786930Y-18399150D02*
X12815501Y-18399150D01*
X12815501Y-18399150D02*
X12834549Y-18408674D01*
X12910739Y-18608674D02*
X12920263Y-18599150D01*
X12920263Y-18599150D02*
X12939311Y-18570579D01*
X12939311Y-18570579D02*
X12948834Y-18551531D01*
X12948834Y-18551531D02*
X12958358Y-18522960D01*
X12958358Y-18522960D02*
X12967882Y-18475341D01*
X12967882Y-18475341D02*
X12967882Y-18437246D01*
X12967882Y-18437246D02*
X12958358Y-18389627D01*
X12958358Y-18389627D02*
X12948834Y-18361055D01*
X12948834Y-18361055D02*
X12939311Y-18342008D01*
X12939311Y-18342008D02*
X12920263Y-18313436D01*
X12920263Y-18313436D02*
X12910739Y-18303912D01*
X13272644Y-18608674D02*
X13263120Y-18599150D01*
X13263120Y-18599150D02*
X13244072Y-18570579D01*
X13244072Y-18570579D02*
X13234549Y-18551531D01*
X13234549Y-18551531D02*
X13225025Y-18522960D01*
X13225025Y-18522960D02*
X13215501Y-18475341D01*
X13215501Y-18475341D02*
X13215501Y-18437246D01*
X13215501Y-18437246D02*
X13225025Y-18389627D01*
X13225025Y-18389627D02*
X13234549Y-18361055D01*
X13234549Y-18361055D02*
X13244072Y-18342008D01*
X13244072Y-18342008D02*
X13263120Y-18313436D01*
X13263120Y-18313436D02*
X13272644Y-18303912D01*
X13348834Y-18399150D02*
X13348834Y-18532484D01*
X13348834Y-18418198D02*
X13358358Y-18408674D01*
X13358358Y-18408674D02*
X13377406Y-18399150D01*
X13377406Y-18399150D02*
X13405977Y-18399150D01*
X13405977Y-18399150D02*
X13425025Y-18408674D01*
X13425025Y-18408674D02*
X13434549Y-18427722D01*
X13434549Y-18427722D02*
X13434549Y-18532484D01*
X13558358Y-18532484D02*
X13539311Y-18522960D01*
X13539311Y-18522960D02*
X13529787Y-18513436D01*
X13529787Y-18513436D02*
X13520263Y-18494389D01*
X13520263Y-18494389D02*
X13520263Y-18437246D01*
X13520263Y-18437246D02*
X13529787Y-18418198D01*
X13529787Y-18418198D02*
X13539311Y-18408674D01*
X13539311Y-18408674D02*
X13558358Y-18399150D01*
X13558358Y-18399150D02*
X13586930Y-18399150D01*
X13586930Y-18399150D02*
X13605977Y-18408674D01*
X13605977Y-18408674D02*
X13615501Y-18418198D01*
X13615501Y-18418198D02*
X13625025Y-18437246D01*
X13625025Y-18437246D02*
X13625025Y-18494389D01*
X13625025Y-18494389D02*
X13615501Y-18513436D01*
X13615501Y-18513436D02*
X13605977Y-18522960D01*
X13605977Y-18522960D02*
X13586930Y-18532484D01*
X13586930Y-18532484D02*
X13558358Y-18532484D01*
X13682168Y-18399150D02*
X13758358Y-18399150D01*
X13710739Y-18332484D02*
X13710739Y-18503912D01*
X13710739Y-18503912D02*
X13720263Y-18522960D01*
X13720263Y-18522960D02*
X13739311Y-18532484D01*
X13739311Y-18532484D02*
X13758358Y-18532484D01*
X13977406Y-18399150D02*
X13977406Y-18599150D01*
X13977406Y-18408674D02*
X13996453Y-18399150D01*
X13996453Y-18399150D02*
X14034549Y-18399150D01*
X14034549Y-18399150D02*
X14053596Y-18408674D01*
X14053596Y-18408674D02*
X14063120Y-18418198D01*
X14063120Y-18418198D02*
X14072644Y-18437246D01*
X14072644Y-18437246D02*
X14072644Y-18494389D01*
X14072644Y-18494389D02*
X14063120Y-18513436D01*
X14063120Y-18513436D02*
X14053596Y-18522960D01*
X14053596Y-18522960D02*
X14034549Y-18532484D01*
X14034549Y-18532484D02*
X13996453Y-18532484D01*
X13996453Y-18532484D02*
X13977406Y-18522960D01*
X14186930Y-18532484D02*
X14167882Y-18522960D01*
X14167882Y-18522960D02*
X14158358Y-18503912D01*
X14158358Y-18503912D02*
X14158358Y-18332484D01*
X14348834Y-18532484D02*
X14348834Y-18427722D01*
X14348834Y-18427722D02*
X14339311Y-18408674D01*
X14339311Y-18408674D02*
X14320263Y-18399150D01*
X14320263Y-18399150D02*
X14282168Y-18399150D01*
X14282168Y-18399150D02*
X14263120Y-18408674D01*
X14348834Y-18522960D02*
X14329787Y-18532484D01*
X14329787Y-18532484D02*
X14282168Y-18532484D01*
X14282168Y-18532484D02*
X14263120Y-18522960D01*
X14263120Y-18522960D02*
X14253596Y-18503912D01*
X14253596Y-18503912D02*
X14253596Y-18484865D01*
X14253596Y-18484865D02*
X14263120Y-18465817D01*
X14263120Y-18465817D02*
X14282168Y-18456293D01*
X14282168Y-18456293D02*
X14329787Y-18456293D01*
X14329787Y-18456293D02*
X14348834Y-18446770D01*
X14415501Y-18399150D02*
X14491692Y-18399150D01*
X14444073Y-18332484D02*
X14444073Y-18503912D01*
X14444073Y-18503912D02*
X14453596Y-18522960D01*
X14453596Y-18522960D02*
X14472644Y-18532484D01*
X14472644Y-18532484D02*
X14491692Y-18532484D01*
X14634549Y-18522960D02*
X14615501Y-18532484D01*
X14615501Y-18532484D02*
X14577406Y-18532484D01*
X14577406Y-18532484D02*
X14558358Y-18522960D01*
X14558358Y-18522960D02*
X14548834Y-18503912D01*
X14548834Y-18503912D02*
X14548834Y-18427722D01*
X14548834Y-18427722D02*
X14558358Y-18408674D01*
X14558358Y-18408674D02*
X14577406Y-18399150D01*
X14577406Y-18399150D02*
X14615501Y-18399150D01*
X14615501Y-18399150D02*
X14634549Y-18408674D01*
X14634549Y-18408674D02*
X14644073Y-18427722D01*
X14644073Y-18427722D02*
X14644073Y-18446770D01*
X14644073Y-18446770D02*
X14548834Y-18465817D01*
X14815501Y-18532484D02*
X14815501Y-18332484D01*
X14815501Y-18522960D02*
X14796454Y-18532484D01*
X14796454Y-18532484D02*
X14758358Y-18532484D01*
X14758358Y-18532484D02*
X14739311Y-18522960D01*
X14739311Y-18522960D02*
X14729787Y-18513436D01*
X14729787Y-18513436D02*
X14720263Y-18494389D01*
X14720263Y-18494389D02*
X14720263Y-18437246D01*
X14720263Y-18437246D02*
X14729787Y-18418198D01*
X14729787Y-18418198D02*
X14739311Y-18408674D01*
X14739311Y-18408674D02*
X14758358Y-18399150D01*
X14758358Y-18399150D02*
X14796454Y-18399150D01*
X14796454Y-18399150D02*
X14815501Y-18408674D01*
X14891692Y-18608674D02*
X14901215Y-18599150D01*
X14901215Y-18599150D02*
X14920263Y-18570579D01*
X14920263Y-18570579D02*
X14929787Y-18551531D01*
X14929787Y-18551531D02*
X14939311Y-18522960D01*
X14939311Y-18522960D02*
X14948834Y-18475341D01*
X14948834Y-18475341D02*
X14948834Y-18437246D01*
X14948834Y-18437246D02*
X14939311Y-18389627D01*
X14939311Y-18389627D02*
X14929787Y-18361055D01*
X14929787Y-18361055D02*
X14920263Y-18342008D01*
X14920263Y-18342008D02*
X14901215Y-18313436D01*
X14901215Y-18313436D02*
X14891692Y-18303912D01*
X7845200Y-18636000D02*
X7845200Y-18836000D01*
X7745200Y-18736000D02*
X7945200Y-18736000D01*
X8186929Y-18627484D02*
X8310739Y-18627484D01*
X8310739Y-18627484D02*
X8244072Y-18703674D01*
X8244072Y-18703674D02*
X8272643Y-18703674D01*
X8272643Y-18703674D02*
X8291691Y-18713198D01*
X8291691Y-18713198D02*
X8301215Y-18722722D01*
X8301215Y-18722722D02*
X8310739Y-18741770D01*
X8310739Y-18741770D02*
X8310739Y-18789389D01*
X8310739Y-18789389D02*
X8301215Y-18808436D01*
X8301215Y-18808436D02*
X8291691Y-18817960D01*
X8291691Y-18817960D02*
X8272643Y-18827484D01*
X8272643Y-18827484D02*
X8215501Y-18827484D01*
X8215501Y-18827484D02*
X8196453Y-18817960D01*
X8196453Y-18817960D02*
X8186929Y-18808436D01*
X8396453Y-18808436D02*
X8405977Y-18817960D01*
X8405977Y-18817960D02*
X8396453Y-18827484D01*
X8396453Y-18827484D02*
X8386929Y-18817960D01*
X8386929Y-18817960D02*
X8396453Y-18808436D01*
X8396453Y-18808436D02*
X8396453Y-18827484D01*
X8529786Y-18627484D02*
X8548834Y-18627484D01*
X8548834Y-18627484D02*
X8567882Y-18637008D01*
X8567882Y-18637008D02*
X8577405Y-18646531D01*
X8577405Y-18646531D02*
X8586929Y-18665579D01*
X8586929Y-18665579D02*
X8596453Y-18703674D01*
X8596453Y-18703674D02*
X8596453Y-18751293D01*
X8596453Y-18751293D02*
X8586929Y-18789389D01*
X8586929Y-18789389D02*
X8577405Y-18808436D01*
X8577405Y-18808436D02*
X8567882Y-18817960D01*
X8567882Y-18817960D02*
X8548834Y-18827484D01*
X8548834Y-18827484D02*
X8529786Y-18827484D01*
X8529786Y-18827484D02*
X8510739Y-18817960D01*
X8510739Y-18817960D02*
X8501215Y-18808436D01*
X8501215Y-18808436D02*
X8491691Y-18789389D01*
X8491691Y-18789389D02*
X8482167Y-18751293D01*
X8482167Y-18751293D02*
X8482167Y-18703674D01*
X8482167Y-18703674D02*
X8491691Y-18665579D01*
X8491691Y-18665579D02*
X8501215Y-18646531D01*
X8501215Y-18646531D02*
X8510739Y-18637008D01*
X8510739Y-18637008D02*
X8529786Y-18627484D01*
X8777405Y-18627484D02*
X8682167Y-18627484D01*
X8682167Y-18627484D02*
X8672644Y-18722722D01*
X8672644Y-18722722D02*
X8682167Y-18713198D01*
X8682167Y-18713198D02*
X8701215Y-18703674D01*
X8701215Y-18703674D02*
X8748834Y-18703674D01*
X8748834Y-18703674D02*
X8767882Y-18713198D01*
X8767882Y-18713198D02*
X8777405Y-18722722D01*
X8777405Y-18722722D02*
X8786929Y-18741770D01*
X8786929Y-18741770D02*
X8786929Y-18789389D01*
X8786929Y-18789389D02*
X8777405Y-18808436D01*
X8777405Y-18808436D02*
X8767882Y-18817960D01*
X8767882Y-18817960D02*
X8748834Y-18827484D01*
X8748834Y-18827484D02*
X8701215Y-18827484D01*
X8701215Y-18827484D02*
X8682167Y-18817960D01*
X8682167Y-18817960D02*
X8672644Y-18808436D01*
X8910739Y-18627484D02*
X8929786Y-18627484D01*
X8929786Y-18627484D02*
X8948834Y-18637008D01*
X8948834Y-18637008D02*
X8958358Y-18646531D01*
X8958358Y-18646531D02*
X8967882Y-18665579D01*
X8967882Y-18665579D02*
X8977405Y-18703674D01*
X8977405Y-18703674D02*
X8977405Y-18751293D01*
X8977405Y-18751293D02*
X8967882Y-18789389D01*
X8967882Y-18789389D02*
X8958358Y-18808436D01*
X8958358Y-18808436D02*
X8948834Y-18817960D01*
X8948834Y-18817960D02*
X8929786Y-18827484D01*
X8929786Y-18827484D02*
X8910739Y-18827484D01*
X8910739Y-18827484D02*
X8891691Y-18817960D01*
X8891691Y-18817960D02*
X8882167Y-18808436D01*
X8882167Y-18808436D02*
X8872644Y-18789389D01*
X8872644Y-18789389D02*
X8863120Y-18751293D01*
X8863120Y-18751293D02*
X8863120Y-18703674D01*
X8863120Y-18703674D02*
X8872644Y-18665579D01*
X8872644Y-18665579D02*
X8882167Y-18646531D01*
X8882167Y-18646531D02*
X8891691Y-18637008D01*
X8891691Y-18637008D02*
X8910739Y-18627484D01*
X9063120Y-18827484D02*
X9063120Y-18694150D01*
X9063120Y-18713198D02*
X9072644Y-18703674D01*
X9072644Y-18703674D02*
X9091691Y-18694150D01*
X9091691Y-18694150D02*
X9120263Y-18694150D01*
X9120263Y-18694150D02*
X9139310Y-18703674D01*
X9139310Y-18703674D02*
X9148834Y-18722722D01*
X9148834Y-18722722D02*
X9148834Y-18827484D01*
X9148834Y-18722722D02*
X9158358Y-18703674D01*
X9158358Y-18703674D02*
X9177405Y-18694150D01*
X9177405Y-18694150D02*
X9205977Y-18694150D01*
X9205977Y-18694150D02*
X9225025Y-18703674D01*
X9225025Y-18703674D02*
X9234548Y-18722722D01*
X9234548Y-18722722D02*
X9234548Y-18827484D01*
X9329786Y-18827484D02*
X9329786Y-18694150D01*
X9329786Y-18713198D02*
X9339310Y-18703674D01*
X9339310Y-18703674D02*
X9358358Y-18694150D01*
X9358358Y-18694150D02*
X9386929Y-18694150D01*
X9386929Y-18694150D02*
X9405977Y-18703674D01*
X9405977Y-18703674D02*
X9415501Y-18722722D01*
X9415501Y-18722722D02*
X9415501Y-18827484D01*
X9415501Y-18722722D02*
X9425025Y-18703674D01*
X9425025Y-18703674D02*
X9444072Y-18694150D01*
X9444072Y-18694150D02*
X9472644Y-18694150D01*
X9472644Y-18694150D02*
X9491691Y-18703674D01*
X9491691Y-18703674D02*
X9501215Y-18722722D01*
X9501215Y-18722722D02*
X9501215Y-18827484D01*
X9891691Y-18617960D02*
X9720263Y-18875103D01*
X10148834Y-18627484D02*
X10167882Y-18627484D01*
X10167882Y-18627484D02*
X10186929Y-18637008D01*
X10186929Y-18637008D02*
X10196453Y-18646531D01*
X10196453Y-18646531D02*
X10205977Y-18665579D01*
X10205977Y-18665579D02*
X10215501Y-18703674D01*
X10215501Y-18703674D02*
X10215501Y-18751293D01*
X10215501Y-18751293D02*
X10205977Y-18789389D01*
X10205977Y-18789389D02*
X10196453Y-18808436D01*
X10196453Y-18808436D02*
X10186929Y-18817960D01*
X10186929Y-18817960D02*
X10167882Y-18827484D01*
X10167882Y-18827484D02*
X10148834Y-18827484D01*
X10148834Y-18827484D02*
X10129787Y-18817960D01*
X10129787Y-18817960D02*
X10120263Y-18808436D01*
X10120263Y-18808436D02*
X10110739Y-18789389D01*
X10110739Y-18789389D02*
X10101215Y-18751293D01*
X10101215Y-18751293D02*
X10101215Y-18703674D01*
X10101215Y-18703674D02*
X10110739Y-18665579D01*
X10110739Y-18665579D02*
X10120263Y-18646531D01*
X10120263Y-18646531D02*
X10129787Y-18637008D01*
X10129787Y-18637008D02*
X10148834Y-18627484D01*
X10301215Y-18808436D02*
X10310739Y-18817960D01*
X10310739Y-18817960D02*
X10301215Y-18827484D01*
X10301215Y-18827484D02*
X10291691Y-18817960D01*
X10291691Y-18817960D02*
X10301215Y-18808436D01*
X10301215Y-18808436D02*
X10301215Y-18827484D01*
X10501215Y-18827484D02*
X10386929Y-18827484D01*
X10444072Y-18827484D02*
X10444072Y-18627484D01*
X10444072Y-18627484D02*
X10425025Y-18656055D01*
X10425025Y-18656055D02*
X10405977Y-18675103D01*
X10405977Y-18675103D02*
X10386929Y-18684627D01*
X10577406Y-18646531D02*
X10586929Y-18637008D01*
X10586929Y-18637008D02*
X10605977Y-18627484D01*
X10605977Y-18627484D02*
X10653596Y-18627484D01*
X10653596Y-18627484D02*
X10672644Y-18637008D01*
X10672644Y-18637008D02*
X10682168Y-18646531D01*
X10682168Y-18646531D02*
X10691691Y-18665579D01*
X10691691Y-18665579D02*
X10691691Y-18684627D01*
X10691691Y-18684627D02*
X10682168Y-18713198D01*
X10682168Y-18713198D02*
X10567882Y-18827484D01*
X10567882Y-18827484D02*
X10691691Y-18827484D01*
X10815501Y-18627484D02*
X10834549Y-18627484D01*
X10834549Y-18627484D02*
X10853596Y-18637008D01*
X10853596Y-18637008D02*
X10863120Y-18646531D01*
X10863120Y-18646531D02*
X10872644Y-18665579D01*
X10872644Y-18665579D02*
X10882168Y-18703674D01*
X10882168Y-18703674D02*
X10882168Y-18751293D01*
X10882168Y-18751293D02*
X10872644Y-18789389D01*
X10872644Y-18789389D02*
X10863120Y-18808436D01*
X10863120Y-18808436D02*
X10853596Y-18817960D01*
X10853596Y-18817960D02*
X10834549Y-18827484D01*
X10834549Y-18827484D02*
X10815501Y-18827484D01*
X10815501Y-18827484D02*
X10796453Y-18817960D01*
X10796453Y-18817960D02*
X10786929Y-18808436D01*
X10786929Y-18808436D02*
X10777406Y-18789389D01*
X10777406Y-18789389D02*
X10767882Y-18751293D01*
X10767882Y-18751293D02*
X10767882Y-18703674D01*
X10767882Y-18703674D02*
X10777406Y-18665579D01*
X10777406Y-18665579D02*
X10786929Y-18646531D01*
X10786929Y-18646531D02*
X10796453Y-18637008D01*
X10796453Y-18637008D02*
X10815501Y-18627484D01*
X11072644Y-18827484D02*
X10958358Y-18827484D01*
X11015501Y-18827484D02*
X11015501Y-18627484D01*
X11015501Y-18627484D02*
X10996453Y-18656055D01*
X10996453Y-18656055D02*
X10977406Y-18675103D01*
X10977406Y-18675103D02*
X10958358Y-18684627D01*
X11148834Y-18627484D02*
X11148834Y-18665579D01*
X11225025Y-18627484D02*
X11225025Y-18665579D01*
X11520263Y-18903674D02*
X11510739Y-18894150D01*
X11510739Y-18894150D02*
X11491691Y-18865579D01*
X11491691Y-18865579D02*
X11482168Y-18846531D01*
X11482168Y-18846531D02*
X11472644Y-18817960D01*
X11472644Y-18817960D02*
X11463120Y-18770341D01*
X11463120Y-18770341D02*
X11463120Y-18732246D01*
X11463120Y-18732246D02*
X11472644Y-18684627D01*
X11472644Y-18684627D02*
X11482168Y-18656055D01*
X11482168Y-18656055D02*
X11491691Y-18637008D01*
X11491691Y-18637008D02*
X11510739Y-18608436D01*
X11510739Y-18608436D02*
X11520263Y-18598912D01*
X11577406Y-18627484D02*
X11710739Y-18627484D01*
X11710739Y-18627484D02*
X11625025Y-18827484D01*
X11825025Y-18627484D02*
X11844072Y-18627484D01*
X11844072Y-18627484D02*
X11863120Y-18637008D01*
X11863120Y-18637008D02*
X11872644Y-18646531D01*
X11872644Y-18646531D02*
X11882168Y-18665579D01*
X11882168Y-18665579D02*
X11891691Y-18703674D01*
X11891691Y-18703674D02*
X11891691Y-18751293D01*
X11891691Y-18751293D02*
X11882168Y-18789389D01*
X11882168Y-18789389D02*
X11872644Y-18808436D01*
X11872644Y-18808436D02*
X11863120Y-18817960D01*
X11863120Y-18817960D02*
X11844072Y-18827484D01*
X11844072Y-18827484D02*
X11825025Y-18827484D01*
X11825025Y-18827484D02*
X11805977Y-18817960D01*
X11805977Y-18817960D02*
X11796453Y-18808436D01*
X11796453Y-18808436D02*
X11786929Y-18789389D01*
X11786929Y-18789389D02*
X11777406Y-18751293D01*
X11777406Y-18751293D02*
X11777406Y-18703674D01*
X11777406Y-18703674D02*
X11786929Y-18665579D01*
X11786929Y-18665579D02*
X11796453Y-18646531D01*
X11796453Y-18646531D02*
X11805977Y-18637008D01*
X11805977Y-18637008D02*
X11825025Y-18627484D01*
X12129787Y-18827484D02*
X12129787Y-18627484D01*
X12215501Y-18827484D02*
X12215501Y-18722722D01*
X12215501Y-18722722D02*
X12205977Y-18703674D01*
X12205977Y-18703674D02*
X12186930Y-18694150D01*
X12186930Y-18694150D02*
X12158358Y-18694150D01*
X12158358Y-18694150D02*
X12139310Y-18703674D01*
X12139310Y-18703674D02*
X12129787Y-18713198D01*
X12339310Y-18827484D02*
X12320263Y-18817960D01*
X12320263Y-18817960D02*
X12310739Y-18808436D01*
X12310739Y-18808436D02*
X12301215Y-18789389D01*
X12301215Y-18789389D02*
X12301215Y-18732246D01*
X12301215Y-18732246D02*
X12310739Y-18713198D01*
X12310739Y-18713198D02*
X12320263Y-18703674D01*
X12320263Y-18703674D02*
X12339310Y-18694150D01*
X12339310Y-18694150D02*
X12367882Y-18694150D01*
X12367882Y-18694150D02*
X12386930Y-18703674D01*
X12386930Y-18703674D02*
X12396453Y-18713198D01*
X12396453Y-18713198D02*
X12405977Y-18732246D01*
X12405977Y-18732246D02*
X12405977Y-18789389D01*
X12405977Y-18789389D02*
X12396453Y-18808436D01*
X12396453Y-18808436D02*
X12386930Y-18817960D01*
X12386930Y-18817960D02*
X12367882Y-18827484D01*
X12367882Y-18827484D02*
X12339310Y-18827484D01*
X12520263Y-18827484D02*
X12501215Y-18817960D01*
X12501215Y-18817960D02*
X12491691Y-18798912D01*
X12491691Y-18798912D02*
X12491691Y-18627484D01*
X12672644Y-18817960D02*
X12653596Y-18827484D01*
X12653596Y-18827484D02*
X12615501Y-18827484D01*
X12615501Y-18827484D02*
X12596453Y-18817960D01*
X12596453Y-18817960D02*
X12586930Y-18798912D01*
X12586930Y-18798912D02*
X12586930Y-18722722D01*
X12586930Y-18722722D02*
X12596453Y-18703674D01*
X12596453Y-18703674D02*
X12615501Y-18694150D01*
X12615501Y-18694150D02*
X12653596Y-18694150D01*
X12653596Y-18694150D02*
X12672644Y-18703674D01*
X12672644Y-18703674D02*
X12682168Y-18722722D01*
X12682168Y-18722722D02*
X12682168Y-18741770D01*
X12682168Y-18741770D02*
X12586930Y-18760817D01*
X12758358Y-18817960D02*
X12777406Y-18827484D01*
X12777406Y-18827484D02*
X12815501Y-18827484D01*
X12815501Y-18827484D02*
X12834549Y-18817960D01*
X12834549Y-18817960D02*
X12844072Y-18798912D01*
X12844072Y-18798912D02*
X12844072Y-18789389D01*
X12844072Y-18789389D02*
X12834549Y-18770341D01*
X12834549Y-18770341D02*
X12815501Y-18760817D01*
X12815501Y-18760817D02*
X12786930Y-18760817D01*
X12786930Y-18760817D02*
X12767882Y-18751293D01*
X12767882Y-18751293D02*
X12758358Y-18732246D01*
X12758358Y-18732246D02*
X12758358Y-18722722D01*
X12758358Y-18722722D02*
X12767882Y-18703674D01*
X12767882Y-18703674D02*
X12786930Y-18694150D01*
X12786930Y-18694150D02*
X12815501Y-18694150D01*
X12815501Y-18694150D02*
X12834549Y-18703674D01*
X12910739Y-18903674D02*
X12920263Y-18894150D01*
X12920263Y-18894150D02*
X12939311Y-18865579D01*
X12939311Y-18865579D02*
X12948834Y-18846531D01*
X12948834Y-18846531D02*
X12958358Y-18817960D01*
X12958358Y-18817960D02*
X12967882Y-18770341D01*
X12967882Y-18770341D02*
X12967882Y-18732246D01*
X12967882Y-18732246D02*
X12958358Y-18684627D01*
X12958358Y-18684627D02*
X12948834Y-18656055D01*
X12948834Y-18656055D02*
X12939311Y-18637008D01*
X12939311Y-18637008D02*
X12920263Y-18608436D01*
X12920263Y-18608436D02*
X12910739Y-18598912D01*
X13272644Y-18903674D02*
X13263120Y-18894150D01*
X13263120Y-18894150D02*
X13244072Y-18865579D01*
X13244072Y-18865579D02*
X13234549Y-18846531D01*
X13234549Y-18846531D02*
X13225025Y-18817960D01*
X13225025Y-18817960D02*
X13215501Y-18770341D01*
X13215501Y-18770341D02*
X13215501Y-18732246D01*
X13215501Y-18732246D02*
X13225025Y-18684627D01*
X13225025Y-18684627D02*
X13234549Y-18656055D01*
X13234549Y-18656055D02*
X13244072Y-18637008D01*
X13244072Y-18637008D02*
X13263120Y-18608436D01*
X13263120Y-18608436D02*
X13272644Y-18598912D01*
X13348834Y-18694150D02*
X13348834Y-18827484D01*
X13348834Y-18713198D02*
X13358358Y-18703674D01*
X13358358Y-18703674D02*
X13377406Y-18694150D01*
X13377406Y-18694150D02*
X13405977Y-18694150D01*
X13405977Y-18694150D02*
X13425025Y-18703674D01*
X13425025Y-18703674D02*
X13434549Y-18722722D01*
X13434549Y-18722722D02*
X13434549Y-18827484D01*
X13558358Y-18827484D02*
X13539311Y-18817960D01*
X13539311Y-18817960D02*
X13529787Y-18808436D01*
X13529787Y-18808436D02*
X13520263Y-18789389D01*
X13520263Y-18789389D02*
X13520263Y-18732246D01*
X13520263Y-18732246D02*
X13529787Y-18713198D01*
X13529787Y-18713198D02*
X13539311Y-18703674D01*
X13539311Y-18703674D02*
X13558358Y-18694150D01*
X13558358Y-18694150D02*
X13586930Y-18694150D01*
X13586930Y-18694150D02*
X13605977Y-18703674D01*
X13605977Y-18703674D02*
X13615501Y-18713198D01*
X13615501Y-18713198D02*
X13625025Y-18732246D01*
X13625025Y-18732246D02*
X13625025Y-18789389D01*
X13625025Y-18789389D02*
X13615501Y-18808436D01*
X13615501Y-18808436D02*
X13605977Y-18817960D01*
X13605977Y-18817960D02*
X13586930Y-18827484D01*
X13586930Y-18827484D02*
X13558358Y-18827484D01*
X13682168Y-18694150D02*
X13758358Y-18694150D01*
X13710739Y-18627484D02*
X13710739Y-18798912D01*
X13710739Y-18798912D02*
X13720263Y-18817960D01*
X13720263Y-18817960D02*
X13739311Y-18827484D01*
X13739311Y-18827484D02*
X13758358Y-18827484D01*
X13977406Y-18694150D02*
X13977406Y-18894150D01*
X13977406Y-18703674D02*
X13996453Y-18694150D01*
X13996453Y-18694150D02*
X14034549Y-18694150D01*
X14034549Y-18694150D02*
X14053596Y-18703674D01*
X14053596Y-18703674D02*
X14063120Y-18713198D01*
X14063120Y-18713198D02*
X14072644Y-18732246D01*
X14072644Y-18732246D02*
X14072644Y-18789389D01*
X14072644Y-18789389D02*
X14063120Y-18808436D01*
X14063120Y-18808436D02*
X14053596Y-18817960D01*
X14053596Y-18817960D02*
X14034549Y-18827484D01*
X14034549Y-18827484D02*
X13996453Y-18827484D01*
X13996453Y-18827484D02*
X13977406Y-18817960D01*
X14186930Y-18827484D02*
X14167882Y-18817960D01*
X14167882Y-18817960D02*
X14158358Y-18798912D01*
X14158358Y-18798912D02*
X14158358Y-18627484D01*
X14348834Y-18827484D02*
X14348834Y-18722722D01*
X14348834Y-18722722D02*
X14339311Y-18703674D01*
X14339311Y-18703674D02*
X14320263Y-18694150D01*
X14320263Y-18694150D02*
X14282168Y-18694150D01*
X14282168Y-18694150D02*
X14263120Y-18703674D01*
X14348834Y-18817960D02*
X14329787Y-18827484D01*
X14329787Y-18827484D02*
X14282168Y-18827484D01*
X14282168Y-18827484D02*
X14263120Y-18817960D01*
X14263120Y-18817960D02*
X14253596Y-18798912D01*
X14253596Y-18798912D02*
X14253596Y-18779865D01*
X14253596Y-18779865D02*
X14263120Y-18760817D01*
X14263120Y-18760817D02*
X14282168Y-18751293D01*
X14282168Y-18751293D02*
X14329787Y-18751293D01*
X14329787Y-18751293D02*
X14348834Y-18741770D01*
X14415501Y-18694150D02*
X14491692Y-18694150D01*
X14444073Y-18627484D02*
X14444073Y-18798912D01*
X14444073Y-18798912D02*
X14453596Y-18817960D01*
X14453596Y-18817960D02*
X14472644Y-18827484D01*
X14472644Y-18827484D02*
X14491692Y-18827484D01*
X14634549Y-18817960D02*
X14615501Y-18827484D01*
X14615501Y-18827484D02*
X14577406Y-18827484D01*
X14577406Y-18827484D02*
X14558358Y-18817960D01*
X14558358Y-18817960D02*
X14548834Y-18798912D01*
X14548834Y-18798912D02*
X14548834Y-18722722D01*
X14548834Y-18722722D02*
X14558358Y-18703674D01*
X14558358Y-18703674D02*
X14577406Y-18694150D01*
X14577406Y-18694150D02*
X14615501Y-18694150D01*
X14615501Y-18694150D02*
X14634549Y-18703674D01*
X14634549Y-18703674D02*
X14644073Y-18722722D01*
X14644073Y-18722722D02*
X14644073Y-18741770D01*
X14644073Y-18741770D02*
X14548834Y-18760817D01*
X14815501Y-18827484D02*
X14815501Y-18627484D01*
X14815501Y-18817960D02*
X14796454Y-18827484D01*
X14796454Y-18827484D02*
X14758358Y-18827484D01*
X14758358Y-18827484D02*
X14739311Y-18817960D01*
X14739311Y-18817960D02*
X14729787Y-18808436D01*
X14729787Y-18808436D02*
X14720263Y-18789389D01*
X14720263Y-18789389D02*
X14720263Y-18732246D01*
X14720263Y-18732246D02*
X14729787Y-18713198D01*
X14729787Y-18713198D02*
X14739311Y-18703674D01*
X14739311Y-18703674D02*
X14758358Y-18694150D01*
X14758358Y-18694150D02*
X14796454Y-18694150D01*
X14796454Y-18694150D02*
X14815501Y-18703674D01*
X14891692Y-18903674D02*
X14901215Y-18894150D01*
X14901215Y-18894150D02*
X14920263Y-18865579D01*
X14920263Y-18865579D02*
X14929787Y-18846531D01*
X14929787Y-18846531D02*
X14939311Y-18817960D01*
X14939311Y-18817960D02*
X14948834Y-18770341D01*
X14948834Y-18770341D02*
X14948834Y-18732246D01*
X14948834Y-18732246D02*
X14939311Y-18684627D01*
X14939311Y-18684627D02*
X14929787Y-18656055D01*
X14929787Y-18656055D02*
X14920263Y-18637008D01*
X14920263Y-18637008D02*
X14901215Y-18608436D01*
X14901215Y-18608436D02*
X14891692Y-18598912D01*
X7915911Y-19126711D02*
X7915911Y-18985289D01*
X7774489Y-18985289D01*
X7774489Y-19126711D01*
X7915911Y-19126711D01*
X8291691Y-19014150D02*
X8291691Y-19147484D01*
X8244072Y-18937960D02*
X8196453Y-19080817D01*
X8196453Y-19080817D02*
X8320262Y-19080817D01*
X8396453Y-19128436D02*
X8405977Y-19137960D01*
X8405977Y-19137960D02*
X8396453Y-19147484D01*
X8396453Y-19147484D02*
X8386929Y-19137960D01*
X8386929Y-19137960D02*
X8396453Y-19128436D01*
X8396453Y-19128436D02*
X8396453Y-19147484D01*
X8529786Y-18947484D02*
X8548834Y-18947484D01*
X8548834Y-18947484D02*
X8567882Y-18957008D01*
X8567882Y-18957008D02*
X8577405Y-18966531D01*
X8577405Y-18966531D02*
X8586929Y-18985579D01*
X8586929Y-18985579D02*
X8596453Y-19023674D01*
X8596453Y-19023674D02*
X8596453Y-19071293D01*
X8596453Y-19071293D02*
X8586929Y-19109389D01*
X8586929Y-19109389D02*
X8577405Y-19128436D01*
X8577405Y-19128436D02*
X8567882Y-19137960D01*
X8567882Y-19137960D02*
X8548834Y-19147484D01*
X8548834Y-19147484D02*
X8529786Y-19147484D01*
X8529786Y-19147484D02*
X8510739Y-19137960D01*
X8510739Y-19137960D02*
X8501215Y-19128436D01*
X8501215Y-19128436D02*
X8491691Y-19109389D01*
X8491691Y-19109389D02*
X8482167Y-19071293D01*
X8482167Y-19071293D02*
X8482167Y-19023674D01*
X8482167Y-19023674D02*
X8491691Y-18985579D01*
X8491691Y-18985579D02*
X8501215Y-18966531D01*
X8501215Y-18966531D02*
X8510739Y-18957008D01*
X8510739Y-18957008D02*
X8529786Y-18947484D01*
X8720263Y-18947484D02*
X8739310Y-18947484D01*
X8739310Y-18947484D02*
X8758358Y-18957008D01*
X8758358Y-18957008D02*
X8767882Y-18966531D01*
X8767882Y-18966531D02*
X8777405Y-18985579D01*
X8777405Y-18985579D02*
X8786929Y-19023674D01*
X8786929Y-19023674D02*
X8786929Y-19071293D01*
X8786929Y-19071293D02*
X8777405Y-19109389D01*
X8777405Y-19109389D02*
X8767882Y-19128436D01*
X8767882Y-19128436D02*
X8758358Y-19137960D01*
X8758358Y-19137960D02*
X8739310Y-19147484D01*
X8739310Y-19147484D02*
X8720263Y-19147484D01*
X8720263Y-19147484D02*
X8701215Y-19137960D01*
X8701215Y-19137960D02*
X8691691Y-19128436D01*
X8691691Y-19128436D02*
X8682167Y-19109389D01*
X8682167Y-19109389D02*
X8672644Y-19071293D01*
X8672644Y-19071293D02*
X8672644Y-19023674D01*
X8672644Y-19023674D02*
X8682167Y-18985579D01*
X8682167Y-18985579D02*
X8691691Y-18966531D01*
X8691691Y-18966531D02*
X8701215Y-18957008D01*
X8701215Y-18957008D02*
X8720263Y-18947484D01*
X8910739Y-18947484D02*
X8929786Y-18947484D01*
X8929786Y-18947484D02*
X8948834Y-18957008D01*
X8948834Y-18957008D02*
X8958358Y-18966531D01*
X8958358Y-18966531D02*
X8967882Y-18985579D01*
X8967882Y-18985579D02*
X8977405Y-19023674D01*
X8977405Y-19023674D02*
X8977405Y-19071293D01*
X8977405Y-19071293D02*
X8967882Y-19109389D01*
X8967882Y-19109389D02*
X8958358Y-19128436D01*
X8958358Y-19128436D02*
X8948834Y-19137960D01*
X8948834Y-19137960D02*
X8929786Y-19147484D01*
X8929786Y-19147484D02*
X8910739Y-19147484D01*
X8910739Y-19147484D02*
X8891691Y-19137960D01*
X8891691Y-19137960D02*
X8882167Y-19128436D01*
X8882167Y-19128436D02*
X8872644Y-19109389D01*
X8872644Y-19109389D02*
X8863120Y-19071293D01*
X8863120Y-19071293D02*
X8863120Y-19023674D01*
X8863120Y-19023674D02*
X8872644Y-18985579D01*
X8872644Y-18985579D02*
X8882167Y-18966531D01*
X8882167Y-18966531D02*
X8891691Y-18957008D01*
X8891691Y-18957008D02*
X8910739Y-18947484D01*
X9063120Y-19147484D02*
X9063120Y-19014150D01*
X9063120Y-19033198D02*
X9072644Y-19023674D01*
X9072644Y-19023674D02*
X9091691Y-19014150D01*
X9091691Y-19014150D02*
X9120263Y-19014150D01*
X9120263Y-19014150D02*
X9139310Y-19023674D01*
X9139310Y-19023674D02*
X9148834Y-19042722D01*
X9148834Y-19042722D02*
X9148834Y-19147484D01*
X9148834Y-19042722D02*
X9158358Y-19023674D01*
X9158358Y-19023674D02*
X9177405Y-19014150D01*
X9177405Y-19014150D02*
X9205977Y-19014150D01*
X9205977Y-19014150D02*
X9225025Y-19023674D01*
X9225025Y-19023674D02*
X9234548Y-19042722D01*
X9234548Y-19042722D02*
X9234548Y-19147484D01*
X9329786Y-19147484D02*
X9329786Y-19014150D01*
X9329786Y-19033198D02*
X9339310Y-19023674D01*
X9339310Y-19023674D02*
X9358358Y-19014150D01*
X9358358Y-19014150D02*
X9386929Y-19014150D01*
X9386929Y-19014150D02*
X9405977Y-19023674D01*
X9405977Y-19023674D02*
X9415501Y-19042722D01*
X9415501Y-19042722D02*
X9415501Y-19147484D01*
X9415501Y-19042722D02*
X9425025Y-19023674D01*
X9425025Y-19023674D02*
X9444072Y-19014150D01*
X9444072Y-19014150D02*
X9472644Y-19014150D01*
X9472644Y-19014150D02*
X9491691Y-19023674D01*
X9491691Y-19023674D02*
X9501215Y-19042722D01*
X9501215Y-19042722D02*
X9501215Y-19147484D01*
X9891691Y-18937960D02*
X9720263Y-19195103D01*
X10148834Y-18947484D02*
X10167882Y-18947484D01*
X10167882Y-18947484D02*
X10186929Y-18957008D01*
X10186929Y-18957008D02*
X10196453Y-18966531D01*
X10196453Y-18966531D02*
X10205977Y-18985579D01*
X10205977Y-18985579D02*
X10215501Y-19023674D01*
X10215501Y-19023674D02*
X10215501Y-19071293D01*
X10215501Y-19071293D02*
X10205977Y-19109389D01*
X10205977Y-19109389D02*
X10196453Y-19128436D01*
X10196453Y-19128436D02*
X10186929Y-19137960D01*
X10186929Y-19137960D02*
X10167882Y-19147484D01*
X10167882Y-19147484D02*
X10148834Y-19147484D01*
X10148834Y-19147484D02*
X10129787Y-19137960D01*
X10129787Y-19137960D02*
X10120263Y-19128436D01*
X10120263Y-19128436D02*
X10110739Y-19109389D01*
X10110739Y-19109389D02*
X10101215Y-19071293D01*
X10101215Y-19071293D02*
X10101215Y-19023674D01*
X10101215Y-19023674D02*
X10110739Y-18985579D01*
X10110739Y-18985579D02*
X10120263Y-18966531D01*
X10120263Y-18966531D02*
X10129787Y-18957008D01*
X10129787Y-18957008D02*
X10148834Y-18947484D01*
X10301215Y-19128436D02*
X10310739Y-19137960D01*
X10310739Y-19137960D02*
X10301215Y-19147484D01*
X10301215Y-19147484D02*
X10291691Y-19137960D01*
X10291691Y-19137960D02*
X10301215Y-19128436D01*
X10301215Y-19128436D02*
X10301215Y-19147484D01*
X10501215Y-19147484D02*
X10386929Y-19147484D01*
X10444072Y-19147484D02*
X10444072Y-18947484D01*
X10444072Y-18947484D02*
X10425025Y-18976055D01*
X10425025Y-18976055D02*
X10405977Y-18995103D01*
X10405977Y-18995103D02*
X10386929Y-19004627D01*
X10682168Y-18947484D02*
X10586929Y-18947484D01*
X10586929Y-18947484D02*
X10577406Y-19042722D01*
X10577406Y-19042722D02*
X10586929Y-19033198D01*
X10586929Y-19033198D02*
X10605977Y-19023674D01*
X10605977Y-19023674D02*
X10653596Y-19023674D01*
X10653596Y-19023674D02*
X10672644Y-19033198D01*
X10672644Y-19033198D02*
X10682168Y-19042722D01*
X10682168Y-19042722D02*
X10691691Y-19061770D01*
X10691691Y-19061770D02*
X10691691Y-19109389D01*
X10691691Y-19109389D02*
X10682168Y-19128436D01*
X10682168Y-19128436D02*
X10672644Y-19137960D01*
X10672644Y-19137960D02*
X10653596Y-19147484D01*
X10653596Y-19147484D02*
X10605977Y-19147484D01*
X10605977Y-19147484D02*
X10586929Y-19137960D01*
X10586929Y-19137960D02*
X10577406Y-19128436D01*
X10758358Y-18947484D02*
X10891691Y-18947484D01*
X10891691Y-18947484D02*
X10805977Y-19147484D01*
X11063120Y-18947484D02*
X10967882Y-18947484D01*
X10967882Y-18947484D02*
X10958358Y-19042722D01*
X10958358Y-19042722D02*
X10967882Y-19033198D01*
X10967882Y-19033198D02*
X10986929Y-19023674D01*
X10986929Y-19023674D02*
X11034549Y-19023674D01*
X11034549Y-19023674D02*
X11053596Y-19033198D01*
X11053596Y-19033198D02*
X11063120Y-19042722D01*
X11063120Y-19042722D02*
X11072644Y-19061770D01*
X11072644Y-19061770D02*
X11072644Y-19109389D01*
X11072644Y-19109389D02*
X11063120Y-19128436D01*
X11063120Y-19128436D02*
X11053596Y-19137960D01*
X11053596Y-19137960D02*
X11034549Y-19147484D01*
X11034549Y-19147484D02*
X10986929Y-19147484D01*
X10986929Y-19147484D02*
X10967882Y-19137960D01*
X10967882Y-19137960D02*
X10958358Y-19128436D01*
X11148834Y-18947484D02*
X11148834Y-18985579D01*
X11225025Y-18947484D02*
X11225025Y-18985579D01*
X11520263Y-19223674D02*
X11510739Y-19214150D01*
X11510739Y-19214150D02*
X11491691Y-19185579D01*
X11491691Y-19185579D02*
X11482168Y-19166531D01*
X11482168Y-19166531D02*
X11472644Y-19137960D01*
X11472644Y-19137960D02*
X11463120Y-19090341D01*
X11463120Y-19090341D02*
X11463120Y-19052246D01*
X11463120Y-19052246D02*
X11472644Y-19004627D01*
X11472644Y-19004627D02*
X11482168Y-18976055D01*
X11482168Y-18976055D02*
X11491691Y-18957008D01*
X11491691Y-18957008D02*
X11510739Y-18928436D01*
X11510739Y-18928436D02*
X11520263Y-18918912D01*
X11577406Y-18947484D02*
X11701215Y-18947484D01*
X11701215Y-18947484D02*
X11634548Y-19023674D01*
X11634548Y-19023674D02*
X11663120Y-19023674D01*
X11663120Y-19023674D02*
X11682168Y-19033198D01*
X11682168Y-19033198D02*
X11691691Y-19042722D01*
X11691691Y-19042722D02*
X11701215Y-19061770D01*
X11701215Y-19061770D02*
X11701215Y-19109389D01*
X11701215Y-19109389D02*
X11691691Y-19128436D01*
X11691691Y-19128436D02*
X11682168Y-19137960D01*
X11682168Y-19137960D02*
X11663120Y-19147484D01*
X11663120Y-19147484D02*
X11605977Y-19147484D01*
X11605977Y-19147484D02*
X11586929Y-19137960D01*
X11586929Y-19137960D02*
X11577406Y-19128436D01*
X11882168Y-18947484D02*
X11786929Y-18947484D01*
X11786929Y-18947484D02*
X11777406Y-19042722D01*
X11777406Y-19042722D02*
X11786929Y-19033198D01*
X11786929Y-19033198D02*
X11805977Y-19023674D01*
X11805977Y-19023674D02*
X11853596Y-19023674D01*
X11853596Y-19023674D02*
X11872644Y-19033198D01*
X11872644Y-19033198D02*
X11882168Y-19042722D01*
X11882168Y-19042722D02*
X11891691Y-19061770D01*
X11891691Y-19061770D02*
X11891691Y-19109389D01*
X11891691Y-19109389D02*
X11882168Y-19128436D01*
X11882168Y-19128436D02*
X11872644Y-19137960D01*
X11872644Y-19137960D02*
X11853596Y-19147484D01*
X11853596Y-19147484D02*
X11805977Y-19147484D01*
X11805977Y-19147484D02*
X11786929Y-19137960D01*
X11786929Y-19137960D02*
X11777406Y-19128436D01*
X12129787Y-19147484D02*
X12129787Y-18947484D01*
X12215501Y-19147484D02*
X12215501Y-19042722D01*
X12215501Y-19042722D02*
X12205977Y-19023674D01*
X12205977Y-19023674D02*
X12186930Y-19014150D01*
X12186930Y-19014150D02*
X12158358Y-19014150D01*
X12158358Y-19014150D02*
X12139310Y-19023674D01*
X12139310Y-19023674D02*
X12129787Y-19033198D01*
X12339310Y-19147484D02*
X12320263Y-19137960D01*
X12320263Y-19137960D02*
X12310739Y-19128436D01*
X12310739Y-19128436D02*
X12301215Y-19109389D01*
X12301215Y-19109389D02*
X12301215Y-19052246D01*
X12301215Y-19052246D02*
X12310739Y-19033198D01*
X12310739Y-19033198D02*
X12320263Y-19023674D01*
X12320263Y-19023674D02*
X12339310Y-19014150D01*
X12339310Y-19014150D02*
X12367882Y-19014150D01*
X12367882Y-19014150D02*
X12386930Y-19023674D01*
X12386930Y-19023674D02*
X12396453Y-19033198D01*
X12396453Y-19033198D02*
X12405977Y-19052246D01*
X12405977Y-19052246D02*
X12405977Y-19109389D01*
X12405977Y-19109389D02*
X12396453Y-19128436D01*
X12396453Y-19128436D02*
X12386930Y-19137960D01*
X12386930Y-19137960D02*
X12367882Y-19147484D01*
X12367882Y-19147484D02*
X12339310Y-19147484D01*
X12520263Y-19147484D02*
X12501215Y-19137960D01*
X12501215Y-19137960D02*
X12491691Y-19118912D01*
X12491691Y-19118912D02*
X12491691Y-18947484D01*
X12672644Y-19137960D02*
X12653596Y-19147484D01*
X12653596Y-19147484D02*
X12615501Y-19147484D01*
X12615501Y-19147484D02*
X12596453Y-19137960D01*
X12596453Y-19137960D02*
X12586930Y-19118912D01*
X12586930Y-19118912D02*
X12586930Y-19042722D01*
X12586930Y-19042722D02*
X12596453Y-19023674D01*
X12596453Y-19023674D02*
X12615501Y-19014150D01*
X12615501Y-19014150D02*
X12653596Y-19014150D01*
X12653596Y-19014150D02*
X12672644Y-19023674D01*
X12672644Y-19023674D02*
X12682168Y-19042722D01*
X12682168Y-19042722D02*
X12682168Y-19061770D01*
X12682168Y-19061770D02*
X12586930Y-19080817D01*
X12758358Y-19137960D02*
X12777406Y-19147484D01*
X12777406Y-19147484D02*
X12815501Y-19147484D01*
X12815501Y-19147484D02*
X12834549Y-19137960D01*
X12834549Y-19137960D02*
X12844072Y-19118912D01*
X12844072Y-19118912D02*
X12844072Y-19109389D01*
X12844072Y-19109389D02*
X12834549Y-19090341D01*
X12834549Y-19090341D02*
X12815501Y-19080817D01*
X12815501Y-19080817D02*
X12786930Y-19080817D01*
X12786930Y-19080817D02*
X12767882Y-19071293D01*
X12767882Y-19071293D02*
X12758358Y-19052246D01*
X12758358Y-19052246D02*
X12758358Y-19042722D01*
X12758358Y-19042722D02*
X12767882Y-19023674D01*
X12767882Y-19023674D02*
X12786930Y-19014150D01*
X12786930Y-19014150D02*
X12815501Y-19014150D01*
X12815501Y-19014150D02*
X12834549Y-19023674D01*
X12910739Y-19223674D02*
X12920263Y-19214150D01*
X12920263Y-19214150D02*
X12939311Y-19185579D01*
X12939311Y-19185579D02*
X12948834Y-19166531D01*
X12948834Y-19166531D02*
X12958358Y-19137960D01*
X12958358Y-19137960D02*
X12967882Y-19090341D01*
X12967882Y-19090341D02*
X12967882Y-19052246D01*
X12967882Y-19052246D02*
X12958358Y-19004627D01*
X12958358Y-19004627D02*
X12948834Y-18976055D01*
X12948834Y-18976055D02*
X12939311Y-18957008D01*
X12939311Y-18957008D02*
X12920263Y-18928436D01*
X12920263Y-18928436D02*
X12910739Y-18918912D01*
X13272644Y-19223674D02*
X13263120Y-19214150D01*
X13263120Y-19214150D02*
X13244072Y-19185579D01*
X13244072Y-19185579D02*
X13234549Y-19166531D01*
X13234549Y-19166531D02*
X13225025Y-19137960D01*
X13225025Y-19137960D02*
X13215501Y-19090341D01*
X13215501Y-19090341D02*
X13215501Y-19052246D01*
X13215501Y-19052246D02*
X13225025Y-19004627D01*
X13225025Y-19004627D02*
X13234549Y-18976055D01*
X13234549Y-18976055D02*
X13244072Y-18957008D01*
X13244072Y-18957008D02*
X13263120Y-18928436D01*
X13263120Y-18928436D02*
X13272644Y-18918912D01*
X13348834Y-19014150D02*
X13348834Y-19147484D01*
X13348834Y-19033198D02*
X13358358Y-19023674D01*
X13358358Y-19023674D02*
X13377406Y-19014150D01*
X13377406Y-19014150D02*
X13405977Y-19014150D01*
X13405977Y-19014150D02*
X13425025Y-19023674D01*
X13425025Y-19023674D02*
X13434549Y-19042722D01*
X13434549Y-19042722D02*
X13434549Y-19147484D01*
X13558358Y-19147484D02*
X13539311Y-19137960D01*
X13539311Y-19137960D02*
X13529787Y-19128436D01*
X13529787Y-19128436D02*
X13520263Y-19109389D01*
X13520263Y-19109389D02*
X13520263Y-19052246D01*
X13520263Y-19052246D02*
X13529787Y-19033198D01*
X13529787Y-19033198D02*
X13539311Y-19023674D01*
X13539311Y-19023674D02*
X13558358Y-19014150D01*
X13558358Y-19014150D02*
X13586930Y-19014150D01*
X13586930Y-19014150D02*
X13605977Y-19023674D01*
X13605977Y-19023674D02*
X13615501Y-19033198D01*
X13615501Y-19033198D02*
X13625025Y-19052246D01*
X13625025Y-19052246D02*
X13625025Y-19109389D01*
X13625025Y-19109389D02*
X13615501Y-19128436D01*
X13615501Y-19128436D02*
X13605977Y-19137960D01*
X13605977Y-19137960D02*
X13586930Y-19147484D01*
X13586930Y-19147484D02*
X13558358Y-19147484D01*
X13682168Y-19014150D02*
X13758358Y-19014150D01*
X13710739Y-18947484D02*
X13710739Y-19118912D01*
X13710739Y-19118912D02*
X13720263Y-19137960D01*
X13720263Y-19137960D02*
X13739311Y-19147484D01*
X13739311Y-19147484D02*
X13758358Y-19147484D01*
X13977406Y-19014150D02*
X13977406Y-19214150D01*
X13977406Y-19023674D02*
X13996453Y-19014150D01*
X13996453Y-19014150D02*
X14034549Y-19014150D01*
X14034549Y-19014150D02*
X14053596Y-19023674D01*
X14053596Y-19023674D02*
X14063120Y-19033198D01*
X14063120Y-19033198D02*
X14072644Y-19052246D01*
X14072644Y-19052246D02*
X14072644Y-19109389D01*
X14072644Y-19109389D02*
X14063120Y-19128436D01*
X14063120Y-19128436D02*
X14053596Y-19137960D01*
X14053596Y-19137960D02*
X14034549Y-19147484D01*
X14034549Y-19147484D02*
X13996453Y-19147484D01*
X13996453Y-19147484D02*
X13977406Y-19137960D01*
X14186930Y-19147484D02*
X14167882Y-19137960D01*
X14167882Y-19137960D02*
X14158358Y-19118912D01*
X14158358Y-19118912D02*
X14158358Y-18947484D01*
X14348834Y-19147484D02*
X14348834Y-19042722D01*
X14348834Y-19042722D02*
X14339311Y-19023674D01*
X14339311Y-19023674D02*
X14320263Y-19014150D01*
X14320263Y-19014150D02*
X14282168Y-19014150D01*
X14282168Y-19014150D02*
X14263120Y-19023674D01*
X14348834Y-19137960D02*
X14329787Y-19147484D01*
X14329787Y-19147484D02*
X14282168Y-19147484D01*
X14282168Y-19147484D02*
X14263120Y-19137960D01*
X14263120Y-19137960D02*
X14253596Y-19118912D01*
X14253596Y-19118912D02*
X14253596Y-19099865D01*
X14253596Y-19099865D02*
X14263120Y-19080817D01*
X14263120Y-19080817D02*
X14282168Y-19071293D01*
X14282168Y-19071293D02*
X14329787Y-19071293D01*
X14329787Y-19071293D02*
X14348834Y-19061770D01*
X14415501Y-19014150D02*
X14491692Y-19014150D01*
X14444073Y-18947484D02*
X14444073Y-19118912D01*
X14444073Y-19118912D02*
X14453596Y-19137960D01*
X14453596Y-19137960D02*
X14472644Y-19147484D01*
X14472644Y-19147484D02*
X14491692Y-19147484D01*
X14634549Y-19137960D02*
X14615501Y-19147484D01*
X14615501Y-19147484D02*
X14577406Y-19147484D01*
X14577406Y-19147484D02*
X14558358Y-19137960D01*
X14558358Y-19137960D02*
X14548834Y-19118912D01*
X14548834Y-19118912D02*
X14548834Y-19042722D01*
X14548834Y-19042722D02*
X14558358Y-19023674D01*
X14558358Y-19023674D02*
X14577406Y-19014150D01*
X14577406Y-19014150D02*
X14615501Y-19014150D01*
X14615501Y-19014150D02*
X14634549Y-19023674D01*
X14634549Y-19023674D02*
X14644073Y-19042722D01*
X14644073Y-19042722D02*
X14644073Y-19061770D01*
X14644073Y-19061770D02*
X14548834Y-19080817D01*
X14815501Y-19147484D02*
X14815501Y-18947484D01*
X14815501Y-19137960D02*
X14796454Y-19147484D01*
X14796454Y-19147484D02*
X14758358Y-19147484D01*
X14758358Y-19147484D02*
X14739311Y-19137960D01*
X14739311Y-19137960D02*
X14729787Y-19128436D01*
X14729787Y-19128436D02*
X14720263Y-19109389D01*
X14720263Y-19109389D02*
X14720263Y-19052246D01*
X14720263Y-19052246D02*
X14729787Y-19033198D01*
X14729787Y-19033198D02*
X14739311Y-19023674D01*
X14739311Y-19023674D02*
X14758358Y-19014150D01*
X14758358Y-19014150D02*
X14796454Y-19014150D01*
X14796454Y-19014150D02*
X14815501Y-19023674D01*
X14891692Y-19223674D02*
X14901215Y-19214150D01*
X14901215Y-19214150D02*
X14920263Y-19185579D01*
X14920263Y-19185579D02*
X14929787Y-19166531D01*
X14929787Y-19166531D02*
X14939311Y-19137960D01*
X14939311Y-19137960D02*
X14948834Y-19090341D01*
X14948834Y-19090341D02*
X14948834Y-19052246D01*
X14948834Y-19052246D02*
X14939311Y-19004627D01*
X14939311Y-19004627D02*
X14929787Y-18976055D01*
X14929787Y-18976055D02*
X14920263Y-18957008D01*
X14920263Y-18957008D02*
X14901215Y-18928436D01*
X14901215Y-18928436D02*
X14891692Y-18918912D01*
M02*
