M48
; DRILL file {KiCad 7.0.8} date 2023 November 23, Thursday 13:30:29
; FORMAT={-:-/ absolute / metric / decimal}
; #@! TF.CreationDate,2023-11-23T13:30:29+08:00
; #@! TF.GenerationSoftware,Kicad,Pcbnew,7.0.8
; #@! TF.FileFunction,NonPlated,1,2,NPTH
FMAT,2
METRIC
; #@! TA.AperFunction,NonPlated,NPTH,ComponentDrill
T1C1.500
; #@! TA.AperFunction,NonPlated,NPTH,ComponentDrill
T2C1.750
; #@! TA.AperFunction,NonPlated,NPTH,ComponentDrill
T3C3.050
; #@! TA.AperFunction,NonPlated,NPTH,ComponentDrill
T4C4.000
%
G90
G05
T1
X205.472Y-52.4
X205.472Y-59.4
X210.072Y-52.4
X210.072Y-59.4
T2
X86.36Y-66.675
X86.36Y-85.725
X86.36Y-104.775
X86.36Y-123.825
X88.9Y-142.875
X96.52Y-66.675
X96.52Y-85.725
X96.52Y-104.775
X96.52Y-123.825
X99.06Y-142.875
X107.95Y-66.675
X107.95Y-85.725
X107.95Y-104.775
X107.95Y-123.825
X107.95Y-142.875
X118.11Y-66.675
X118.11Y-85.725
X118.11Y-104.775
X118.11Y-123.825
X118.11Y-142.875
X127.0Y-62.23
X127.0Y-81.28
X127.0Y-100.33
X127.0Y-119.38
X127.0Y-138.43
X137.16Y-62.23
X137.16Y-81.28
X137.16Y-100.33
X137.16Y-119.38
X137.16Y-138.43
X146.05Y-59.69
X146.05Y-78.74
X146.05Y-97.79
X146.05Y-116.84
X146.05Y-135.89
X156.21Y-59.69
X156.21Y-78.74
X156.21Y-97.79
X156.21Y-116.84
X156.21Y-135.89
X165.1Y-62.23
X165.1Y-81.28
X165.1Y-100.33
X165.1Y-119.38
X171.623Y-140.29
X175.26Y-62.23
X175.26Y-81.28
X175.26Y-100.33
X175.26Y-119.38
X181.437Y-142.92
X184.15Y-64.135
X184.15Y-83.185
X184.15Y-102.235
X184.15Y-121.285
X194.31Y-64.135
X194.31Y-83.185
X194.31Y-102.235
X194.31Y-121.285
X197.485Y-152.989
X202.565Y-144.191
X203.2Y-73.66
X207.691Y-125.095
X208.28Y-92.71
X208.28Y-102.87
X213.36Y-73.66
X213.995Y-162.514
X216.489Y-130.175
X219.075Y-153.716
X224.201Y-134.62
X232.999Y-139.7
T3
X87.63Y-64.135
X87.63Y-83.185
X87.63Y-102.235
X87.63Y-121.285
X90.17Y-140.335
X93.98Y-61.595
X93.98Y-80.645
X93.98Y-99.695
X93.98Y-118.745
X96.52Y-137.795
X109.22Y-64.135
X109.22Y-83.185
X109.22Y-102.235
X109.22Y-121.285
X109.22Y-140.335
X115.57Y-61.595
X115.57Y-80.645
X115.57Y-99.695
X115.57Y-118.745
X115.57Y-137.795
X128.27Y-59.69
X128.27Y-78.74
X128.27Y-97.79
X128.27Y-116.84
X128.27Y-135.89
X134.62Y-57.15
X134.62Y-76.2
X134.62Y-95.25
X134.62Y-114.3
X134.62Y-133.35
X147.32Y-57.15
X147.32Y-76.2
X147.32Y-95.25
X147.32Y-114.3
X147.32Y-133.35
X153.67Y-54.61
X153.67Y-73.66
X153.67Y-92.71
X153.67Y-111.76
X153.67Y-130.81
X166.37Y-59.69
X166.37Y-78.74
X166.37Y-97.79
X166.37Y-116.84
X172.72Y-57.15
X172.72Y-76.2
X172.72Y-95.25
X172.72Y-114.3
X173.507Y-138.165
X180.298Y-137.355
X185.42Y-61.595
X185.42Y-80.645
X185.42Y-99.695
X185.42Y-118.745
X191.77Y-59.055
X191.77Y-78.105
X191.77Y-97.155
X191.77Y-116.205
X203.154Y-153.33
X204.13Y-146.56
X204.47Y-71.12
X210.06Y-123.53
X210.82Y-68.58
X210.82Y-93.98
X213.36Y-100.33
X216.83Y-124.506
X219.664Y-162.855
X220.64Y-156.085
X226.57Y-133.055
X233.34Y-134.031
T4
X91.44Y-66.675
X91.44Y-85.725
X91.44Y-104.775
X91.44Y-123.825
X93.98Y-142.875
X113.03Y-66.675
X113.03Y-85.725
X113.03Y-104.775
X113.03Y-123.825
X113.03Y-142.875
X132.08Y-62.23
X132.08Y-81.28
X132.08Y-100.33
X132.08Y-119.38
X132.08Y-138.43
X151.13Y-59.69
X151.13Y-78.74
X151.13Y-97.79
X151.13Y-116.84
X151.13Y-135.89
X170.18Y-62.23
X170.18Y-81.28
X170.18Y-100.33
X170.18Y-119.38
X176.53Y-141.605
X189.23Y-64.135
X189.23Y-83.185
X189.23Y-102.235
X189.23Y-121.285
X200.025Y-148.59
X208.28Y-73.66
X208.28Y-97.79
X212.09Y-127.635
X216.535Y-158.115
X228.6Y-137.16
T0
M30
