G04 #@! TF.GenerationSoftware,KiCad,Pcbnew,7.0.8*
G04 #@! TF.CreationDate,2023-11-23T13:30:25+08:00*
G04 #@! TF.ProjectId,redox_rev1_hs,7265646f-785f-4726-9576-315f68732e6b,1.0*
G04 #@! TF.SameCoordinates,Original*
G04 #@! TF.FileFunction,Soldermask,Top*
G04 #@! TF.FilePolarity,Negative*
%FSLAX46Y46*%
G04 Gerber Fmt 4.6, Leading zero omitted, Abs format (unit mm)*
G04 Created by KiCad (PCBNEW 7.0.8) date 2023-11-23 13:30:25*
%MOMM*%
%LPD*%
G01*
G04 APERTURE LIST*
G04 Aperture macros list*
%AMRotRect*
0 Rectangle, with rotation*
0 The origin of the aperture is its center*
0 $1 length*
0 $2 width*
0 $3 Rotation angle, in degrees counterclockwise*
0 Add horizontal line*
21,1,$1,$2,0,0,$3*%
G04 Aperture macros list end*
%ADD10R,1.200000X1.200000*%
%ADD11R,1.600000X1.600000*%
%ADD12C,1.600000*%
%ADD13RotRect,1.200000X1.200000X150.000000*%
%ADD14RotRect,1.600000X1.600000X150.000000*%
%ADD15RotRect,1.200000X1.200000X255.000000*%
%ADD16RotRect,1.600000X1.600000X255.000000*%
%ADD17C,1.750000*%
%ADD18C,3.050000*%
%ADD19C,4.000000*%
%ADD20R,1.700000X1.700000*%
%ADD21O,1.700000X1.700000*%
%ADD22C,2.000000*%
%ADD23C,1.500000*%
%ADD24O,1.600000X2.200000*%
%ADD25R,1.752600X1.752600*%
%ADD26C,1.752600*%
G04 APERTURE END LIST*
D10*
X89865000Y-74930000D03*
D11*
X87540000Y-74930000D03*
D12*
X95340000Y-74930000D03*
D10*
X93015000Y-74930000D03*
X111455000Y-74930000D03*
D11*
X109130000Y-74930000D03*
D12*
X116930000Y-74930000D03*
D10*
X114605000Y-74930000D03*
X130505000Y-70485000D03*
D11*
X128180000Y-70485000D03*
D12*
X135980000Y-70485000D03*
D10*
X133655000Y-70485000D03*
X149555000Y-67945000D03*
D11*
X147230000Y-67945000D03*
D12*
X155030000Y-67945000D03*
D10*
X152705000Y-67945000D03*
X168605000Y-70485000D03*
D11*
X166280000Y-70485000D03*
D12*
X174080000Y-70485000D03*
D10*
X171755000Y-70485000D03*
X187655000Y-72390000D03*
D11*
X185330000Y-72390000D03*
D12*
X193130000Y-72390000D03*
D10*
X190805000Y-72390000D03*
X206705000Y-81915000D03*
D11*
X204380000Y-81915000D03*
D12*
X212180000Y-81915000D03*
D10*
X209855000Y-81915000D03*
X89865000Y-93980000D03*
D11*
X87540000Y-93980000D03*
D12*
X95340000Y-93980000D03*
D10*
X93015000Y-93980000D03*
X111455000Y-93980000D03*
D11*
X109130000Y-93980000D03*
D12*
X116930000Y-93980000D03*
D10*
X114605000Y-93980000D03*
X130505000Y-89535000D03*
D11*
X128180000Y-89535000D03*
D12*
X135980000Y-89535000D03*
D10*
X133655000Y-89535000D03*
X149555000Y-86995000D03*
D11*
X147230000Y-86995000D03*
D12*
X155030000Y-86995000D03*
D10*
X152705000Y-86995000D03*
X168605000Y-89535000D03*
D11*
X166280000Y-89535000D03*
D12*
X174080000Y-89535000D03*
D10*
X171755000Y-89535000D03*
X187655000Y-91440000D03*
D11*
X185330000Y-91440000D03*
D12*
X193130000Y-91440000D03*
D10*
X190805000Y-91440000D03*
X206705000Y-106680000D03*
D11*
X204380000Y-106680000D03*
D12*
X212180000Y-106680000D03*
D10*
X209855000Y-106680000D03*
X89865000Y-113030000D03*
D11*
X87540000Y-113030000D03*
D12*
X95340000Y-113030000D03*
D10*
X93015000Y-113030000D03*
X111455000Y-113030000D03*
D11*
X109130000Y-113030000D03*
D12*
X116930000Y-113030000D03*
D10*
X114605000Y-113030000D03*
X130505000Y-108585000D03*
D11*
X128180000Y-108585000D03*
D12*
X135980000Y-108585000D03*
D10*
X133655000Y-108585000D03*
X149555000Y-106045000D03*
D11*
X147230000Y-106045000D03*
D12*
X155030000Y-106045000D03*
D10*
X152705000Y-106045000D03*
X168605000Y-108585000D03*
D11*
X166280000Y-108585000D03*
D12*
X174080000Y-108585000D03*
D10*
X171755000Y-108585000D03*
X187655000Y-110490000D03*
D11*
X185330000Y-110490000D03*
D12*
X193130000Y-110490000D03*
D10*
X190805000Y-110490000D03*
D13*
X206281010Y-133832500D03*
D14*
X204267501Y-132670000D03*
D12*
X211022499Y-136570000D03*
D13*
X209008990Y-135407500D03*
D10*
X89865000Y-132080000D03*
D11*
X87540000Y-132080000D03*
D12*
X95340000Y-132080000D03*
D10*
X93015000Y-132080000D03*
X111455000Y-132080000D03*
D11*
X109130000Y-132080000D03*
D12*
X116930000Y-132080000D03*
D10*
X114605000Y-132080000D03*
X130505000Y-127635000D03*
D11*
X128180000Y-127635000D03*
D12*
X135980000Y-127635000D03*
D10*
X133655000Y-127635000D03*
X149555000Y-125095000D03*
D11*
X147230000Y-125095000D03*
D12*
X155030000Y-125095000D03*
D10*
X152705000Y-125095000D03*
X168605000Y-127635000D03*
D11*
X166280000Y-127635000D03*
D12*
X174080000Y-127635000D03*
D10*
X171755000Y-127635000D03*
X187655000Y-129540000D03*
D11*
X185330000Y-129540000D03*
D12*
X193130000Y-129540000D03*
D10*
X190805000Y-129540000D03*
D13*
X222791010Y-143357500D03*
D14*
X220777501Y-142195000D03*
D12*
X227532499Y-146095000D03*
D13*
X225518990Y-144932500D03*
D10*
X103505000Y-144450000D03*
D11*
X103505000Y-146775000D03*
D12*
X103505000Y-138975000D03*
D10*
X103505000Y-141300000D03*
X122555000Y-142545000D03*
D11*
X122555000Y-144870000D03*
D12*
X122555000Y-137070000D03*
D10*
X122555000Y-139395000D03*
X141605000Y-140005000D03*
D11*
X141605000Y-142330000D03*
D12*
X141605000Y-134530000D03*
D10*
X141605000Y-136855000D03*
X160655000Y-137465000D03*
D11*
X160655000Y-139790000D03*
D12*
X160655000Y-131990000D03*
D10*
X160655000Y-134315000D03*
D15*
X187552360Y-146047333D03*
D16*
X186950606Y-148293111D03*
D12*
X188969394Y-140758889D03*
D15*
X188367640Y-143004667D03*
D13*
X193962010Y-155168500D03*
D14*
X191948501Y-154006000D03*
D12*
X198703499Y-157906000D03*
D13*
X196689990Y-156743500D03*
X210726010Y-164820500D03*
D14*
X208712501Y-163658000D03*
D12*
X215467499Y-167558000D03*
D13*
X213453990Y-166395500D03*
D17*
X86360000Y-66675000D03*
D18*
X87630000Y-64135000D03*
D19*
X91440000Y-66675000D03*
D18*
X93980000Y-61595000D03*
D17*
X96520000Y-66675000D03*
X107950000Y-66675000D03*
D18*
X109220000Y-64135000D03*
D19*
X113030000Y-66675000D03*
D18*
X115570000Y-61595000D03*
D17*
X118110000Y-66675000D03*
X127000000Y-62230000D03*
D18*
X128270000Y-59690000D03*
D19*
X132080000Y-62230000D03*
D18*
X134620000Y-57150000D03*
D17*
X137160000Y-62230000D03*
X146050000Y-59690000D03*
D18*
X147320000Y-57150000D03*
D19*
X151130000Y-59690000D03*
D18*
X153670000Y-54610000D03*
D17*
X156210000Y-59690000D03*
X165100000Y-62230000D03*
D18*
X166370000Y-59690000D03*
D19*
X170180000Y-62230000D03*
D18*
X172720000Y-57150000D03*
D17*
X175260000Y-62230000D03*
X184150000Y-64135000D03*
D18*
X185420000Y-61595000D03*
D19*
X189230000Y-64135000D03*
D18*
X191770000Y-59055000D03*
D17*
X194310000Y-64135000D03*
X203200000Y-73660000D03*
D18*
X204470000Y-71120000D03*
D19*
X208280000Y-73660000D03*
D18*
X210820000Y-68580000D03*
D17*
X213360000Y-73660000D03*
X86360000Y-85725000D03*
D18*
X87630000Y-83185000D03*
D19*
X91440000Y-85725000D03*
D18*
X93980000Y-80645000D03*
D17*
X96520000Y-85725000D03*
X107950000Y-85725000D03*
D18*
X109220000Y-83185000D03*
D19*
X113030000Y-85725000D03*
D18*
X115570000Y-80645000D03*
D17*
X118110000Y-85725000D03*
X127000000Y-81280000D03*
D18*
X128270000Y-78740000D03*
D19*
X132080000Y-81280000D03*
D18*
X134620000Y-76200000D03*
D17*
X137160000Y-81280000D03*
X146050000Y-78740000D03*
D18*
X147320000Y-76200000D03*
D19*
X151130000Y-78740000D03*
D18*
X153670000Y-73660000D03*
D17*
X156210000Y-78740000D03*
X165100000Y-81280000D03*
D18*
X166370000Y-78740000D03*
D19*
X170180000Y-81280000D03*
D18*
X172720000Y-76200000D03*
D17*
X175260000Y-81280000D03*
X184150000Y-83185000D03*
D18*
X185420000Y-80645000D03*
D19*
X189230000Y-83185000D03*
D18*
X191770000Y-78105000D03*
D17*
X194310000Y-83185000D03*
X208280000Y-92710000D03*
D18*
X210820000Y-93980000D03*
D19*
X208280000Y-97790000D03*
D18*
X213360000Y-100330000D03*
D17*
X208280000Y-102870000D03*
X86360000Y-104775000D03*
D18*
X87630000Y-102235000D03*
D19*
X91440000Y-104775000D03*
D18*
X93980000Y-99695000D03*
D17*
X96520000Y-104775000D03*
X107950000Y-104775000D03*
D18*
X109220000Y-102235000D03*
D19*
X113030000Y-104775000D03*
D18*
X115570000Y-99695000D03*
D17*
X118110000Y-104775000D03*
X127000000Y-100330000D03*
D18*
X128270000Y-97790000D03*
D19*
X132080000Y-100330000D03*
D18*
X134620000Y-95250000D03*
D17*
X137160000Y-100330000D03*
X146050000Y-97790000D03*
D18*
X147320000Y-95250000D03*
D19*
X151130000Y-97790000D03*
D18*
X153670000Y-92710000D03*
D17*
X156210000Y-97790000D03*
X165100000Y-100330000D03*
D18*
X166370000Y-97790000D03*
D19*
X170180000Y-100330000D03*
D18*
X172720000Y-95250000D03*
D17*
X175260000Y-100330000D03*
X184150000Y-102235000D03*
D18*
X185420000Y-99695000D03*
D19*
X189230000Y-102235000D03*
D18*
X191770000Y-97155000D03*
D17*
X194310000Y-102235000D03*
X207690591Y-125095000D03*
D18*
X210060443Y-123530295D03*
D19*
X212090000Y-127635000D03*
D18*
X216829705Y-124505591D03*
D17*
X216489409Y-130175000D03*
X86360000Y-123825000D03*
D18*
X87630000Y-121285000D03*
D19*
X91440000Y-123825000D03*
D18*
X93980000Y-118745000D03*
D17*
X96520000Y-123825000D03*
X107950000Y-123825000D03*
D18*
X109220000Y-121285000D03*
D19*
X113030000Y-123825000D03*
D18*
X115570000Y-118745000D03*
D17*
X118110000Y-123825000D03*
X127000000Y-119380000D03*
D18*
X128270000Y-116840000D03*
D19*
X132080000Y-119380000D03*
D18*
X134620000Y-114300000D03*
D17*
X137160000Y-119380000D03*
X146050000Y-116840000D03*
D18*
X147320000Y-114300000D03*
D19*
X151130000Y-116840000D03*
D18*
X153670000Y-111760000D03*
D17*
X156210000Y-116840000D03*
X165100000Y-119380000D03*
D18*
X166370000Y-116840000D03*
D19*
X170180000Y-119380000D03*
D18*
X172720000Y-114300000D03*
D17*
X175260000Y-119380000D03*
X184150000Y-121285000D03*
D18*
X185420000Y-118745000D03*
D19*
X189230000Y-121285000D03*
D18*
X191770000Y-116205000D03*
D17*
X194310000Y-121285000D03*
X224200591Y-134620000D03*
D18*
X226570443Y-133055295D03*
D19*
X228600000Y-137160000D03*
D18*
X233339705Y-134030591D03*
D17*
X232999409Y-139700000D03*
X88900000Y-142875000D03*
D18*
X90170000Y-140335000D03*
D19*
X93980000Y-142875000D03*
D18*
X96520000Y-137795000D03*
D17*
X99060000Y-142875000D03*
X107950000Y-142875000D03*
D18*
X109220000Y-140335000D03*
D19*
X113030000Y-142875000D03*
D18*
X115570000Y-137795000D03*
D17*
X118110000Y-142875000D03*
X127000000Y-138430000D03*
D18*
X128270000Y-135890000D03*
D19*
X132080000Y-138430000D03*
D18*
X134620000Y-133350000D03*
D17*
X137160000Y-138430000D03*
X146050000Y-135890000D03*
D18*
X147320000Y-133350000D03*
D19*
X151130000Y-135890000D03*
D18*
X153670000Y-130810000D03*
D17*
X156210000Y-135890000D03*
X171623097Y-140290199D03*
D18*
X173507223Y-138165448D03*
D19*
X176530000Y-141605000D03*
D18*
X180298252Y-137355497D03*
D17*
X181436903Y-142919801D03*
X202565000Y-144190591D03*
D18*
X204129705Y-146560443D03*
D19*
X200025000Y-148590000D03*
D18*
X203154409Y-153329705D03*
D17*
X197485000Y-152989409D03*
X219075000Y-153715591D03*
D18*
X220639705Y-156085443D03*
D19*
X216535000Y-158115000D03*
D18*
X219664409Y-162854705D03*
D17*
X213995000Y-162514409D03*
D12*
X200660000Y-55536000D03*
X200660000Y-63336000D03*
X214884000Y-55536000D03*
X214884000Y-63336000D03*
D20*
X198882000Y-101600000D03*
D21*
X198882000Y-104140000D03*
X198882000Y-106680000D03*
D22*
X114808000Y-51308000D03*
X121308000Y-51308000D03*
X114808000Y-55808000D03*
X121308000Y-55808000D03*
D23*
X205472000Y-52400000D03*
X205472000Y-59400000D03*
X210072000Y-52400000D03*
X210072000Y-59400000D03*
D24*
X203172000Y-62100000D03*
X212372000Y-62100000D03*
X207772000Y-61000000D03*
X207772000Y-57000000D03*
X207772000Y-54000000D03*
D25*
X143510000Y-52070000D03*
D26*
X143510000Y-54610000D03*
X143510000Y-57150000D03*
X143510000Y-59690000D03*
X143510000Y-62230000D03*
X143510000Y-64770000D03*
X143510000Y-67310000D03*
X143510000Y-69850000D03*
X143510000Y-72390000D03*
X143510000Y-74930000D03*
X143510000Y-77470000D03*
X143510000Y-80010000D03*
X158750000Y-80010000D03*
X158750000Y-77470000D03*
X158750000Y-74930000D03*
X158750000Y-72390000D03*
X158750000Y-69850000D03*
X158750000Y-67310000D03*
X158750000Y-64770000D03*
X158750000Y-62230000D03*
X158750000Y-59690000D03*
X158750000Y-57150000D03*
X158750000Y-54610000D03*
X158750000Y-52070000D03*
D19*
X213360000Y-144272000D03*
X85725000Y-53975000D03*
X102870000Y-128905000D03*
X196215000Y-52070000D03*
M02*
