G04 #@! TF.GenerationSoftware,KiCad,Pcbnew,7.0.8*
G04 #@! TF.CreationDate,2023-11-23T13:30:25+08:00*
G04 #@! TF.ProjectId,redox_rev1_hs,7265646f-785f-4726-9576-315f68732e6b,1.0*
G04 #@! TF.SameCoordinates,Original*
G04 #@! TF.FileFunction,Paste,Top*
G04 #@! TF.FilePolarity,Positive*
%FSLAX46Y46*%
G04 Gerber Fmt 4.6, Leading zero omitted, Abs format (unit mm)*
G04 Created by KiCad (PCBNEW 7.0.8) date 2023-11-23 13:30:25*
%MOMM*%
%LPD*%
G01*
G04 APERTURE LIST*
G04 Aperture macros list*
%AMRotRect*
0 Rectangle, with rotation*
0 The origin of the aperture is its center*
0 $1 length*
0 $2 width*
0 $3 Rotation angle, in degrees counterclockwise*
0 Add horizontal line*
21,1,$1,$2,0,0,$3*%
G04 Aperture macros list end*
%ADD10R,1.200000X1.200000*%
%ADD11RotRect,1.200000X1.200000X150.000000*%
%ADD12RotRect,1.200000X1.200000X255.000000*%
G04 APERTURE END LIST*
D10*
X89865000Y-74930000D03*
X93015000Y-74930000D03*
X111455000Y-74930000D03*
X114605000Y-74930000D03*
X130505000Y-70485000D03*
X133655000Y-70485000D03*
X149555000Y-67945000D03*
X152705000Y-67945000D03*
X168605000Y-70485000D03*
X171755000Y-70485000D03*
X187655000Y-72390000D03*
X190805000Y-72390000D03*
X206705000Y-81915000D03*
X209855000Y-81915000D03*
X89865000Y-93980000D03*
X93015000Y-93980000D03*
X111455000Y-93980000D03*
X114605000Y-93980000D03*
X130505000Y-89535000D03*
X133655000Y-89535000D03*
X149555000Y-86995000D03*
X152705000Y-86995000D03*
X168605000Y-89535000D03*
X171755000Y-89535000D03*
X187655000Y-91440000D03*
X190805000Y-91440000D03*
X206705000Y-106680000D03*
X209855000Y-106680000D03*
X89865000Y-113030000D03*
X93015000Y-113030000D03*
X111455000Y-113030000D03*
X114605000Y-113030000D03*
X130505000Y-108585000D03*
X133655000Y-108585000D03*
X149555000Y-106045000D03*
X152705000Y-106045000D03*
X168605000Y-108585000D03*
X171755000Y-108585000D03*
X187655000Y-110490000D03*
X190805000Y-110490000D03*
D11*
X206281010Y-133832500D03*
X209008990Y-135407500D03*
D10*
X89865000Y-132080000D03*
X93015000Y-132080000D03*
X111455000Y-132080000D03*
X114605000Y-132080000D03*
X130505000Y-127635000D03*
X133655000Y-127635000D03*
X149555000Y-125095000D03*
X152705000Y-125095000D03*
X168605000Y-127635000D03*
X171755000Y-127635000D03*
X187655000Y-129540000D03*
X190805000Y-129540000D03*
D11*
X222791010Y-143357500D03*
X225518990Y-144932500D03*
D10*
X103505000Y-144450000D03*
X103505000Y-141300000D03*
X122555000Y-142545000D03*
X122555000Y-139395000D03*
X141605000Y-140005000D03*
X141605000Y-136855000D03*
X160655000Y-137465000D03*
X160655000Y-134315000D03*
D12*
X187552360Y-146047333D03*
X188367640Y-143004667D03*
D11*
X193962010Y-155168500D03*
X196689990Y-156743500D03*
X210726010Y-164820500D03*
X213453990Y-166395500D03*
M02*
