M48
; DRILL file {KiCad 7.0.8} date 2023 November 23, Thursday 13:30:29
; FORMAT={-:-/ absolute / metric / decimal}
; #@! TF.CreationDate,2023-11-23T13:30:29+08:00
; #@! TF.GenerationSoftware,Kicad,Pcbnew,7.0.8
; #@! TF.FileFunction,Plated,1,2,PTH
FMAT,2
METRIC
; #@! TA.AperFunction,Plated,PTH,ViaDrill
T1C0.400
; #@! TA.AperFunction,Plated,PTH,ComponentDrill
T2C0.900
; #@! TA.AperFunction,Plated,PTH,ComponentDrill
T3C1.000
; #@! TA.AperFunction,Plated,PTH,ComponentDrill
T4C1.092
; #@! TA.AperFunction,Plated,PTH,ComponentDrill
T5C1.100
; #@! TA.AperFunction,Plated,PTH,ComponentDrill
T6C3.200
%
G90
G05
T1
X136.906Y-87.122
X142.748Y-105.918
X143.764Y-122.682
X155.194Y-64.77
X163.322Y-64.262
X197.104Y-66.294
X197.358Y-58.928
T3
X87.54Y-74.93
X87.54Y-93.98
X87.54Y-113.03
X87.54Y-132.08
X95.34Y-74.93
X95.34Y-93.98
X95.34Y-113.03
X95.34Y-132.08
X103.505Y-138.975
X103.505Y-146.775
X109.13Y-74.93
X109.13Y-93.98
X109.13Y-113.03
X109.13Y-132.08
X116.93Y-74.93
X116.93Y-93.98
X116.93Y-113.03
X116.93Y-132.08
X122.555Y-137.07
X122.555Y-144.87
X128.18Y-70.485
X128.18Y-89.535
X128.18Y-108.585
X128.18Y-127.635
X135.98Y-70.485
X135.98Y-89.535
X135.98Y-108.585
X135.98Y-127.635
X141.605Y-134.53
X141.605Y-142.33
X147.23Y-67.945
X147.23Y-86.995
X147.23Y-106.045
X147.23Y-125.095
X155.03Y-67.945
X155.03Y-86.995
X155.03Y-106.045
X155.03Y-125.095
X160.655Y-131.99
X160.655Y-139.79
X166.28Y-70.485
X166.28Y-89.535
X166.28Y-108.585
X166.28Y-127.635
X174.08Y-70.485
X174.08Y-89.535
X174.08Y-108.585
X174.08Y-127.635
X185.33Y-72.39
X185.33Y-91.44
X185.33Y-110.49
X185.33Y-129.54
X186.951Y-148.293
X188.969Y-140.759
X191.949Y-154.006
X193.13Y-72.39
X193.13Y-91.44
X193.13Y-110.49
X193.13Y-129.54
X198.703Y-157.906
X198.882Y-101.6
X198.882Y-104.14
X198.882Y-106.68
X200.66Y-55.536
X200.66Y-63.336
X204.268Y-132.67
X204.38Y-81.915
X204.38Y-106.68
X208.713Y-163.658
X211.022Y-136.57
X212.18Y-81.915
X212.18Y-106.68
X214.884Y-55.536
X214.884Y-63.336
X215.467Y-167.558
X220.778Y-142.195
X227.532Y-146.095
T4
X143.51Y-52.07
X143.51Y-54.61
X143.51Y-57.15
X143.51Y-59.69
X143.51Y-62.23
X143.51Y-64.77
X143.51Y-67.31
X143.51Y-69.85
X143.51Y-72.39
X143.51Y-74.93
X143.51Y-77.47
X143.51Y-80.01
X158.75Y-52.07
X158.75Y-54.61
X158.75Y-57.15
X158.75Y-59.69
X158.75Y-62.23
X158.75Y-64.77
X158.75Y-67.31
X158.75Y-69.85
X158.75Y-72.39
X158.75Y-74.93
X158.75Y-77.47
X158.75Y-80.01
T5
X114.808Y-51.308
X114.808Y-55.808
X121.308Y-51.308
X121.308Y-55.808
T6
X85.725Y-53.975
X102.87Y-128.905
X196.215Y-52.07
X213.36Y-144.272
T2
X203.172Y-61.8G85X203.172Y-62.4
G05
X207.772Y-53.7G85X207.772Y-54.3
G05
X207.772Y-56.7G85X207.772Y-57.3
G05
X207.772Y-60.7G85X207.772Y-61.3
G05
X212.372Y-61.8G85X212.372Y-62.4
G05
T0
M30
